<?xml version="1.0" standalone="no"?>
<!DOCTYPE svg PUBLIC "-//W3C//DTD SVG 1.1//EN" "http://www.w3.org/Graphics/SVG/1.1/DTD/svg11.dtd" >
<svg xmlns="http://www.w3.org/2000/svg">
<metadata>
This is a custom SVG webfont generated by Font Squirrel.
Copyright   : Copyright c The Monotype Corporation plc BPGInfoTech 2004 All rights reserved
Foundry     : The Monotype Corporation plc BPGInfoTech
</metadata>
<defs>
<font id="BPGGlahoArialSPV5Regular" horiz-adv-x="1139" >
<font-face units-per-em="2048" ascent="1638" descent="-410" />
<missing-glyph horiz-adv-x="569" />
<glyph unicode=" "  horiz-adv-x="569" />
<glyph unicode="&#x09;" horiz-adv-x="569" />
<glyph unicode="&#xa0;" horiz-adv-x="569" />
<glyph unicode="!" horiz-adv-x="569" d="M176 1141v325h223v-325l-52 -777h-116zM184 0v205h207v-205h-207z" />
<glyph unicode="&#x22;" horiz-adv-x="727" d="M94 1226v240h205v-240l-45 -279h-110zM426 1226v240h205v-240l-48 -279h-108z" />
<glyph unicode="#" d="M21 401v149h199l74 363h-273v149h303l87 429h150l-87 -429h315l87 429h151l-87 -429h173v-149h-203l-75 -363h278v-149h-308l-87 -426h-150l86 426h-314l-87 -426h-150l87 426h-169zM370 550h314l75 363h-315z" />
<glyph unicode="$" d="M73 407l181 34q21 -145 74 -213q76 -96 182 -107v573q-111 21 -227 86q-86 48 -132.5 133t-46.5 193q0 192 136 311q91 80 270 98v86h106v-86q157 -15 249 -92q118 -98 142 -269l-186 -28q-16 106 -66.5 162.5t-138.5 74.5v-519q136 -34 180 -53q84 -37 137 -90 t81.5 -126t28.5 -158q0 -187 -119 -312t-308 -134v-182h-106v180q-135 17 -219.5 60.5t-146 140.5t-71.5 237zM284 1120q0 -92 51.5 -154t174.5 -99v498q-105 -16 -165.5 -84t-60.5 -161zM616 121q105 13 173.5 91t68.5 193q0 98 -48.5 157.5t-193.5 106.5v-548z" />
<glyph unicode="%" horiz-adv-x="1821" d="M119 1114q0 157 79 267t229 110q138 0 228.5 -98.5t90.5 -289.5q0 -186 -91.5 -286.5t-225.5 -100.5q-133 0 -221.5 99t-88.5 299zM276 1096q0 -141 45 -198.5t111 -57.5q68 0 112.5 58t44.5 212q0 142 -45 199.5t-112 57.5t-111.5 -58t-44.5 -213zM433 -54l802 1545h146 l-799 -1545h-149zM1067 344q0 158 79 267.5t230 109.5q138 0 228.5 -98.5t90.5 -289.5q0 -186 -91.5 -286.5t-226.5 -100.5q-133 0 -221.5 99.5t-88.5 298.5zM1224 326q0 -140 45 -198t111 -58q69 0 113.5 58t44.5 212q0 142 -45 199.5t-112 57.5q-68 0 -112.5 -58 t-44.5 -213z" />
<glyph unicode="&#x26;" horiz-adv-x="1366" d="M88 404q0 136 87.5 245.5t261.5 192.5q-99 114 -132 185t-33 137q0 132 103.5 229.5t260.5 97.5q150 0 245.5 -92t95.5 -221q0 -209 -277 -357l263 -335q45 88 70 204l187 -40q-48 -192 -130 -316q101 -134 229 -225l-121 -143q-109 70 -225 207q-89 -99 -194 -148.5 t-227 -49.5q-225 0 -357 152q-107 124 -107 277zM282 415q0 -89 71 -185t201 -96q81 0 167.5 50.5t138.5 130.5l-330 409q-146 -87 -197 -161.5t-51 -147.5zM457 1181q0 -34 17.5 -71.5t52.5 -79.5l80 -93q117 69 151.5 121t34.5 115q0 75 -47.5 122.5t-118.5 47.5 q-73 0 -121.5 -47t-48.5 -115z" />
<glyph unicode="'" horiz-adv-x="391" d="M90 1221v245h205v-245l-48 -274h-111z" />
<glyph unicode="(" horiz-adv-x="682" d="M124 531q0 238 77 456q90 253 278 504h129q-121 -208 -160 -297q-61 -138 -96 -288q-43 -187 -43 -376q0 -481 299 -961h-129q-149 188 -252 440t-103 522z" />
<glyph unicode=")" horiz-adv-x="682" d="M75 -431q299 480 299 961q0 188 -43 373q-34 150 -95 288q-39 90 -161 300h129q188 -251 278 -504q77 -218 77 -456q0 -270 -103.5 -522t-251.5 -440h-129z" />
<glyph unicode="*" horiz-adv-x="797" d="M64 1197l46 142q159 -56 231 -97q-19 181 -20 249h145q-3 -99 -23 -248q103 52 236 96l46 -142q-127 -42 -249 -56q61 -53 172 -189l-120 -85q-58 79 -137 215q-74 -141 -130 -215l-118 85q116 143 166 189q-129 25 -245 56z" />
<glyph unicode="+" horiz-adv-x="1196" d="M114 639v168h399v399h170v-399h399v-168h-399v-402h-170v402h-399z" />
<glyph unicode="," horiz-adv-x="569" d="M170 -213q57 25 84 73.5t30 139.5h-102v205h205v-205q0 -113 -40 -182.5t-127 -107.5z" />
<glyph unicode="-" horiz-adv-x="682" d="M65 440v181h553v-181h-553z" />
<glyph unicode="." horiz-adv-x="569" d="M186 0v205h205v-205h-205z" />
<glyph unicode="/" horiz-adv-x="569" d="M0 -25l425 1516h144l-424 -1516h-145z" />
<glyph unicode="0" d="M85 723q0 260 53.5 418.5t159 244.5t265.5 86q118 0 207 -47.5t147 -137t91 -218t33 -346.5q0 -258 -53 -416.5t-158.5 -245t-266.5 -86.5q-212 0 -333 152q-145 183 -145 596zM270 723q0 -361 84.5 -480.5t208.5 -119.5t208.5 120t84.5 480q0 362 -84.5 481t-210.5 119 q-124 0 -198 -105q-93 -134 -93 -495z" />
<glyph unicode="1" d="M223 930v174q151 71 264 172t160 196h116v-1472h-180v1147q-65 -62 -170.5 -124t-189.5 -93z" />
<glyph unicode="2" d="M62 0q-2 65 21 125q37 99 118.5 195t235.5 222q239 196 323 310.5t84 216.5q0 107 -76.5 180.5t-199.5 73.5q-130 0 -208 -78t-79 -216l-185 19q19 207 143 315.5t333 108.5q211 0 334 -117t123 -290q0 -88 -36 -173t-119.5 -179t-277.5 -258q-162 -136 -208 -184.5 t-76 -97.5h719v-173h-969z" />
<glyph unicode="3" d="M86 387l180 24q31 -153 105.5 -220.5t181.5 -67.5q127 0 214.5 88t87.5 218q0 124 -81 204.5t-206 80.5q-51 0 -127 -20l20 158q18 -2 29 -2q115 0 207 60t92 185q0 99 -67 164t-173 65q-105 0 -175 -66t-90 -198l-180 32q33 181 150 280.5t291 99.5q120 0 221 -51.5 t154.5 -140.5t53.5 -189q0 -95 -51 -173t-151 -124q130 -30 202 -124.5t72 -236.5q0 -192 -140 -325.5t-354 -133.5q-193 0 -320.5 115t-145.5 298z" />
<glyph unicode="4" d="M26 351v165l669 950h147v-950h198v-165h-198v-351h-180v351h-636zM203 516h459v661z" />
<glyph unicode="5" d="M85 384l189 16q21 -138 97.5 -207.5t184.5 -69.5q130 0 220 98t90 260q0 154 -86.5 243t-226.5 89q-87 0 -157 -39.5t-110 -102.5l-169 22l142 753h729v-172h-585l-79 -394q132 92 277 92q192 0 324 -133t132 -342q0 -199 -116 -344q-141 -178 -385 -178 q-200 0 -326.5 112t-144.5 297z" />
<glyph unicode="6" d="M77 686q0 425 157 618q137 168 369 168q173 0 283.5 -97t132.5 -268l-179 -14q-24 106 -68 154q-73 77 -180 77q-86 0 -151 -48q-85 -62 -134 -181t-51 -339q65 99 159 147t197 48q180 0 306.5 -132.5t126.5 -342.5q0 -138 -59.5 -256.5t-163.5 -181.5t-236 -63 q-225 0 -367 165.5t-142 545.5zM284 475q0 -93 39.5 -178t110.5 -129.5t149 -44.5q114 0 196 92t82 250q0 152 -81 239.5t-204 87.5q-122 0 -207 -87.5t-85 -229.5z" />
<glyph unicode="7" d="M97 1274v173h949v-140q-140 -149 -277.5 -396t-212.5 -508q-54 -184 -69 -403h-185q3 173 68 418t186.5 472.5t258.5 383.5h-718z" />
<glyph unicode="8" d="M83 424q0 143 72.5 239.5t206.5 131.5q-112 41 -166 117t-54 182q0 160 115 269t306 109q192 0 309 -111.5t117 -271.5q0 -102 -53.5 -177.5t-162.5 -116.5q135 -44 205.5 -142t70.5 -234q0 -188 -133 -316t-350 -128t-350 128.5t-133 320.5zM268 423q0 -77 36.5 -149 t108.5 -111.5t155 -39.5q129 0 213 83t84 211q0 130 -86.5 215t-216.5 85q-127 0 -210.5 -84t-83.5 -210zM326 1100q0 -104 67 -170t174 -66q104 0 170.5 65.5t66.5 160.5q0 99 -68.5 166.5t-170.5 67.5q-103 0 -171 -66t-68 -158z" />
<glyph unicode="9" d="M85 977q0 223 131.5 359t329.5 136q143 0 261.5 -77t180 -219.5t61.5 -412.5q0 -281 -61 -447.5t-181.5 -253.5t-282.5 -87q-172 0 -281 95.5t-131 268.5l173 16q22 -122 84 -177t159 -55q83 0 145.5 38t102.5 101.5t67 171.5t27 220q0 12 -1 36q-54 -86 -147.5 -139.5 t-202.5 -53.5q-182 0 -308 132t-126 348zM270 971q0 -140 84.5 -227.5t208.5 -87.5q125 0 205.5 87.5t80.5 242.5t-82.5 246t-198.5 91q-120 0 -209 -98t-89 -254z" />
<glyph unicode=":" horiz-adv-x="569" d="M185 0v205h205v-205h-205zM185 857v205h205v-205h-205z" />
<glyph unicode=";" horiz-adv-x="569" d="M170 -213q57 25 84 73.5t30 139.5h-102v205h205v-205q0 -113 -40 -182.5t-127 -107.5zM182 857v205h205v-205h-205z" />
<glyph unicode="&#x3c;" horiz-adv-x="1196" d="M112 641v168l971 410v-179l-770 -316l770 -319v-179z" />
<glyph unicode="=" horiz-adv-x="1196" d="M114 417v168h968v-168h-968zM114 862v168h968v-168h-968z" />
<glyph unicode="&#x3e;" horiz-adv-x="1196" d="M112 226v179l769 319l-769 316v179l971 -410v-168z" />
<glyph unicode="?" d="M90 1068q25 205 148.5 314t326.5 109q215 0 343 -117t128 -283q0 -96 -45 -177t-176 -197q-88 -78 -115 -115t-40 -85t-15 -156h-173q-1 36 -1 54q0 106 30 183q22 58 71 117q36 43 129.5 125.5t121.5 131.5t28 107q0 105 -82 184.5t-201 79.5q-115 0 -192 -72t-101 -225 zM461 0v205h205v-205h-205z" />
<glyph unicode="@" horiz-adv-x="2079" d="M111 469q0 244 100 465q122 271 346.5 415t544.5 144q248 0 445.5 -101.5t311.5 -302.5q97 -173 97 -376q0 -290 -204 -515q-182 -202 -398 -202q-69 0 -111.5 21t-62.5 60q-13 25 -19 86q-65 -75 -145.5 -120.5t-161.5 -45.5q-89 0 -173 52t-136.5 160t-52.5 237 q0 159 81.5 318.5t202.5 239.5t235 80q87 0 166 -45.5t136 -138.5l34 155h179l-144 -671q-30 -140 -30 -155q0 -27 20.5 -46.5t49.5 -19.5q53 0 139 61q114 80 180.5 214.5t66.5 277.5q0 167 -85.5 312t-255 232t-374.5 87q-234 0 -427.5 -109.5t-300 -314t-106.5 -438.5 q0 -245 106.5 -422t308 -261.5t446.5 -84.5q262 0 439 88t265 214h181q-51 -105 -175 -214t-295 -172.5t-412 -63.5q-222 0 -409.5 57t-319.5 171.5t-199 263.5q-84 189 -84 408zM677 434q0 -137 65 -213t149 -76q56 0 118 33.5t118.5 99.5t92.5 167.5t36 203.5 q0 136 -67.5 211t-164.5 75q-64 0 -120.5 -32.5t-109.5 -104.5t-85 -175t-32 -189z" />
<glyph unicode="A" horiz-adv-x="1366" d="M-3 0l563 1466h209l600 -1466h-221l-171 444h-613l-161 -444h-206zM420 602h497l-153 406q-70 185 -104 304q-28 -141 -79 -280z" />
<glyph unicode="B" horiz-adv-x="1366" d="M150 0v1466h550q168 0 269.5 -44.5t159 -137t57.5 -193.5q0 -94 -51 -177t-154 -134q133 -39 204.5 -133t71.5 -222q0 -103 -43.5 -191.5t-107.5 -136.5t-160.5 -72.5t-236.5 -24.5h-559zM344 173h365q94 0 132 7q67 12 112 40t74 81.5t29 123.5q0 82 -42 142.5 t-116.5 85t-214.5 24.5h-339v-504zM344 850h317q129 0 185 17q74 22 111.5 73t37.5 128q0 73 -35 128.5t-100 76t-223 20.5h-293v-443z" />
<glyph unicode="C" horiz-adv-x="1479" d="M102 744q0 229 87.5 399.5t249 259t355.5 88.5q220 0 370 -112t209 -315l-191 -45q-51 160 -148 233t-244 73q-169 0 -282.5 -81t-159.5 -217.5t-46 -281.5q0 -187 54.5 -326.5t169.5 -208.5t249 -69q163 0 276 94t153 279l194 -49q-61 -239 -219.5 -364.5t-387.5 -125.5 q-237 0 -385.5 96.5t-226 279.5t-77.5 393z" />
<glyph unicode="D" horiz-adv-x="1479" d="M158 0v1466h505q171 0 261 -21q126 -29 215 -105q116 -98 173.5 -250.5t57.5 -348.5q0 -167 -39 -296t-100 -213.5t-133.5 -133t-175 -73.5t-235.5 -25h-529zM352 173h313q145 0 227.5 27t131.5 76q69 69 107.5 185.5t38.5 282.5q0 230 -75.5 353.5t-183.5 165.5 q-78 30 -251 30h-308v-1120z" />
<glyph unicode="E" horiz-adv-x="1366" d="M162 0v1466h1060v-173h-866v-449h811v-172h-811v-499h900v-173h-1094z" />
<glyph unicode="F" horiz-adv-x="1251" d="M168 0v1466h989v-173h-795v-454h688v-173h-688v-666h-194z" />
<glyph unicode="G" horiz-adv-x="1593" d="M109 726q0 214 89.5 399.5t257.5 275.5t387 90q159 0 287.5 -51.5t201.5 -143.5t111 -240l-175 -48q-33 112 -82 176t-140 102.5t-202 38.5q-133 0 -230 -40.5t-156.5 -106.5t-92.5 -145q-56 -136 -56 -295q0 -196 67.5 -328t196.5 -196t274 -64q126 0 246 48.5 t182 103.5v273h-431v172l621 1v-544q-143 -114 -295 -171.5t-312 -57.5q-216 0 -392.5 92.5t-266.5 267.5t-90 391z" />
<glyph unicode="H" horiz-adv-x="1479" d="M161 0v1466h194v-602h762v602h194v-1466h-194v691h-762v-691h-194z" />
<glyph unicode="I" horiz-adv-x="569" d="M191 0v1466h194v-1466h-194z" />
<glyph unicode="J" horiz-adv-x="1024" d="M59 416l175 24q7 -168 63 -230t155 -62q73 0 126 33.5t73 91t20 183.5v1010h194v-999q0 -184 -44.5 -285t-141 -154t-226.5 -53q-193 0 -295 111q-99 107 -99 314v16z" />
<glyph unicode="K" horiz-adv-x="1366" d="M150 0v1466h194v-727l728 727h263l-615 -594l642 -872h-256l-522 742l-240 -234v-508h-194z" />
<glyph unicode="L" d="M150 0v1466h194v-1293h722v-173h-916z" />
<glyph unicode="M" horiz-adv-x="1706" d="M152 0v1466h292l347 -1038q48 -145 70 -217q25 80 78 235l351 1020h261v-1466h-187v1227l-426 -1227h-175l-424 1248v-1248h-187z" />
<glyph unicode="N" horiz-adv-x="1479" d="M156 0v1466h199l770 -1151v1151h186v-1466h-199l-770 1152v-1152h-186z" />
<glyph unicode="O" horiz-adv-x="1593" d="M99 714q0 365 196 571.5t506 206.5q203 0 366 -97t248.5 -270.5t85.5 -393.5q0 -223 -90 -399t-255 -266.5t-356 -90.5q-207 0 -370 100t-247 273t-84 366zM299 711q0 -265 142.5 -417.5t357.5 -152.5q219 0 360.5 154t141.5 437q0 179 -60.5 312.5t-177 207t-261.5 73.5 q-206 0 -354.5 -141.5t-148.5 -472.5z" />
<glyph unicode="P" horiz-adv-x="1366" d="M158 0v1466h553q146 0 223 -14q108 -18 181 -68.5t117.5 -141.5t44.5 -200q0 -187 -119 -316.5t-430 -129.5h-376v-596h-194zM352 769h379q188 0 267 70t79 197q0 92 -46.5 157.5t-122.5 86.5q-49 13 -181 13h-375v-524z" />
<glyph unicode="Q" horiz-adv-x="1593" d="M88 733q0 217 88 395t250.5 271t363.5 93q203 0 366 -96.5t248.5 -270t85.5 -391.5q0 -181 -55 -325.5t-166 -251.5q135 -93 249 -136l-57 -135q-158 57 -315 180q-163 -91 -360 -91q-199 0 -361 96t-249.5 270t-87.5 392zM288 733q0 -286 141.5 -439t361.5 -153 q104 0 196 39q-91 59 -192 84l47 141q168 -47 277 -140q171 156 171 469q0 178 -60.5 311t-177 206.5t-261.5 73.5q-217 0 -360 -148.5t-143 -443.5z" />
<glyph unicode="R" horiz-adv-x="1479" d="M161 0v1466h650q196 0 298 -39.5t163 -139.5t61 -221q0 -156 -101 -263t-312 -136q77 -37 117 -73q85 -78 161 -195l255 -399h-244l-194 305q-85 132 -140 202t-98.5 98t-88.5 39q-33 7 -108 7h-225v-651h-194zM355 819h417q133 0 208 27.5t114 88t39 131.5 q0 104 -75.5 171t-238.5 67h-464v-485z" />
<glyph unicode="S" horiz-adv-x="1366" d="M92 471l183 16q13 -110 60.5 -180.5t147.5 -114t225 -43.5q111 0 196 33t126.5 90.5t41.5 125.5q0 69 -40 120.5t-132 86.5q-59 23 -261 71.5t-283 91.5q-105 55 -156.5 136.5t-51.5 182.5q0 111 63 207.5t184 146.5t269 50q163 0 287.5 -52.5t191.5 -154.5t72 -231 l-186 -14q-15 139 -101.5 210t-255.5 71q-176 0 -256.5 -64.5t-80.5 -155.5q0 -79 57 -130q56 -51 292.5 -104.5t324.5 -93.5q128 -59 189 -149.5t61 -208.5q0 -117 -67 -220.5t-192.5 -161t-282.5 -57.5q-199 0 -333.5 58t-211 174.5t-80.5 263.5z" />
<glyph unicode="T" horiz-adv-x="1251" d="M48 1293v173h1162v-173h-485v-1293h-194v1293h-483z" />
<glyph unicode="U" horiz-adv-x="1479" d="M161 619v847h194v-846q0 -191 35.5 -281.5t122 -139.5t211.5 -49q214 0 305 97t91 373v846h194v-847q0 -221 -50 -351t-180.5 -211.5t-342.5 -81.5q-206 0 -337 71t-187 205.5t-56 367.5z" />
<glyph unicode="V" horiz-adv-x="1366" d="M9 1466h210l381 -1065q46 -128 77 -240q34 120 79 240l396 1065h198l-574 -1466h-199z" />
<glyph unicode="W" horiz-adv-x="1933" d="M25 1466h199l223 -961q36 -151 62 -300q56 235 66 271l279 990h234l210 -742q79 -276 114 -519q28 139 73 319l230 942h195l-402 -1466h-187l-309 1117q-39 140 -46 172q-23 -101 -43 -172l-311 -1117h-198z" />
<glyph unicode="X" horiz-adv-x="1366" d="M9 0l567 764l-500 702h231l266 -376q83 -117 118 -180q49 80 116 167l295 389h211l-515 -691l555 -775h-240l-369 523q-31 45 -64 98q-49 -80 -70 -110l-368 -511h-233z" />
<glyph unicode="Y" horiz-adv-x="1366" d="M6 1466h236l289 -442q80 -124 149 -248q66 115 160 259l284 431h226l-585 -845v-621h-194v621z" />
<glyph unicode="Z" horiz-adv-x="1251" d="M41 0v180l751 939q80 100 152 174h-818v173h1050v-173l-823 -1017l-89 -103h936v-173h-1159z" />
<glyph unicode="[" horiz-adv-x="569" d="M139 -407v1873h397v-149h-217v-1575h217v-149h-397z" />
<glyph unicode="\" horiz-adv-x="569" d="M0 1491h145l424 -1516h-144z" />
<glyph unicode="]" horiz-adv-x="569" d="M39 -258h217v1575h-217v149h397v-1873h-397v149z" />
<glyph unicode="^" horiz-adv-x="961" d="M54 690l353 801h145l355 -801h-181l-247 597l-240 -597h-185z" />
<glyph unicode="_" d="M-31 -277h1193v-130h-1193v130z" />
<glyph unicode="`" horiz-adv-x="682" d="M89 1474h241l135 -280h-145z" />
<glyph unicode="a" d="M74 280q0 78 35.5 142.5t93 103.5t129.5 59q53 14 160 27q218 26 321 62q1 37 1 47q0 110 -51 155q-69 61 -205 61q-127 0 -187.5 -44.5t-89.5 -157.5l-176 24q24 113 79 182.5t159 107t241 37.5q136 0 221 -32t125 -80.5t56 -122.5q9 -46 9 -166v-240 q0 -251 11.5 -317.5t45.5 -127.5h-188q-28 56 -36 131q-100 -85 -192.5 -120t-198.5 -35q-175 0 -269 85.5t-94 218.5zM266 285q0 -72 54.5 -120t159.5 -48q104 0 185 45.5t119 124.5q29 61 29 180v66q-98 -40 -294 -68q-111 -16 -157 -36t-71 -58.5t-25 -85.5z" />
<glyph unicode="b" d="M134 0v1466h180v-523q114 143 291 143q98 0 185.5 -39.5t144 -111t88.5 -172.5t32 -216q0 -273 -135 -422t-324 -149q-188 0 -295 157v-133h-167zM299 539q0 -191 52 -276q85 -139 230 -139q118 0 204 102.5t86 305.5q0 208 -82.5 307t-199.5 99q-118 0 -204 -102.5 t-86 -296.5z" />
<glyph unicode="c" horiz-adv-x="1024" d="M80 527q0 172 57 301t173.5 193.5t253.5 64.5q173 0 283 -87.5t141 -248.5l-175 -27q-25 107 -88.5 161t-153.5 54q-136 0 -221 -97.5t-85 -308.5q0 -214 82 -311t214 -97q106 0 177 65t90 200l177 -23q-29 -183 -148.5 -286.5t-293.5 -103.5q-218 0 -350.5 142.5 t-132.5 408.5z" />
<glyph unicode="d" d="M70 530q0 159 53 288.5t159 198.5t237 69q96 0 171 -40.5t122 -105.5v526h179v-1466h-167v134q-101 -158 -297 -158q-127 0 -233.5 70t-165 195.5t-58.5 288.5zM255 530q0 -204 86 -305t203 -101q118 0 200.5 96.5t82.5 294.5q0 218 -84 320t-207 102q-120 0 -200.5 -98 t-80.5 -309z" />
<glyph unicode="e" d="M75 522q0 268 138 416t358 148q213 0 348 -145t135 -408q0 -16 -1 -48h-792q10 -175 99 -268t222 -93q99 0 169 52t111 166l186 -23q-44 -163 -163 -253t-304 -90q-233 0 -369.5 143.5t-136.5 402.5zM271 633h593q-12 134 -68 201q-86 104 -223 104q-124 0 -208.5 -83 t-93.5 -222z" />
<glyph unicode="f" horiz-adv-x="569" d="M19 922v140h159v113q0 107 19 159q26 70 91.5 113.5t183.5 43.5q76 0 168 -18l-27 -157q-56 10 -106 10q-82 0 -116 -35t-34 -131v-98h207v-140h-207v-922h-179v922h-159z" />
<glyph unicode="g" d="M66 537q0 152 55 280.5t159.5 198.5t245.5 70q188 0 310 -152v128h166v-918q0 -248 -50.5 -351.5t-160 -163.5t-269.5 -60q-190 0 -307 85q-113 83 -113 247v11l175 -26q11 -81 61 -118q67 -50 183 -50q125 0 193 50t92 140q13 51 13 208v23q-118 -139 -294 -139 q-219 0 -339 158t-120 379zM251 550q0 -209 83 -305t208 -96q124 0 208 95.5t84 299.5q0 195 -86.5 294t-208.5 99q-120 0 -204 -97.5t-84 -289.5z" />
<glyph unicode="h" d="M135 0v1466h180v-526q126 146 318 146q118 0 205 -46.5t124.5 -128.5t37.5 -238v-673h-180v673q0 135 -58.5 196.5t-165.5 61.5q-80 0 -150.5 -41.5t-100.5 -112.5t-30 -196v-581h-180z" />
<glyph unicode="i" horiz-adv-x="455" d="M136 0v1062h180v-1062h-180zM136 1259v207h180v-207h-180z" />
<glyph unicode="j" horiz-adv-x="455" d="M-94 -412l34 153q54 -14 85 -14q55 0 82 36.5t27 182.5v1116h180v-1120q0 -196 -51 -273q-65 -100 -216 -100q-73 0 -141 19zM134 1257v209h180v-209h-180z" />
<glyph unicode="k" horiz-adv-x="1024" d="M136 0v1466h180v-836l426 432h233l-406 -394l447 -668h-222l-351 543l-127 -122v-421h-180z" />
<glyph unicode="l" horiz-adv-x="455" d="M131 0v1466h180v-1466h-180z" />
<glyph unicode="m" horiz-adv-x="1706" d="M135 0v1062h161v-149q50 78 133 125.5t189 47.5q118 0 193.5 -49t106.5 -137q126 186 328 186q158 0 243 -87.5t85 -269.5v-729h-179v669q0 108 -17.5 155.5t-63.5 76.5t-108 29q-112 0 -186 -74.5t-74 -238.5v-617h-180v690q0 120 -44 180t-144 60q-76 0 -140.5 -40 t-93.5 -117t-29 -222v-551h-180z" />
<glyph unicode="n" d="M135 0v1062h162v-151q117 175 338 175q96 0 176.5 -34.5t120.5 -90.5t56 -133q10 -50 10 -175v-653h-180v646q0 110 -21 164.5t-74.5 87t-125.5 32.5q-115 0 -198.5 -73t-83.5 -277v-580h-180z" />
<glyph unicode="o" d="M68 531q0 295 164 437q137 118 334 118q219 0 358 -143.5t139 -396.5q0 -205 -61.5 -322.5t-179 -182.5t-256.5 -65q-223 0 -360.5 143t-137.5 412zM253 531q0 -204 89 -305.5t224 -101.5q134 0 223 102t89 311q0 197 -89.5 298.5t-222.5 101.5q-135 0 -224 -101 t-89 -305z" />
<glyph unicode="p" d="M135 -407v1469h164v-138q58 81 131 121.5t177 40.5q136 0 240 -70t157 -197.5t53 -279.5q0 -163 -58.5 -293.5t-170 -200t-234.5 -69.5q-90 0 -161.5 38t-117.5 96v-517h-180zM298 525q0 -205 83 -303t201 -98q120 0 205.5 101.5t85.5 314.5q0 203 -83.5 304t-199.5 101 q-115 0 -203.5 -107.5t-88.5 -312.5z" />
<glyph unicode="q" d="M72 541q0 160 55.5 287t161 192.5t231.5 65.5q197 0 310 -166v142h162v-1469h-180v520q-42 -59 -117.5 -98t-160.5 -39q-189 0 -325.5 151t-136.5 414zM257 534q0 -205 86 -307.5t206 -102.5q115 0 198 97.5t83 296.5q0 212 -87.5 319t-205.5 107q-117 0 -198.5 -99.5 t-81.5 -310.5z" />
<glyph unicode="r" horiz-adv-x="682" d="M133 0v1062h162v-161q62 113 114.5 149t115.5 36q91 0 185 -58l-62 -167q-66 39 -132 39q-59 0 -106 -35.5t-67 -98.5q-30 -96 -30 -210v-556h-180z" />
<glyph unicode="s" horiz-adv-x="1024" d="M63 317l178 28q15 -107 83.5 -164t191.5 -57q124 0 184 50.5t60 118.5q0 61 -53 96q-37 24 -184 61q-198 50 -274.5 86.5t-116 101t-39.5 142.5q0 71 32.5 131.5t88.5 100.5q42 31 114.5 52.5t155.5 21.5q125 0 219.5 -36t139.5 -97.5t62 -164.5l-176 -24 q-12 82 -69.5 128t-162.5 46q-124 0 -177 -41t-53 -96q0 -35 22 -63q22 -29 69 -48q27 -10 159 -46q191 -51 266.5 -83.5t118.5 -94.5t43 -154q0 -90 -52.5 -169.5t-151.5 -123t-224 -43.5q-207 0 -315.5 86t-138.5 255z" />
<glyph unicode="t" horiz-adv-x="569" d="M36 922v140h132v263l179 108v-371h181v-140h-181v-621q0 -77 9.5 -99t31 -35t61.5 -13q30 0 79 7l26 -159q-76 -16 -136 -16q-98 0 -152 31t-76 81.5t-22 212.5v611h-132z" />
<glyph unicode="u" d="M131 404v658h180v-589q0 -141 11 -190q17 -71 72 -111.5t136 -40.5t152 41.5t100.5 113t29.5 207.5v569h180v-1062h-161v156q-124 -180 -337 -180q-94 0 -175.5 36t-121 90.5t-55.5 133.5q-11 53 -11 168z" />
<glyph unicode="v" horiz-adv-x="1024" d="M26 1062h190l228 -636q37 -103 68 -214q24 84 67 202l236 648h185l-402 -1062h-168z" />
<glyph unicode="w" horiz-adv-x="1479" d="M6 1062h186l169 -613l63 -228q4 17 55 219l169 622h185l159 -616l53 -203l61 205l182 614h175l-332 -1062h-187l-169 636l-41 181l-215 -817h-188z" />
<glyph unicode="x" horiz-adv-x="1024" d="M15 0l388 552l-359 510h225l163 -249q46 -71 74 -119q44 66 81 117l179 251h215l-367 -500l395 -562h-221l-218 330l-58 89l-279 -419h-218z" />
<glyph unicode="y" horiz-adv-x="1024" d="M33 1062h194l221 -615q43 -117 77 -246q31 124 74 242l227 619h180l-404 -1080q-65 -175 -101 -241q-48 -89 -110 -130.5t-148 -41.5q-52 0 -116 22l-20 169q59 -16 103 -16q60 0 96 20t59 56q17 27 55 134q5 15 16 44z" />
<glyph unicode="z" horiz-adv-x="1024" d="M40 0v146l676 776q-115 -6 -203 -6h-433v146h868v-119l-575 -674l-111 -123q121 9 227 9h491v-155h-940z" />
<glyph unicode="{" horiz-adv-x="684" d="M57 449v163q77 2 125.5 41.5t64.5 108.5t17 236t6 220q9 84 33.5 135t60.5 81.5t92 46.5q38 10 124 10h56v-157h-31q-104 0 -138 -37.5t-34 -167.5q0 -262 -11 -331q-18 -107 -61.5 -165t-136.5 -103q110 -46 159.5 -140.5t49.5 -309.5q0 -195 4 -232q8 -68 40.5 -95 t127.5 -27h31v-157h-56q-98 0 -142 16q-64 23 -106 74.5t-54.5 130.5t-13.5 259t-17 249t-64.5 109t-125.5 42z" />
<glyph unicode="|" horiz-adv-x="532" d="M188 -431v1922h157v-1922h-157z" />
<glyph unicode="}" horiz-adv-x="684" d="M47 -274h31q104 0 138 37.5t34 168.5q0 250 9 317q16 111 64 177.5t136 103.5q-115 55 -162 145.5t-47 305.5q0 195 -5 233q-7 67 -39.5 93.5t-127.5 26.5h-31v157h56q98 0 142 -16q64 -22 106 -74t54.5 -131t13.5 -259t17 -248.5t64.5 -108.5t125.5 -42v-163 q-77 -2 -125.5 -42t-64.5 -108.5t-17 -235.5t-6 -220q-9 -85 -33.5 -135.5t-60.5 -81t-92 -46.5q-38 -11 -124 -11h-56v157z" />
<glyph unicode="~" horiz-adv-x="1196" d="M87 557v205q106 120 278 120q60 0 126 -17.5t188 -69.5q69 -29 103.5 -38t69.5 -9q65 0 134.5 39t123.5 98v-212q-64 -60 -129.5 -87t-147.5 -27q-60 0 -114.5 14t-173 67t-197.5 53q-64 0 -120.5 -27.5t-140.5 -108.5z" />
<glyph unicode="&#xa1;" horiz-adv-x="682" d="M230 -79l52 776h116l55 -776v-325h-223v325zM238 857v205h207v-205h-207z" />
<glyph unicode="&#xa2;" d="M107 526q0 178 58.5 305.5t175 191.5t237.5 64q36 0 100 -8l113 387l110 -32l-112 -387q99 -43 152 -115.5t74 -181.5l-175 -27q-26 112 -96 171l-222 -766q33 -9 61 -9q104 0 179.5 71t92.5 199l179 -20q-33 -185 -156.5 -291t-291.5 -106q-49 0 -103 14l-118 -395 l-112 32l115 398q-115 55 -188 183.5t-73 321.5zM292 535q0 -132 32 -223t91 -135l223 763q-32 3 -50 3q-82 0 -153.5 -45.5t-107 -141t-35.5 -221.5z" />
<glyph unicode="&#xa3;" d="M27 145q96 53 163 151.5t67 240.5q0 61 -17 124h-196v148h154q-33 112 -42 163.5t-9 100.5q0 208 154 325q124 93 300 93q181 0 298.5 -99.5t144.5 -279.5l-179 -27q-15 120 -89.5 189t-178.5 69q-111 0 -184.5 -71.5t-73.5 -172.5q0 -111 57 -290h315v-148h-284 q19 -44 19 -88q0 -87 -41.5 -184t-136.5 -198q79 22 144 22q83 0 187 -25q172 -41 233 -41q74 0 192 56l58 -165q-92 -39 -142.5 -51t-100.5 -12q-42 0 -85 8q-27 5 -129.5 36.5t-132.5 37.5q-47 8 -94 8q-72 0 -153.5 -25t-148.5 -68z" />
<glyph unicode="&#xa4;" d="M74 354l139 136q-71 110 -71 236q0 125 71 235l-139 136l115 119l139 -139q106 72 237 72q132 0 237 -72l139 139l116 -119l-139 -136q71 -110 71 -235q0 -126 -71 -236l139 -136l-116 -119l-139 140q-105 -73 -237 -73q-131 0 -237 73l-139 -140zM305 726 q0 -108 76 -184t183 -76t183 76t76 184q0 107 -75.5 183t-183.5 76q-107 0 -183 -76t-76 -183z" />
<glyph unicode="&#xa5;" d="M-3 1466h200l290 -516q49 -88 76 -154q23 53 82 163l274 507h214l-405 -711h341v-148h-412v-143h412v-139h-412v-325h-180v325h-415v139h415v143h-415v148h341z" />
<glyph unicode="&#xa6;" horiz-adv-x="532" d="M188 360h157v-791h-157v791zM188 701v790h157v-790h-157z" />
<glyph unicode="&#xa7;" d="M81 644q0 96 60 174t165 109q-71 68 -100 125.5t-29 122.5q0 128 100 222t265 94q187 0 292 -89t126 -258l-187 -19q-21 122 -73.5 170t-141.5 48q-92 0 -148.5 -49.5t-56.5 -109.5q0 -52 36 -96q56 -68 306 -220q157 -96 212 -141q71 -60 104.5 -124t33.5 -139 q0 -113 -73 -193q-42 -46 -154 -93q80 -61 119.5 -131t39.5 -150q0 -88 -50 -166.5t-144 -120t-203 -41.5q-191 0 -303 95.5t-134 265.5l181 26q28 -130 89 -182.5t166 -52.5q102 0 159.5 52t57.5 122q0 51 -36 94q-62 75 -340 245q-148 91 -206.5 142.5t-95.5 121.5 t-37 146zM244 664q0 -63 46 -120t207 -152q134 -79 231 -148q74 38 110.5 88.5t36.5 98.5q0 57 -52 120q-53 63 -225 169q-137 84 -204 138q-81 -46 -115.5 -92t-34.5 -102z" />
<glyph unicode="&#xa8;" horiz-adv-x="682" d="M61 1270v205h188v-205h-188zM434 1270v205h188v-205h-188z" />
<glyph unicode="&#xa9;" horiz-adv-x="1509" d="M3 736q0 197 101.5 378.5t282.5 279t371 97.5t371 -97.5t282 -279t101 -378.5q0 -195 -99.5 -375t-279 -279.5t-375.5 -99.5t-375.5 99.5t-279.5 279.5t-100 375zM128 736q0 -163 83.5 -312.5t233.5 -233t313 -83.5t313 83.5t233 233t83 312.5q0 164 -84.5 315.5 t-235.5 233t-309 81.5q-159 0 -309.5 -81.5t-235.5 -233t-85 -315.5zM363 734q0 132 50 229.5t142.5 147t211.5 49.5q133 0 221 -63.5t120 -172.5l-119 -29q-30 74 -88.5 113.5t-137.5 39.5q-115 0 -189.5 -82t-74.5 -235t70.5 -231.5t182.5 -78.5q90 0 158 52t90 141 l123 -36q-30 -125 -127.5 -199.5t-236.5 -74.5q-176 0 -286 114t-110 316z" />
<glyph unicode="&#xaa;" horiz-adv-x="758" d="M47 965q0 48 16 84t47.5 64t81.5 45q35 11 99 21l147 22q72 14 96 20q-1 70 -14 94t-48.5 41.5t-94.5 17.5q-79 0 -118 -32.5t-48 -92.5l-137 34q12 89 88 148.5t217 59.5q164 0 232 -61q67 -62 67 -181v-240l-1 -61q0 -134 41 -184h-148q-20 40 -22 89 q-122 -107 -256 -107q-113 0 -179 61.5t-66 157.5zM196 965q0 -41 34 -70t96 -29q73 0 127 39t72 96q7 20 8 103q-53 -14 -192 -36q-90 -14 -117 -39q-28 -26 -28 -64z" />
<glyph unicode="&#xab;" d="M134 528l319 456h148l-261 -456l259 -456h-146zM526 528l313 456h152l-264 -456l264 -456h-152z" />
<glyph unicode="&#xac;" horiz-adv-x="1196" d="M114 862v168h968v-606h-170v438h-798z" />
<glyph unicode="&#xad;" horiz-adv-x="682" d="M65 440v181h553v-181h-553z" />
<glyph unicode="&#xae;" horiz-adv-x="1509" d="M3 736q0 197 101.5 378.5t282.5 279t371 97.5t371 -97.5t282 -279t101 -378.5q0 -195 -99.5 -375t-279 -279.5t-375.5 -99.5t-375.5 99.5t-279.5 279.5t-100 375zM128 736q0 -163 83.5 -312.5t233.5 -233t313 -83.5t313 83.5t233 233t83 312.5q0 164 -84.5 315.5 t-235.5 233t-309 81.5q-159 0 -309.5 -81.5t-235.5 -233t-85 -315.5zM427 319v812h279q143 0 207 -22.5t102 -78.5t38 -119q0 -89 -63.5 -155t-168.5 -74q43 -18 69 -43q49 -48 120 -161l99 -159h-160l-72 128q-85 151 -137 189q-36 28 -105 28h-77v-345h-131zM558 776h159 q114 0 155.5 34t41.5 90q0 36 -20 64.5t-55.5 42.5t-131.5 14h-149v-245z" />
<glyph unicode="&#xaf;" horiz-adv-x="1131" d="M-31 1566v129h1193v-129h-1193z" />
<glyph unicode="&#xb0;" horiz-adv-x="819" d="M128 1214q0 115 81.5 196t195.5 81q116 0 197 -81t81 -196t-81.5 -196.5t-196.5 -81.5q-114 0 -195.5 81t-81.5 197zM237 1214q0 -70 49.5 -119.5t119.5 -49.5q69 0 118.5 49.5t49.5 119.5t-49.5 119.5t-118.5 49.5q-70 0 -119.5 -49.5t-49.5 -119.5z" />
<glyph unicode="&#xb1;" horiz-adv-x="1124" d="M78 0v168h968v-168h-968zM78 663v167h399v399h170v-399h399v-167h-399v-403h-170v403h-399z" />
<glyph unicode="&#xb2;" horiz-adv-x="682" d="M25 733q6 57 47 114q63 86 207 190.5t171 134.5q37 41 37 84q0 48 -35 79t-103 31q-66 0 -98.5 -23.5t-53.5 -90.5l-151 16q29 111 100.5 163.5t205.5 52.5q151 0 221.5 -59t70.5 -144q0 -84 -59 -159q-45 -56 -205 -171q-83 -61 -118 -97h386v-121h-623z" />
<glyph unicode="&#xb3;" horiz-adv-x="682" d="M33 929l146 15q20 -60 52 -82q43 -30 102 -30q71 0 114 39t43 94q0 50 -36 80t-123 30q-12 0 -33 -2q-14 -1 -22 -1l22 110q81 -1 118.5 29t37.5 73q0 37 -30 63t-89 26q-56 0 -87.5 -22t-54.5 -80l-143 23q41 106 103.5 148t182.5 42q144 0 209.5 -53.5t65.5 -133.5 q0 -55 -35.5 -98t-102.5 -62q89 -22 131 -72.5t42 -118.5q0 -93 -79 -162t-225 -69q-140 0 -214 55.5t-95 158.5z" />
<glyph unicode="&#xb4;" horiz-adv-x="682" d="M222 1194l133 280h236l-220 -280h-149z" />
<glyph unicode="&#xb5;" horiz-adv-x="1180" d="M160 -407v1469h178v-450q0 -245 26 -317.5t84.5 -114.5t134.5 -42q80 0 143 44t89 113.5t26 313.5v453h177v-1062h-161v126q-52 -80 -103 -110q-70 -41 -163 -41q-83 0 -147 33q-48 25 -106 99v-514h-178z" />
<glyph unicode="&#xb6;" horiz-adv-x="1100" d="M1 1044q0 193 120.5 307.5t352.5 114.5h633v-173h-144v-1700h-170v1700h-223v-1700h-165v1045q-187 10 -295.5 121.5t-108.5 284.5z" />
<glyph unicode="&#xb7;" horiz-adv-x="682" d="M497 637v205h205v-205h-205z" />
<glyph unicode="&#xb8;" horiz-adv-x="682" d="M107 -409l11 117q64 -4 94 -4q94 0 132 26q29 20 29 49q0 18 -11.5 32t-42.5 24t-103 11l52 177h134l-33 -107q85 -10 128 -52.5t43 -94.5q0 -75 -72 -132.5t-217 -57.5q-82 0 -144 12z" />
<glyph unicode="&#xb9;" horiz-adv-x="682" d="M107 1174v123q62 20 138 73t123 114h108v-751h-145v554q-102 -81 -224 -113z" />
<glyph unicode="&#xba;" horiz-adv-x="748" d="M45 1111q0 180 91.5 280t236.5 100t236.5 -100t91.5 -276q0 -175 -92 -275t-235 -100q-145 0 -237 98t-92 273zM193 1115q0 -126 50.5 -184.5t129.5 -58.5q80 0 130 58.5t50 189.5q0 122 -50.5 180t-129.5 58q-81 0 -130.5 -57t-49.5 -186z" />
<glyph unicode="&#xbb;" d="M140 72l264 456l-264 456h151l314 -456l-314 -456h-151zM530 984h148l319 -456l-319 -456h-147l260 456z" />
<glyph unicode="&#xbc;" horiz-adv-x="1708" d="M107 1174v123q62 20 138 73t123 114h108v-751h-145v554q-102 -81 -224 -113zM252 -57l1102 1548h156l-1101 -1548h-157zM1047 123v123l405 474h122v-489h104v-108h-104v-154h-144v154h-383zM1200 231h230v263z" />
<glyph unicode="&#xbd;" horiz-adv-x="1708" d="M107 1174v123q62 20 138 73t123 114h108v-751h-145v554q-102 -81 -224 -113zM228 -57l1101 1548h157l-1101 -1548h-157zM1049 -31q6 56 48 113q62 87 206 191t171 135q37 41 37 84q0 48 -34.5 78.5t-103.5 30.5q-66 0 -98.5 -23.5t-53.5 -89.5l-151 15q29 112 101 164.5 t205 52.5q151 0 221.5 -59t70.5 -144q0 -84 -59 -159q-45 -56 -204 -172q-84 -61 -119 -96h386v-121h-623z" />
<glyph unicode="&#xbe;" horiz-adv-x="1708" d="M33 929l146 15q20 -60 52 -82q43 -30 102 -30q71 0 114 39t43 94q0 50 -36 80t-120 30q-50 -3 -58 -3l22 110q81 -1 118.5 29t37.5 73q0 37 -30 63t-89 26q-56 0 -87.5 -22t-54.5 -80l-143 23q41 106 103.5 148t182.5 42q144 0 209.5 -53.5t65.5 -133.5q0 -55 -35.5 -98 t-102.5 -62q89 -22 131 -72.5t42 -118.5q0 -93 -79 -162t-225 -69q-140 0 -214 55.5t-95 158.5zM252 -57l1101 1548h157l-1101 -1548h-157zM1047 123v123l404 474h123v-489h104v-108h-104v-154h-145v154h-382zM1200 231h229v263z" />
<glyph unicode="&#xbf;" horiz-adv-x="1251" d="M158 -29q0 97 44.5 177t175.5 196q89 79 116 116t39.5 85t14.5 156h173q1 -34 1 -51q0 -110 -30 -187q-22 -58 -71 -117q-36 -43 -129.5 -125t-121 -131t-27.5 -107q0 -106 82 -185t201 -79q114 0 191.5 72t101.5 224l184 -21q-25 -203 -148.5 -313t-325.5 -110 q-216 0 -343.5 117t-127.5 283zM528 857v205h205v-205h-205z" />
<glyph unicode="&#xc0;" horiz-adv-x="1020" d="M100 411v140h178v-140q0 -69 23.5 -115.5t58.5 -75t75.5 -40.5t74.5 -12q41 0 82.5 16.5t74.5 49t53.5 79.5t20.5 108q0 49 -11.5 92.5t-32 75.5t-48 51t-58.5 19q-72 0 -125 30.5t-87.5 74.5t-51.5 93.5t-17 88.5h177q0 -18 8.5 -40.5t24 -42t37 -32.5t47.5 -13 t59.5 -12.5t68.5 -37t69 -59t60.5 -79t42.5 -97t16 -112.5q0 -93 -36 -170t-94 -133t-132.5 -87t-150.5 -31q-81 0 -155 30.5t-130 85.5t-89 130.5t-33 164.5z" />
<glyph unicode="&#xc1;" horiz-adv-x="1021" d="M100 431q0 86 33 160t82.5 129t107.5 88.5t109 39.5q1 18 21 43.5t43.5 59.5t43 76.5t19.5 95.5q0 50 -26.5 91.5t-66.5 71t-85.5 46t-82.5 16.5h-9v-380h-159v566h151q11 -1 49.5 -13t90 -35t108 -56.5t104.5 -78t79 -99.5t31 -120q0 -61 -21 -107t-46.5 -80t-46.5 -58 t-21 -41q49 -8 104 -42t101.5 -88.5t77 -126t30.5 -154.5v-4q0 -81 -34 -158.5t-90 -138t-128.5 -97.5t-150.5 -37q-80 0 -155.5 35t-134 94.5t-93.5 137.5t-35 164zM281 431q0 -56 18.5 -104t50.5 -83.5t75.5 -55.5t93.5 -20q44 0 84.5 21.5t72 58t50 84t18.5 99.5 q0 56 -17 102.5t-46.5 80t-70 52t-88.5 18.5q-47 0 -90.5 -19.5t-77 -54t-53.5 -80.5t-20 -99z" />
<glyph unicode="&#xc2;" horiz-adv-x="1182" d="M100 -256q0 106 39.5 187.5t98.5 138t127.5 88.5t126.5 40q8 20 30.5 39.5t52 40t61 43.5t58 51.5t44 63.5t17.5 79q0 39 -19 70.5t-45.5 53t-54 33.5t-43.5 12q-45 0 -77.5 -9t-53.5 -24t-31 -34.5t-10 -40.5v-113h-177v113q0 55 29 106t77.5 90t111.5 62t131 23 q62 0 123 -28t109.5 -75t78.5 -109t30 -130q0 -71 -24.5 -123t-59.5 -90t-74 -64.5t-67 -46.5q70 -17 137.5 -52.5t119.5 -91t84 -131t32 -172.5q0 -75 -31 -156.5t-93 -149.5t-154 -112t-213 -44q-104 0 -193.5 40.5t-155.5 106t-104 148.5t-38 167zM282 -256 q0 -40 17 -88.5t54.5 -91t96.5 -71t143 -28.5q92 0 152 27t95.5 68.5t49.5 90.5t14 93q0 52 -15.5 105.5t-51.5 97t-95.5 70.5t-146.5 27q-79 0 -137.5 -23.5t-97.5 -64t-58.5 -95t-19.5 -117.5z" />
<glyph unicode="&#xc3;" horiz-adv-x="1662" d="M100 421q0 94 34 174t90 138.5t129.5 91t153.5 32.5q41 0 85 -9.5t86.5 -29t82.5 -49.5t72 -70q30 41 69 70.5t81 49t84.5 29t79.5 9.5q79 0 153.5 -34.5t132.5 -94t93.5 -139t35.5 -168.5t-36 -166t-94.5 -133.5t-133 -89t-151.5 -32.5q-83 0 -156 34t-128 91.5t-87 134 t-32 161.5q0 46 -10.5 89.5t-37.5 77.5t-73 55t-116 21q-44 0 -84.5 -16t-72 -47t-50.5 -76.5t-19 -103.5q0 -120 28.5 -207t78 -150t115 -106.5t139.5 -77t152 -61t152 -58t139.5 -69t115 -93.5t78 -131.5t28.5 -184.5l-166 1q0 81 -29 138.5t-79 100t-116.5 73.5 t-141.5 59t-154.5 58t-154.5 69t-141.5 92.5t-116.5 129t-79 178t-29 239.5zM921 421q0 -49 18 -94.5t49 -81t72 -56.5t87 -21q45 0 87 20t74 54.5t51 80.5t19 98t-18.5 100t-50 84t-73.5 57.5t-89 21.5q-51 0 -92.5 -21.5t-71.5 -57.5t-46 -84t-16 -100z" />
<glyph unicode="&#xc4;" horiz-adv-x="1031" d="M100 -85h179v-227q0 -35 16.5 -77t46.5 -78t72.5 -60t93.5 -24t94 20.5t74 54.5t48.5 77t17.5 87v739q0 74 -19.5 124t-51.5 80.5t-74.5 43.5t-88.5 13q-31 0 -70.5 -13t-75 -39t-59.5 -64.5t-24 -89.5q0 -30 9 -57.5t24 -48.5t33.5 -34t36.5 -13h25v-180h-25 q-53 0 -104 28.5t-90.5 75t-63.5 106t-24 121.5q0 65 21 118t55.5 95t78.5 73t89.5 51t88.5 30t75 10q44 0 91.5 -11t93.5 -34t87.5 -58t72.5 -82.5t49.5 -108.5t18.5 -136v-729q0 -76 -33 -150.5t-89.5 -133.5t-131.5 -95.5t-159 -36.5q-80 0 -153.5 38.5t-130 98.5 t-90.5 131.5t-34 137.5v227z" />
<glyph unicode="&#xc5;" horiz-adv-x="1020" d="M100 -79h180v-233q0 -44 16.5 -87t47 -77.5t73 -56t93.5 -21.5q52 0 95 23t74 58.5t48 78t17 82.5v80q0 67 -21 112t-52.5 71.5t-67 37.5t-65.5 11h-152v168h152q55 0 94.5 26.5t64 67t36 88.5t11.5 90q0 51 -18 95.5t-49.5 77.5t-74.5 52t-92 19q-51 0 -93.5 -13.5 t-73 -40.5t-47 -67t-16.5 -93v-156h-180v156q0 72 30 141t84 124t129.5 88.5t166.5 33.5q90 0 165.5 -31.5t130 -87t84.5 -132t30 -166.5q0 -45 -12.5 -96t-35 -99t-54 -88t-69.5 -63q46 -27 78.5 -56t53 -66.5t30 -87t9.5 -116.5v-80q0 -44 -15 -91.5t-42.5 -92.5 t-65.5 -85.5t-83.5 -70.5t-97 -48t-106.5 -18q-81 0 -155 34.5t-131 91.5t-90.5 130t-33.5 150v233z" />
<glyph unicode="&#xc6;" horiz-adv-x="1279" d="M100 1197q0 69 28.5 130t76.5 106.5t110.5 72t130.5 26.5q78 0 142.5 -23t111 -65t72 -102t25.5 -135v-363q88 -5 158.5 -38.5t120 -88.5t76.5 -128t27 -158q0 -93 -30.5 -171.5t-85 -136.5t-129.5 -90.5t-165 -32.5q-92 0 -167 32.5t-128.5 90.5t-83 136.5t-29.5 171.5 q0 88 31 160t76 124.5t94.5 83.5t87.5 38l9 137q-17 -18 -39 -37t-48.5 -34.5t-58 -25t-67.5 -9.5q-65 0 -127 27t-110.5 72.5t-78.5 105t-30 124.5zM268 1200q0 -32 14.5 -64.5t39 -58.5t56 -42t64.5 -16q42 0 75.5 17.5t57 45.5t35.5 62t12 66q0 81 -46 123.5t-134 42.5 q-79 0 -126.5 -47.5t-47.5 -128.5zM541 431q0 -51 15 -98t44 -84t71.5 -59t97.5 -22q52 0 95 22t73 59t46.5 84t16.5 98q0 46 -16 91.5t-46 81.5t-72 58.5t-94 22.5q-56 0 -99.5 -24t-72.5 -61t-44 -82t-15 -87z" />
<glyph unicode="&#xc7;" horiz-adv-x="1276" d="M106.5 -143q8.5 87 24 179t31.5 188.5t20 199t-11 211t-61 222.5h185q39 -121 50.5 -235t6 -220t-21.5 -204t-31 -187.5t-23.5 -170.5t1.5 -152q93 -257 308 -241q244 0 295 201q-2 217 -104 229h-154v178h154q92 20 102 147q-7 122 -98 140h-158v176h156q90 12 100 157 q-7 115 -102 130h-154v180h154q102 8 102 171q-10 113 -188.5 161t-180.5 219h174q1 -77 184.5 -133t191.5 -247q-8 -213 -105 -257q69 -42 87 -87.5t18 -136.5q-8 -205 -115 -247q107 -46 115 -226q-5 -178 -107 -223q120 -81 107 -331q-30 -342 -474 -367 q-417 32 -475 407q-12 82 -3.5 169z" />
<glyph unicode="&#xc8;" horiz-adv-x="1662" d="M100 431q0 85 33 162.5t89 136t130 93t155 34.5q39 0 83 -9t87 -28.5t83 -50t71 -73.5q27 45 63 75.5t77 49.5t85.5 27.5t88.5 8.5q88 0 164.5 -33.5t132.5 -91.5t88 -135.5t32 -165.5q0 -83 -36 -160t-96.5 -137t-139.5 -96.5t-165 -37.5v168q51 0 97 21.5t80.5 58 t55 84t20.5 99.5q0 48 -18 93.5t-49.5 81t-74 57t-91.5 21.5q-50 0 -91 -21.5t-70.5 -57t-46 -81t-16.5 -93.5q0 -90 -34.5 -168.5t-92 -137t-132 -92t-155.5 -33.5t-155 34t-130 92.5t-89 137t-33 167.5zM281 431q0 -52 17 -99.5t47 -84t71.5 -58t90.5 -21.5 q45 0 87.5 21.5t75.5 58t53.5 84t20.5 99.5q0 53 -17.5 99t-49 80.5t-75.5 54t-98 19.5q-48 0 -89 -22t-70.5 -58t-46.5 -81.5t-17 -91.5z" />
<glyph unicode="&#xc9;" horiz-adv-x="1021" d="M100 431q0 85 33 162.5t88.5 136t129.5 93t157 34.5q84 0 159 -33.5t131.5 -91.5t89.5 -135.5t33 -165.5q0 -49 -13 -100t-35.5 -98.5t-53.5 -90t-67.5 -74t-76.5 -50t-81 -18.5v168q20 0 45.5 21.5t48.5 57.5t38.5 83.5t15.5 100.5q0 46 -18.5 92t-50.5 83t-74.5 59.5 t-90.5 22.5q-47 0 -88.5 -22.5t-73 -59.5t-49.5 -83t-18 -92q0 -48 16.5 -95t40.5 -84.5t51 -60.5t47 -23v-168q-65 0 -125 36.5t-106.5 96.5t-74.5 137.5t-28 160.5z" />
<glyph unicode="&#xca;" horiz-adv-x="1020" d="M100 -130h180v-182q0 -118 62 -178.5t168 -60.5q53 0 96 22t74 56.5t47.5 77t16.5 83.5v80q0 50 -18.5 92.5t-50 73.5t-74 48.5t-91.5 17.5h-152v168h152q53 0 96.5 25t74 63.5t47 85t16.5 89.5q0 70 -25.5 118t-64.5 78t-85 43.5t-87 13.5v173q98 0 178.5 -33t138.5 -91 t89.5 -135.5t31.5 -166.5q0 -46 -11 -95.5t-32.5 -95t-53 -83t-73.5 -60.5q55 -34 88.5 -71.5t51.5 -79t24 -86t6 -92.5v-80q0 -78 -35.5 -151.5t-93 -130t-131.5 -90.5t-150 -34q-84 0 -158.5 25.5t-130.5 76.5t-88.5 127t-32.5 177v182z" />
<glyph unicode="&#xcb;" horiz-adv-x="2295" d="M100 431q0 89 34 166.5t91 135.5t131.5 91t155.5 33q28 0 69.5 -5t86.5 -20.5t89.5 -43.5t78.5 -74q28 46 71 74t88.5 43.5t87.5 20.5t69 5q30 0 72.5 -5t87.5 -20t87.5 -43.5t71.5 -75.5q32 46 74 74.5t86 44t86 20.5t74 5q94 0 168.5 -29t127 -84t80.5 -134t28 -179 q0 -80 -32 -157.5t-89 -138.5t-136.5 -98t-174.5 -37v168h26q7 0 27 3.5t45.5 13.5t53 28t50 47t37.5 71t15 100q0 118 -54 185.5t-172 67.5q-65 0 -109 -17.5t-70.5 -50.5t-38 -80t-11.5 -105v-175h-184v175q0 121 -54 187t-172 66q-62 0 -105.5 -17.5t-71.5 -50t-41 -79.5 t-13 -106v-175h-178v175q0 58 -18 105t-49.5 80t-73.5 50.5t-90 17.5t-90.5 -17.5t-74 -51t-49.5 -81t-18 -107.5q0 -119 25.5 -206t72.5 -150.5t114 -106.5t150 -73t180.5 -51t205.5 -40q93 -17 187.5 -29.5t182 -30.5t163 -46.5t131.5 -77.5t88 -123.5t32 -184.5v-26h-174 q0 75 -23.5 126.5t-65 85.5t-99 54.5t-126 33.5t-145.5 23t-158 23q-109 17 -219 40t-212.5 61t-191.5 94.5t-155.5 140t-104.5 198.5t-38 269z" />
<glyph unicode="&#xcc;" horiz-adv-x="1031" d="M100 431q0 83 34 160t90.5 136t130 94.5t153.5 35.5q31 0 63.5 -6.5t63 -18t58.5 -25.5t51 -29v347q0 61 -19 106.5t-51.5 75.5t-75.5 45t-90 15q-40 0 -80.5 -5.5t-73.5 -22t-54 -47t-21 -79.5q0 -18 4 -37t13 -34t22.5 -24.5t33.5 -9.5v-165q-59 0 -106 23t-79.5 61 t-49.5 86.5t-17 99.5q0 82 32 142.5t87.5 100t129.5 59t159 19.5q92 0 168 -27t130.5 -78.5t84.5 -128t30 -175.5v-694q0 -89 -33.5 -167.5t-89.5 -137t-130.5 -92.5t-156.5 -34q-80 0 -154 35t-131 94.5t-91.5 137.5t-34.5 164zM281 431q0 -52 17.5 -96.5t48.5 -77 t72.5 -51t88.5 -18.5q45 0 87.5 18.5t75.5 51t53 77t20 96.5q0 46 -19 91.5t-51 81.5t-75 58t-91 22q-51 0 -93 -22t-71.5 -58t-46 -81.5t-16.5 -91.5z" />
<glyph unicode="&#xcd;" horiz-adv-x="1030" d="M110 431v694q0 118 36.5 197t95 126.5t132.5 67.5t148 20h408v-169h-408q-108 0 -170 -60.5t-62 -183.5v-340q54 37 114.5 55.5t117.5 18.5q83 0 157 -33.5t130 -91.5t88.5 -135.5t32.5 -165.5q0 -89 -33 -167.5t-89 -137t-130 -92.5t-156 -34q-85 0 -160 34t-131 92.5 t-88.5 137t-32.5 167.5zM290 431q0 -52 18 -99.5t49 -84t73.5 -58t91.5 -21.5q43 0 85 21.5t74.5 58t52.5 84t20 99.5q0 46 -18 91.5t-50 81.5t-75 58t-94 22q-55 0 -97 -19t-71 -52.5t-44 -80t-15 -101.5z" />
<glyph unicode="&#xce;" horiz-adv-x="1021" d="M100 -16q36 0 66.5 4t59 11t56 17t56.5 22q-51 38 -94.5 87.5t-75.5 105t-50 114.5t-18 116q0 91 29 166.5t82.5 128.5t128.5 82.5t168 29.5q90 0 166 -30.5t130.5 -84.5t85.5 -129t31 -163q0 -61 -19 -121.5t-51 -115.5t-75.5 -103t-92.5 -84q27 -8 53 -14.5t48 -15.5 h-1q46 -12 80 -20.5t58 -8.5v-183q-49 0 -100.5 13.5t-104 36t-105 50.5t-103.5 57q-43 -30 -94.5 -58t-105.5 -50t-107.5 -35.5t-100.5 -13.5v189zM279 461q0 -41 18 -89.5t49.5 -94t74 -84.5t90.5 -61q45 24 86.5 63t74 84.5t51.5 93t19 88.5v5q0 47 -12 88t-39.5 71 t-72 47t-110.5 17q-56 0 -98.5 -18t-71.5 -48.5t-44 -71.5t-15 -87v-3z" />
<glyph unicode="&#xcf;" horiz-adv-x="1662" d="M100 431q0 85 33 162.5t89 136t130 93t155 34.5q42 0 86.5 -6.5t87 -24t81.5 -49t71 -82.5q27 51 63 82.5t77 49t85.5 24t88.5 6.5h2q79 0 153 -34t132 -92t93 -135.5t35 -164.5q0 -83 -35 -160t-95.5 -137t-140.5 -96.5t-170 -37.5v168q50 0 96.5 22.5t82 59.5t57 84 t21.5 97q0 53 -17.5 99t-48.5 80.5t-73.5 54t-91.5 19.5q-117 0 -171.5 -68t-54.5 -185v-175h-177v175q0 56 -17.5 102.5t-48.5 80t-75 52t-96 18.5q-49 0 -90.5 -22t-71.5 -58t-47 -81.5t-17 -91.5q0 -50 21 -97t56.5 -84t81 -59.5t94.5 -22.5v-168q-84 0 -162.5 34 t-138.5 92.5t-96.5 137t-36.5 167.5z" />
<glyph unicode="&#xd0;" horiz-adv-x="1020" d="M100 409v152h180v-150q0 -48 18.5 -91.5t50 -77.5t73.5 -54t90 -20q43 0 85 19.5t74.5 53t52.5 77.5t20 93q0 44 -21 84.5t-54 71.5t-75 49.5t-84 18.5h-152v183l171 -10q28 -2 65.5 9t70.5 37.5t56 70t23 105.5q0 58 -27.5 94t-73 59.5t-103.5 38t-118 28.5t-118 32.5 t-103.5 49.5t-73 79t-27.5 121l178 2v-1q0 -47 27.5 -74t72.5 -43t103 -25.5t118 -23t118 -34t103 -58.5t72.5 -97.5t27.5 -149.5q0 -54 -11.5 -98.5t-35.5 -81.5t-62.5 -67.5t-92.5 -56.5q40 -21 76 -55t63.5 -76t44.5 -89t18 -93q0 -89 -34 -164t-90.5 -130t-130.5 -86 t-153 -31q-77 0 -151 33t-132 89t-93.5 130t-35.5 157z" />
<glyph unicode="&#xd1;" horiz-adv-x="1216" d="M100 401v171h181v-171q0 -54 9.5 -87.5t28 -52t45 -25t60.5 -6.5q81 0 116 43.5t35 137.5q0 23 -8 64.5t-24.5 85.5t-41 82.5t-56.5 55.5v158h671v-1171q0 -101 -36 -176.5t-96 -126t-137 -76t-159 -25.5q-80 0 -154 25t-131 76t-91 127t-34 178v156h178v-156 q0 -60 17 -105.5t47 -76t72 -46t92 -15.5q54 0 99.5 15.5t79 46t52.5 76t19 105.5v996h-246q23 -36 36 -81.5t19.5 -86.5t8 -71t1.5 -34q0 -163 -80.5 -253t-246.5 -90q-92 0 -154.5 24.5t-100.5 69t-54.5 105.5t-16.5 134z" />
<glyph unicode="&#xd2;" horiz-adv-x="1662" d="M100 431q0 49 13.5 100t37.5 98t58.5 88.5t76.5 71.5q-51 29 -86.5 60.5t-57.5 63.5t-32 63.5t-10 61.5q0 100 32 169.5t87 113.5t129 64t159 20h529q48 0 87.5 2.5t68 15t44.5 38.5t16 73h176q0 -93 -35.5 -150.5t-93.5 -89.5t-131.5 -43t-149.5 -11h-511 q-59 0 -102 -11t-70.5 -35.5t-40.5 -63.5t-13 -94q0 -46 19 -73.5t50.5 -45.5t72.5 -31t85 -29q110 -2 188 -34t136 -110q26 40 63 67.5t79 44.5t86.5 24.5t86.5 7.5q79 0 153.5 -34.5t132.5 -93t93.5 -136t35.5 -162.5q0 -57 -17.5 -111.5t-48 -102t-72.5 -87.5t-91 -69 t-103 -45t-109 -16v168q51 0 98 21.5t82 58t56 84t21 99.5q0 50 -17.5 96t-48.5 81t-73.5 55.5t-91.5 20.5q-115 0 -170.5 -64.5t-55.5 -188.5v-175h-177v175q0 127 -62.5 190t-174.5 63q-49 0 -90.5 -23t-71.5 -59.5t-47 -81.5t-17 -89q0 -50 19 -97t52.5 -84t80 -59.5 t101.5 -22.5v-168q-87 0 -166 35t-138.5 94.5t-94.5 137.5t-35 164z" />
<glyph unicode="&#xd3;" horiz-adv-x="1031" d="M110 411v1125h179v-1125q0 -49 18 -93t49.5 -77.5t73 -53t88.5 -19.5t91.5 19.5t79 53t55.5 77.5t21 93q0 58 -9 96t-23 64t-32.5 44t-37.5 35.5t-37.5 38.5t-32.5 53.5t-23 81t-9 119.5l175 3q0 -57 8 -95.5t21.5 -65.5t31 -46t35.5 -37.5t35.5 -40t31 -53.5t22.5 -78.5 t10 -114.5v-4q0 -89 -33 -164t-89.5 -130t-131.5 -86t-159 -31q-79 0 -152.5 32t-130.5 88t-91 130.5t-34 160.5z" />
<glyph unicode="&#xd4;" horiz-adv-x="1441" d="M100 51q0 153 38.5 284t108.5 230.5t168 163t218 81.5v386h175v-387q117 -20 215 -82t168.5 -160t110 -228t39.5 -285q0 -179 -45.5 -322.5t-127 -244t-195.5 -154.5t-250 -54q-137 0 -251 53.5t-197 153.5t-129 243t-46 322zM280 58q0 -146 32 -260t90 -192t138.5 -119 t178.5 -41t179 41t139.5 119t90.5 192t32 260q0 116 -26 214t-72.5 174t-111 127t-142.5 73v-442h-175v445q-81 -17 -146.5 -63t-111 -120t-70.5 -176.5t-25 -231.5z" />
<glyph unicode="&#xd5;" horiz-adv-x="1021" d="M100 -79h179v-233q0 -50 15.5 -92.5t45 -73.5t72 -49t96.5 -18q115 0 174.5 55t59.5 178v80q0 111 -24 181t-60 109.5t-76.5 54t-73.5 14.5h-151v179h151q26 0 53 19.5t51.5 51t46.5 72t39 83t28 83.5t14 74h-461v-127h-179v306h821q0 -112 -18.5 -214.5t-49 -187 t-71.5 -147t-86 -93.5q43 -14 83.5 -49.5t72 -93t50.5 -136.5t19 -179v-80q0 -101 -31.5 -177t-86.5 -127t-131 -76.5t-164 -25.5q-83 0 -157.5 30t-130 84t-88 128.5t-32.5 163.5v233z" />
<glyph unicode="&#xd6;" horiz-adv-x="1278" d="M100 684v173h156q52 0 98.5 -5.5t87 -20.5t75 -42.5t61.5 -70.5q28 43 63 70t70 42.5t67 21t53 5.5q87 0 152 -34.5t108.5 -91.5t65 -130t21.5 -150v-763q0 -83 -30.5 -156.5t-85 -129t-129.5 -88t-163 -32.5q-82 0 -153 34.5t-131 94.5v-1q-60 57 -92 128.5t-32 149.5 v254h174v-254q0 -42 18.5 -85t50 -78.5t74.5 -57.5t91 -22t90 15.5t73 46.5t49 76.5t18 104.5v763q0 64 -14.5 108.5t-38.5 72.5t-54.5 40t-61.5 12q-78 0 -120.5 -56t-42.5 -177v-175h-180v175q0 70 -13.5 115.5t-42 71.5t-71.5 36t-103 10h-158z" />
<glyph unicode="&#xd7;" horiz-adv-x="1662" d="M100 431q0 83 32 160t87.5 136t129.5 94.5t158 35.5q40 0 84.5 -7.5t87.5 -24.5t82 -44t70 -66q26 42 63 69.5t79 43.5t87 22.5t87 6.5q75 0 149.5 -28.5t133.5 -83t95.5 -134t36.5 -180.5q0 -47 -9.5 -98t-27.5 -97.5t-43.5 -84.5t-56.5 -59q46 -33 73 -77t41.5 -89 t18.5 -87t4 -71v-80q0 -80 -33 -153t-90 -129.5t-132.5 -90t-159.5 -33.5q-86 0 -159.5 34.5t-127.5 91.5t-85 130t-31 150v103h177v-103q0 -50 16 -94t46 -77t71.5 -52t92.5 -19q52 0 94.5 15.5t73 46.5t47 76t16.5 104v80q0 41 -6 82.5t-18.5 74.5t-32 54t-45.5 21h-155 v168h155q30 0 49.5 25t31 63.5t16.5 85t5 89.5q0 60 -19.5 107t-52 79.5t-74 49.5t-85.5 17q-59 0 -102 -20.5t-70.5 -57.5t-40.5 -87t-13 -108q0 -89 -34.5 -165t-92 -132t-132 -87.5t-155.5 -31.5q-84 0 -158 36t-129.5 96t-87.5 139t-32 165zM281 431q0 -52 17 -99.5 t47 -84t71.5 -58t90.5 -21.5q45 0 87.5 18.5t75.5 51t53.5 77t20.5 96.5q0 50 -18.5 99t-50.5 87.5t-75.5 62.5t-92.5 24t-90.5 -22t-71.5 -58t-47 -81.5t-17 -91.5z" />
<glyph unicode="&#xd8;" horiz-adv-x="1031" d="M100 -79h181v-233q0 -42 13 -85t40.5 -78.5t70.5 -57.5t103 -22q43 0 85.5 15.5t76 46.5t54 76.5t20.5 104.5v671q0 60 -20.5 118.5t-54.5 104t-78 74t-91 28.5q-44 0 -80 -14t-61.5 -39.5t-40 -63t-14.5 -83.5q0 -34 9.5 -64.5t26.5 -54t40 -37t50 -13.5v-169 q-74 0 -131 33.5t-97 84t-60.5 109.5t-20.5 111q0 95 32.5 165t85 115.5t119.5 68.5t135 24q18 0 48.5 -6.5t65.5 -19t71 -30.5t66 -41v774h177v-1846q0 -94 -33 -169t-89.5 -127.5t-131.5 -81t-159 -28.5q-89 0 -164 30.5t-129 84.5t-84.5 128.5t-30.5 162.5v233z" />
<glyph unicode="&#xd9;" horiz-adv-x="1664" d="M100 431q0 94 33 172t89 134.5t130 88t155 31.5q46 0 91 -5t86.5 -20.5t79.5 -43.5t70 -73q27 43 62.5 71t76 43.5t84 21.5t88.5 6q79 0 154.5 -33.5t134.5 -91.5t94.5 -135.5t35.5 -165.5q0 -89 -36.5 -167.5t-98 -137t-141.5 -92.5t-167 -34v168q55 0 102.5 21.5 t81.5 58t53.5 84t19.5 99.5q0 53 -17.5 99t-48.5 80.5t-73.5 54t-91.5 19.5q-104 0 -165 -61.5t-61 -191.5v-175h-177v175q0 65 -17.5 112.5t-48.5 79t-75 46.5t-96 15q-104 0 -165 -61.5t-61 -191.5q0 -99 21 -175t59 -135t90 -103t114 -79t132 -63t143 -55 q70 -27 138 -53.5t129 -57.5t112.5 -69.5t89 -89t58.5 -117t21 -152.5h-176v29q0 57 -20 100t-56.5 77t-87 62t-112.5 54.5t-132.5 53.5t-146.5 60v-1q-111 43 -212 100.5t-177.5 140.5t-122 198.5t-45.5 274.5z" />
<glyph unicode="&#xda;" horiz-adv-x="1020" d="M100 -79h180v-233q0 -35 16.5 -77t46.5 -79t72.5 -62t94.5 -25q37 0 78.5 9.5t76 36t57 74t22.5 123.5v397q-27 -23 -59 -39.5t-63 -26.5t-59.5 -14.5t-49.5 -4.5h-3q-84 0 -158.5 36.5t-130.5 96.5t-88.5 137.5t-32.5 160.5q0 62 18.5 118t50 103.5t74 85.5t91 64.5 t100.5 40.5t102 14v-171q-47 0 -92.5 -17.5t-82 -50t-59 -80t-22.5 -107.5q0 -55 14.5 -103t43 -83.5t72 -56t100.5 -20.5q53 0 96.5 25t74 63.5t47 85t16.5 89.5v426h176v-1171q0 -81 -19 -142.5t-51 -106.5t-74 -75t-87.5 -47.5t-91.5 -25t-87 -7.5q-81 0 -155 37 t-131 95.5t-90.5 130.5t-33.5 143v233z" />
<glyph unicode="&#xdb;" horiz-adv-x="1025" d="M32 1534q14 0 37.5 -1t50.5 -6t56 -14.5t56 -26t48.5 -41t33.5 -59.5q24 47 54.5 76t64.5 45t68.5 21.5t66.5 5.5h6q97 0 162.5 -35.5t105 -93.5t56.5 -131t17 -149v-694q0 -86 -33.5 -164t-89.5 -137.5t-129.5 -94.5t-154.5 -35q-84 0 -158.5 35t-131 94.5t-89 137.5 t-32.5 164q0 82 32.5 159t88 136t129.5 95t158 36h3q49 0 111 -17.5t117 -46.5v332q0 32 -8 74t-27.5 79.5t-52 63t-81.5 25.5q-31 0 -61 -4.5t-54 -23t-39 -57.5t-15 -108v-110h-174v110q0 67 -16.5 106t-43.5 58t-61 24t-69 5zM278 431q0 -52 16.5 -99.5t46.5 -84 t72.5 -58t94.5 -21.5q49 0 91 21.5t72.5 58t47.5 84t17 99.5q0 50 -17 96t-47.5 81t-72.5 55.5t-91 20.5q-52 0 -94.5 -23t-72.5 -59.5t-46.5 -81.5t-16.5 -89z" />
<glyph unicode="&#xdc;" horiz-adv-x="1031" d="M110 0v1125q0 102 25.5 179t72 128.5t111.5 77.5t145 26q64 0 124.5 -17t107.5 -56t76 -103.5t29 -159.5q0 -72 -28 -123.5t-72.5 -87t-101 -57t-113 -33.5t-108 -17.5t-87.5 -8.5v-126q48 31 110.5 51t119.5 20q96 0 172.5 -31.5t129 -86.5t80.5 -129.5t28 -159.5 q0 -80 -39 -154.5t-101 -131.5t-140.5 -91t-156.5 -34v168q35 0 79.5 17t84.5 49t67 76.5t27 100.5q0 49 -13 92.5t-40.5 76t-71.5 51t-106 18.5q-51 0 -87.5 -13t-62.5 -34t-42 -47t-25 -52.5t-12 -50.5t-3 -41v-411h-179zM289 1182l2 -162q27 3 62 6.5t71.5 10t71.5 17.5 t62.5 30t44.5 47.5t17 68.5q0 81 -35.5 124t-120.5 43q-79 0 -127 -50t-48 -135z" />
<glyph unicode="&#xdd;" horiz-adv-x="1309" d="M100 147q0 26 1 72t5 104t12.5 126t24 138t39.5 140t58 132h189q-34 -55 -58 -117t-40.5 -125t-26.5 -124.5t-15 -115.5t-6.5 -97.5t-1.5 -70.5v-376q0 -66 32.5 -134.5t85 -125t119 -92t134.5 -35.5q82 0 152 28t121 70.5t79.5 92.5t28.5 94v36q0 39 -16 80.5t-46.5 75 t-76 55.5t-104.5 22h-99v174h93q115 0 182 61.5t68 179.5v1q0 34 -23.5 59.5t-59 50.5t-77 52.5t-77 65.5t-59 89.5t-23.5 123.5h180q0 -47 23 -81t58 -63t75.5 -56t75.5 -60t58 -75.5t23 -101.5q1 -54 -7.5 -100.5t-35.5 -87t-76.5 -76.5t-130.5 -69q67 -12 114.5 -45 t77.5 -77.5t44 -96t14 -100.5v-37q0 -63 -22.5 -120.5t-62 -107.5t-93 -90.5t-115 -69.5t-128.5 -45t-133 -16q-69 0 -137 21.5t-129.5 60t-114 90.5t-91 113.5t-60.5 129t-22 136.5v314z" />
<glyph unicode="&#xde;" horiz-adv-x="1030" d="M100 423q0 82 32.5 160.5t88.5 139t130.5 97.5t158.5 37q21 0 50.5 -6.5t61.5 -19.5t63.5 -31t58.5 -41v775h176v-1103q0 -89 -33 -167.5t-89 -137t-130 -92.5t-156 -34t-156.5 34t-131.5 92t-90.5 134.5t-33.5 162.5zM280 424q0 -48 18 -94t49 -82t73.5 -58t91.5 -22 q43 0 84.5 22.5t74.5 59.5t53 84t20 97q0 46 -20 91.5t-53 81.5t-76.5 58t-89.5 22q-50 0 -91 -23.5t-71 -61t-46.5 -83.5t-16.5 -92z" />
<glyph unicode="&#xdf;" horiz-adv-x="1080" d="M110 552v573q0 206 85 307.5t269 101.5q36 0 70 -6t64.5 -21.5t58 -41.5t50.5 -66q29 41 62 67.5t67 41.5t68 20.5t66 5.5v-167q-48 0 -80.5 -12.5t-52 -41t-28 -75t-8.5 -113.5v-101h-180v101q0 65 -11.5 111t-32.5 75t-50 42.5t-63 13.5q-37 0 -68 -12t-54 -40 t-36 -74.5t-13 -115.5v-385q31 23 70 38t76.5 24t120.5 16q96 0 169.5 -33.5t123 -91t75 -135.5t25.5 -167q0 -127 -18.5 -223t-49.5 -176.5t-71.5 -153.5t-85 -154t-89.5 -177.5t-85 -224.5h-170q0 83 -20.5 174.5t-50.5 191t-66 206t-66 220t-50.5 233.5t-20.5 245z M293 471q0 -84 13.5 -166.5t34.5 -163.5t46 -160.5t48 -156.5t40.5 -151t23.5 -145q34 101 68 178t65.5 141t58.5 121.5t47 119.5t31.5 134t11.5 165v4q0 55 -13 101.5t-40 80.5t-69 53t-100 19q-55 0 -103.5 -9t-84.5 -29.5t-57 -54t-21 -81.5z" />
<glyph unicode="&#xe0;" horiz-adv-x="1024" d="M100 -110h175v-204q0 -54 14.5 -99.5t43.5 -77.5t72.5 -50t102.5 -18q118 0 176.5 63t58.5 184q0 69 -18.5 118.5t-46.5 89t-61 73.5t-61 72t-46.5 85t-18.5 111l-105 3q-67 2 -119.5 35.5t-89 80t-55.5 96t-19 84.5v9q4 67 30 124t68 98t97.5 64t118.5 23q18 0 37 -3.5 t37 -5.5v691h168v-794q8 -9 18 -20.5t19.5 -26.5t16.5 -32.5t9 -36.5l202 -1v-156h-205q-5 -37 -21.5 -69.5t-39.5 -48.5l1 -111q0 -47 19 -83.5t48 -71t62.5 -70.5t62.5 -81.5t49 -105t21 -140.5q0 -41 -10 -87t-31.5 -91t-54 -86.5t-78.5 -73t-105.5 -50t-133.5 -18.5 q-93 0 -168 29t-128.5 82t-82.5 128t-29 167v202zM273 547q0 -46 14.5 -76.5t37.5 -49t51.5 -26t57.5 -7.5q28 0 56.5 13t51 35t36.5 50.5t14 60.5q0 30 -12.5 57.5t-33.5 48.5t-48 33.5t-56 12.5q-30 0 -60 -7t-54 -24t-39.5 -46.5t-15.5 -74.5z" />
<glyph unicode="&#xe1;" horiz-adv-x="1030" d="M110 431v1103h180v-769q61 42 118 67t114 25q83 0 157 -33.5t130 -91.5t88.5 -135.5t32.5 -165.5q0 -89 -33 -167.5t-89 -137t-130 -92.5t-156 -34q-81 0 -155.5 35t-131.5 94.5t-91 137.5t-34 164zM290 431q0 -52 18.5 -99.5t50 -84t73.5 -58t90 -21.5q43 0 85 21.5 t74.5 58t52.5 84t20 99.5q0 46 -18.5 91.5t-50.5 81.5t-74 58t-89 22q-48 0 -90.5 -22t-74 -58t-49.5 -81.5t-18 -91.5z" />
<glyph unicode="&#xe2;" horiz-adv-x="1021" d="M100 -79h179v-233q0 -42 16 -83.5t46 -75t72 -54t95 -20.5q56 0 99.5 12t73.5 39t45.5 71.5t15.5 110.5v80q0 109 -24 178.5t-60 109.5t-76.5 55.5t-73.5 15.5h-151v179h151q37 0 76.5 23.5t72.5 70t56 115.5t27 160q-23 -9 -47 -16t-51.5 -11.5t-60.5 -6.5t-73 -2 q-99 0 -175.5 29.5t-128 83.5t-78 129.5t-26.5 167.5q0 76 25 136t64.5 105.5t89 77t98 51t91 28.5t68.5 9v-176q-9 0 -31.5 -3.5t-51 -13t-59.5 -25.5t-56.5 -42t-42 -62t-16.5 -85q0 -44 15.5 -86t45 -74t72 -51.5t96.5 -19.5q118 0 217.5 38.5t195.5 118.5v-370 q0 -55 -23 -112t-59.5 -109t-82 -95t-90.5 -70q41 -18 86 -53t82.5 -89.5t62 -131t24.5 -177.5v-82q0 -101 -31.5 -176.5t-86.5 -126t-131 -76t-164 -25.5q-83 0 -157.5 29.5t-130 82.5t-88 128t-32.5 166v233z" />
<glyph unicode="&#xe3;" horiz-adv-x="1021" d="M100 -206h179v-106q0 -44 13.5 -87.5t41 -78t71 -56t103.5 -21.5q66 0 110.5 22.5t72 59t39.5 82.5t12 93q0 86 -23.5 141.5t-59.5 93.5t-77 67t-77 63t-59.5 81t-23.5 121v257l-322 159v207l322 -157v359h174v-453l325 -155v-208l-325 155v-166q0 -44 24 -75.5t60 -61.5 t78.5 -64t78.5 -83.5t60 -120.5t24 -174q0 -89 -26.5 -163.5t-78.5 -128.5t-129.5 -84t-178.5 -30q-105 0 -182 37t-127 95.5t-74.5 130.5t-24.5 143v106z" />
<glyph unicode="&#xe4;" horiz-adv-x="1020" d="M100 411v150h180v-150q0 -45 12 -89t39.5 -78t71.5 -55t109 -21q33 0 73.5 11.5t75.5 34t59 56t24 78.5q0 46 -12.5 77.5t-29.5 51t-36 27.5t-32 8h-207v167h207q20 0 40 4.5t35.5 17.5t25 35.5t9.5 57.5q0 34 -9.5 54t-25.5 30.5t-35.5 13.5t-39.5 3h-207v170h216 q42 0 71.5 36t29.5 105q0 43 -27.5 66.5t-73 35.5t-103.5 17t-118 9.5t-118 13.5t-103.5 30t-73 58t-27.5 98h178q1 -17 29 -26.5t73.5 -16.5t103 -14t117.5 -18.5t117.5 -29.5t102 -47t72 -72t27.5 -104q0 -78 -20 -130t-74 -89q28 -13 46 -30t28.5 -40.5t15 -53.5t4.5 -69 q0 -70 -21.5 -118.5t-78.5 -80.5q30 -23 49 -52.5t30.5 -62.5t16 -67t4.5 -65v-5q0 -89 -37.5 -153.5t-96 -106.5t-130.5 -62.5t-140 -20.5q-99 0 -176.5 27.5t-131 80.5t-81 129t-27.5 174z" />
<glyph unicode="&#xe5;" horiz-adv-x="1145" d="M100 334q0 76 28.5 141t81.5 112.5t128 74.5t168 27h234v158h-234q-93 0 -168 28.5t-128 77.5t-81.5 114.5t-28.5 140.5q0 83 29.5 144t84 100.5t130.5 58.5t169 19q92 0 167 -19t128 -58.5t82 -100.5t29 -144v-184h126v-177h-126v-158h126v-177h-126v-178 q0 -71 -21 -132.5t-68.5 -106.5t-125 -71t-191.5 -26q-96 0 -172.5 23.5t-130 67.5t-82 106t-28.5 139zM276 334q0 -40 19 -69.5t52.5 -48.5t79.5 -28.5t100 -9.5q114 0 163.5 44t49.5 126v164h-234q-48 0 -89.5 -14.5t-73 -39t-49.5 -57t-18 -67.5zM276 1208q0 -41 16 -75 t46 -58t72.5 -37.5t95.5 -13.5h234v184q0 42 -16 71t-46 46t-73.5 24.5t-98.5 7.5q-47 0 -88.5 -9t-73 -27.5t-50 -46.5t-18.5 -66z" />
<glyph unicode="&#xe6;" horiz-adv-x="1821" d="M68 280q0 86 49.5 161.5t138 114.5t282.5 64q150 20 252 49q1 25 1 41q0 126 -52.5 176.5t-183.5 50.5q-87 0 -147 -21t-88.5 -59.5t-47.5 -123.5l-175 21q28 117 80.5 185.5t150.5 107.5t229 39q167 0 269 -50q59 -29 99 -93q64 70 145 106.5t196 36.5q162 0 268 -78.5 t155 -207.5t49 -254q0 -19 -2 -61h-767q2 -144 35.5 -209t107 -108.5t161.5 -43.5q103 0 174.5 59t98.5 166l188 -24q-50 -167 -170 -258t-298 -91q-127 0 -222.5 48t-172.5 150q-104 -102 -210.5 -150t-229.5 -48q-172 0 -267.5 88.5t-95.5 215.5zM259 286q0 -71 53 -119.5 t154 -48.5q115 0 200.5 57t111.5 142q15 52 15 216q-79 -34 -322 -73q-109 -17 -153 -51q-59 -47 -59 -123zM969 633h584q-14 158 -90 231t-198 73q-126 0 -206.5 -80t-89.5 -224z" />
<glyph unicode="&#xe7;" horiz-adv-x="1024" d="M80 527q0 172 57 301t173.5 193.5t253.5 64.5q173 0 283 -87.5t141 -248.5l-175 -27q-25 107 -88.5 161t-153.5 54q-136 0 -221 -97.5t-85 -308.5q0 -214 82 -311t214 -97q106 0 177 65t90 200l177 -23q-29 -183 -148.5 -286.5t-293.5 -103.5q-218 0 -350.5 142.5 t-132.5 408.5zM302 -389l11 117q64 -4 94 -4q94 0 132 26q29 20 29 49q0 18 -11.5 32t-42.5 24t-103 11l52 177h134l-33 -107q85 -10 128 -52.5t43 -94.5q0 -75 -72 -132.5t-217 -57.5q-82 0 -144 12z" />
<glyph unicode="&#xe8;" d="M75 522q0 268 138 416t358 148q213 0 348 -145t135 -408q0 -16 -1 -48h-792q10 -175 99 -268t222 -93q99 0 169 52t111 166l186 -23q-44 -163 -163 -253t-304 -90q-233 0 -369.5 143.5t-136.5 402.5zM271 633h593q-12 134 -68 201q-86 104 -223 104q-124 0 -208.5 -83 t-93.5 -222zM310 1474h241l135 -280h-145z" />
<glyph unicode="&#xe9;" d="M75 522q0 268 138 416t358 148q213 0 348 -145t135 -408q0 -16 -1 -48h-792q10 -175 99 -268t222 -93q99 0 169 52t111 166l186 -23q-44 -163 -163 -253t-304 -90q-233 0 -369.5 143.5t-136.5 402.5zM271 633h593q-12 134 -68 201q-86 104 -223 104q-124 0 -208.5 -83 t-93.5 -222zM465 1194l133 280h236l-220 -280h-149z" />
<glyph unicode="&#xea;" d="M75 522q0 268 138 416t358 148q213 0 348 -145t135 -408q0 -16 -1 -48h-792q10 -175 99 -268t222 -93q99 0 169 52t111 166l186 -23q-44 -163 -163 -253t-304 -90q-233 0 -369.5 143.5t-136.5 402.5zM271 633h593q-12 134 -68 201q-86 104 -223 104q-124 0 -208.5 -83 t-93.5 -222zM248 1194l216 280h192l225 -280h-204l-110 170l-113 -170h-206z" />
<glyph unicode="&#xeb;" d="M75 522q0 268 138 416t358 148q213 0 348 -145t135 -408q0 -16 -1 -48h-792q10 -175 99 -268t222 -93q99 0 169 52t111 166l186 -23q-44 -163 -163 -253t-304 -90q-233 0 -369.5 143.5t-136.5 402.5zM271 633h593q-12 134 -68 201q-86 104 -223 104q-124 0 -208.5 -83 t-93.5 -222zM284 1270v205h188v-205h-188zM657 1270v205h188v-205h-188z" />
<glyph unicode="&#xec;" horiz-adv-x="569" d="M198 0v1062h180v-1062h-180zM37 1474h241l135 -280h-145z" />
<glyph unicode="&#xed;" horiz-adv-x="569" d="M198 0v1062h180v-1062h-180zM191 1194l133 280h236l-220 -280h-149z" />
<glyph unicode="&#xee;" horiz-adv-x="569" d="M198 0v1062h180v-1062h-180zM-15 1194l216 280h192l225 -280h-204l-110 170l-113 -170h-206z" />
<glyph unicode="&#xef;" horiz-adv-x="569" d="M198 0v1062h180v-1062h-180zM11 1270v205h188v-205h-188zM384 1270v205h188v-205h-188z" />
<glyph unicode="&#xf0;" d="M73 517q0 261 129 403t323 142q58 0 102 -12t110 -47q-36 73 -63 113.5t-79 99.5l-275 -127l-44 103l239 109q-97 90 -207 165h217q72 -54 125 -102l214 102l45 -102l-172 -83q320 -368 320 -760q0 -253 -139 -399.5t-354 -146.5q-255 0 -398 194q-93 127 -93 348z M257 512q0 -194 87.5 -292t218.5 -98q128 0 217.5 103.5t89.5 303.5q0 192 -90.5 293.5t-222.5 101.5q-130 0 -215 -101.5t-85 -310.5z" />
<glyph unicode="&#xf1;" d="M135 0v1062h162v-151q117 175 338 175q96 0 176.5 -34.5t120.5 -90.5t56 -133q10 -50 10 -175v-653h-180v646q0 110 -21 164.5t-74.5 87t-125.5 32.5q-115 0 -198.5 -73t-83.5 -277v-580h-180zM262 1219q-1 104 57 166q57 62 146 62q62 0 169 -54q59 -30 94 -30 q32 0 49 17.5t24 69.5h130q-3 -114 -57.5 -171t-138.5 -57q-63 0 -166 56q-67 36 -98 36q-34 0 -55 -24q-22 -24 -21 -71h-133z" />
<glyph unicode="&#xf2;" d="M68 531q0 295 164 437q137 118 334 118q219 0 358 -143.5t139 -396.5q0 -205 -61.5 -322.5t-179 -182.5t-256.5 -65q-223 0 -360.5 143t-137.5 412zM253 531q0 -204 89 -305.5t224 -101.5q134 0 223 102t89 311q0 197 -89.5 298.5t-222.5 101.5q-135 0 -224 -101 t-89 -305zM311 1474h241l135 -280h-145z" />
<glyph unicode="&#xf3;" d="M68 531q0 295 164 437q137 118 334 118q219 0 358 -143.5t139 -396.5q0 -205 -61.5 -322.5t-179 -182.5t-256.5 -65q-223 0 -360.5 143t-137.5 412zM253 531q0 -204 89 -305.5t224 -101.5q134 0 223 102t89 311q0 197 -89.5 298.5t-222.5 101.5q-135 0 -224 -101 t-89 -305zM466 1194l133 280h236l-220 -280h-149z" />
<glyph unicode="&#xf4;" d="M68 531q0 295 164 437q137 118 334 118q219 0 358 -143.5t139 -396.5q0 -205 -61.5 -322.5t-179 -182.5t-256.5 -65q-223 0 -360.5 143t-137.5 412zM253 531q0 -204 89 -305.5t224 -101.5q134 0 223 102t89 311q0 197 -89.5 298.5t-222.5 101.5q-135 0 -224 -101 t-89 -305zM249 1194l216 280h192l225 -280h-204l-110 170l-113 -170h-206z" />
<glyph unicode="&#xf5;" d="M68 531q0 295 164 437q137 118 334 118q219 0 358 -143.5t139 -396.5q0 -205 -61.5 -322.5t-179 -182.5t-256.5 -65q-223 0 -360.5 143t-137.5 412zM253 531q0 -204 89 -305.5t224 -101.5q134 0 223 102t89 311q0 197 -89.5 298.5t-222.5 101.5q-135 0 -224 -101 t-89 -305zM231 1219q-1 104 57 166q57 62 146 62q62 0 169 -54q59 -30 94 -30q32 0 49 17.5t24 69.5h130q-3 -114 -57.5 -171t-138.5 -57q-63 0 -166 56q-67 36 -98 36q-34 0 -55 -24q-22 -24 -21 -71h-133z" />
<glyph unicode="&#xf6;" d="M68 531q0 295 164 437q137 118 334 118q219 0 358 -143.5t139 -396.5q0 -205 -61.5 -322.5t-179 -182.5t-256.5 -65q-223 0 -360.5 143t-137.5 412zM253 531q0 -204 89 -305.5t224 -101.5q134 0 223 102t89 311q0 197 -89.5 298.5t-222.5 101.5q-135 0 -224 -101 t-89 -305zM285 1270v205h188v-205h-188zM658 1270v205h188v-205h-188z" />
<glyph unicode="&#xf7;" horiz-adv-x="1124" d="M78 639v168h968v-168h-968zM459 319v205h205v-205h-205zM459 922v205h205v-205h-205z" />
<glyph unicode="&#xf8;" horiz-adv-x="1251" d="M134 516q0 301 147 435.5t345 134.5q82 0 151 -21t147 -66l99 128l96 -70l-107 -138q63 -86 86 -156q31 -100 31 -233q0 -300 -169 -441q-137 -113 -330 -113q-159 0 -281 80l-105 -135l-94 71l108 141q-59 68 -84 136q-40 109 -40 247zM319 531q0 -150 52 -251l452 587 q-91 70 -191 70q-133 0 -223 -102t-90 -304zM449 187q78 -63 176 -63q139 0 229.5 102t90.5 306q0 76 -12 133q-8 42 -35 105z" />
<glyph unicode="&#xf9;" d="M131 404v658h180v-589q0 -141 11 -190q17 -71 72 -111.5t136 -40.5t152 41.5t100.5 113t29.5 207.5v569h180v-1062h-161v156q-124 -180 -337 -180q-94 0 -175.5 36t-121 90.5t-55.5 133.5q-11 53 -11 168zM352 1474h241l135 -280h-145z" />
<glyph unicode="&#xfa;" d="M131 404v658h180v-589q0 -141 11 -190q17 -71 72 -111.5t136 -40.5t152 41.5t100.5 113t29.5 207.5v569h180v-1062h-161v156q-124 -180 -337 -180q-94 0 -175.5 36t-121 90.5t-55.5 133.5q-11 53 -11 168zM453 1194l133 280h236l-220 -280h-149z" />
<glyph unicode="&#xfb;" d="M131 404v658h180v-589q0 -141 11 -190q17 -71 72 -111.5t136 -40.5t152 41.5t100.5 113t29.5 207.5v569h180v-1062h-161v156q-124 -180 -337 -180q-94 0 -175.5 36t-121 90.5t-55.5 133.5q-11 53 -11 168zM245 1194l216 280h192l225 -280h-204l-110 170l-113 -170h-206z " />
<glyph unicode="&#xfc;" d="M131 404v658h180v-589q0 -141 11 -190q17 -71 72 -111.5t136 -40.5t152 41.5t100.5 113t29.5 207.5v569h180v-1062h-161v156q-124 -180 -337 -180q-94 0 -175.5 36t-121 90.5t-55.5 133.5q-11 53 -11 168zM281 1270v205h188v-205h-188zM654 1270v205h188v-205h-188z" />
<glyph unicode="&#xfd;" horiz-adv-x="1024" d="M33 1062h194l221 -615q43 -117 77 -246q31 124 74 242l227 619h180l-404 -1080q-65 -175 -101 -241q-48 -89 -110 -130.5t-148 -41.5q-52 0 -116 22l-20 169q59 -16 103 -16q60 0 96 20t59 56q17 27 55 134q5 15 16 44zM420 1194l133 280h236l-220 -280h-149z" />
<glyph unicode="&#xfe;" d="M135 -407v1873h180v-516q73 77 128 102q72 34 164 34q136 0 240 -70t157 -197.5t53 -279.5q0 -164 -58.5 -294t-170 -199.5t-233.5 -69.5q-83 0 -154 33q-54 26 -126 101v-517h-180zM298 525q0 -205 83 -303t201 -98q120 0 205.5 101.5t85.5 314.5q0 203 -83.5 304 t-199.5 101q-115 0 -203.5 -107.5t-88.5 -312.5z" />
<glyph unicode="&#xff;" horiz-adv-x="1024" d="M33 1062h194l221 -615q43 -117 77 -246q31 124 74 242l227 619h180l-404 -1080q-65 -175 -101 -241q-48 -89 -110 -130.5t-148 -41.5q-52 0 -116 22l-20 169q59 -16 103 -16q60 0 96 20t59 56q17 27 55 134q5 15 16 44zM243 1270v205h188v-205h-188zM616 1270v205h188 v-205h-188z" />
<glyph unicode="&#x152;" horiz-adv-x="2048" d="M129 735q0 322 142 539t450 217q264 0 400 -223v198h831v-173h-650v-448h599v-172h-599v-500h681v-173h-862v212q-135 -237 -400 -237q-301 0 -456 232q-136 205 -136 528zM329 720q0 -303 115.5 -446t275.5 -143q161 0 275.5 142.5t114.5 471.5q0 306 -115.5 447.5 t-274.5 141.5q-101 0 -197 -65t-145 -197.5t-49 -351.5z" />
<glyph unicode="&#x153;" horiz-adv-x="1933" d="M82 518q0 169 58.5 302.5t178 199.5t265.5 66q138 0 240.5 -57.5t153.5 -145.5q64 93 164.5 148t224.5 55q220 0 356 -151t134 -452h-784q3 -166 92.5 -262.5t223.5 -96.5q99 0 170.5 55.5t103.5 166.5l180 -26q-43 -165 -160.5 -254.5t-296.5 -89.5q-134 0 -240 52.5 t-168 146.5q-76 -99 -175 -149t-221 -50q-225 0 -362.5 143t-137.5 399zM267 533q0 -186 71 -283q92 -126 239 -126q129 0 221 106t92 305q0 198 -90.5 300.5t-222.5 102.5q-87 0 -160 -49t-111.5 -145t-38.5 -211zM1080 631h587q-12 151 -91.5 229t-197.5 78 q-120 0 -203.5 -82t-94.5 -225z" />
<glyph unicode="&#x160;" horiz-adv-x="1366" d="M92 471l183 16q13 -110 60.5 -180.5t147.5 -114t225 -43.5q111 0 196 33t126.5 90.5t41.5 125.5q0 69 -40 120.5t-132 86.5q-59 23 -261 71.5t-283 91.5q-105 55 -156.5 136.5t-51.5 182.5q0 111 63 207.5t184 146.5t269 50q163 0 287.5 -52.5t191.5 -154.5t72 -231 l-186 -14q-15 139 -101.5 210t-255.5 71q-176 0 -256.5 -64.5t-80.5 -155.5q0 -79 57 -130q56 -51 292.5 -104.5t324.5 -93.5q128 -59 189 -149.5t61 -208.5q0 -117 -67 -220.5t-192.5 -161t-282.5 -57.5q-199 0 -333.5 58t-211 174.5t-80.5 263.5zM336 1830h206l113 -170 l110 170h204l-225 -280h-192z" />
<glyph unicode="&#x161;" horiz-adv-x="1024" d="M63 317l178 28q15 -107 83.5 -164t191.5 -57q124 0 184 50.5t60 118.5q0 61 -53 96q-37 24 -184 61q-198 50 -274.5 86.5t-116 101t-39.5 142.5q0 71 32.5 131.5t88.5 100.5q42 31 114.5 52.5t155.5 21.5q125 0 219.5 -36t139.5 -97.5t62 -164.5l-176 -24 q-12 82 -69.5 128t-162.5 46q-124 0 -177 -41t-53 -96q0 -35 22 -63q22 -29 69 -48q27 -10 159 -46q191 -51 266.5 -83.5t118.5 -94.5t43 -154q0 -90 -52.5 -169.5t-151.5 -123t-224 -43.5q-207 0 -315.5 86t-138.5 255zM188 1474h206l113 -170l110 170h204l-225 -280h-192z " />
<glyph unicode="&#x178;" horiz-adv-x="1366" d="M6 1466h236l289 -442q80 -124 149 -248q66 115 160 259l284 431h226l-585 -845v-621h-194v621zM397 1556v205h188v-205h-188zM770 1556v205h188v-205h-188z" />
<glyph unicode="&#x192;" d="M46 -405l35 155q101 -22 152 -22q54 0 83 28t45 124l177 1042h-201l24 140h201l24 133q22 120 45 165q31 62 88.5 97t150.5 35q80 0 215 -38l-35 -153q-103 24 -154 24q-56 0 -84 -27.5t-47 -132.5l-19 -103h204l-25 -140h-204l-191 -1092q-26 -148 -87 -204.5 t-173 -56.5q-94 0 -224 26z" />
<glyph unicode="&#x2c6;" horiz-adv-x="682" d="M25 1194l216 280h192l225 -280h-204l-110 170l-113 -170h-206z" />
<glyph unicode="&#x2dc;" horiz-adv-x="682" d="M7 1219q-1 104 57 166q57 62 146 62q62 0 169 -54q59 -30 94 -30q32 0 49 17.5t24 69.5h130q-3 -114 -57.5 -171t-138.5 -57q-63 0 -166 56q-67 36 -98 36q-34 0 -55 -24q-22 -24 -21 -71h-133z" />
<glyph unicode="&#x10a0;" horiz-adv-x="1067" d="M125 555v139h177v-142q0 -101 8.5 -170t33.5 -112t71 -62t121 -19q87 0 133.5 21.5t68 69.5t25 125t3.5 187v2q0 110 -17 187t-44.5 133.5t-63 97t-72 77t-72 74t-63 88t-44.5 119t-17 166.5h178q0 -86 17 -144t44.5 -99.5t62.5 -73t71.5 -65.5t71.5 -77t62.5 -106 t44.5 -153.5t17 -219.5q0 -63 -4 -131.5t-18 -135t-40.5 -126.5t-72 -105.5t-112 -72.5t-159.5 -27h-7q-87 0 -151 24.5t-108.5 66t-73 97t-44 117t-21.5 126t-6 124.5z" />
<glyph unicode="&#x10a1;" horiz-adv-x="1067" d="M125 488q0 122 30 208t78 140.5t106.5 81.5t115.5 32q0 18 20 50t43.5 73t43.5 90.5t20 102.5q0 27 -23 46t-61.5 30.5t-87 16.5t-99.5 5v-252h-159v422h151q11 0 49.5 -1.5t90 -8.5t108.5 -23t105 -44.5t79 -72.5t31 -108q0 -62 -21 -114.5t-46.5 -94.5t-46.5 -72 t-21 -47q51 -4 105.5 -26t100.5 -73t75.5 -137.5t29.5 -219.5q0 -128 -33.5 -221t-89.5 -153t-128 -89t-150 -29q-81 0 -156 28.5t-132.5 88t-92.5 151.5t-35 220zM303 488q0 -83 19.5 -140t52.5 -92t77 -51t93 -16q45 0 85.5 16.5t70.5 52.5t47.5 93.5t17.5 140.5 q0 90 -16.5 150t-45.5 97t-70 52.5t-89 15.5q-46 0 -89.5 -16t-77.5 -53.5t-54.5 -98.5t-20.5 -151z" />
<glyph unicode="&#x10a2;" horiz-adv-x="1231" d="M125 461q0 105 39 186.5t98 138.5t127 89t127 40q8 19 31 35.5t52 32.5t61 34.5t58.5 42.5t44 56.5t17.5 75.5q0 39 -19.5 70.5t-45.5 53.5t-53.5 34t-42.5 12q-46 0 -78.5 -9t-53.5 -24t-30.5 -34.5t-9.5 -41.5v-112h-179v112q0 56 28.5 107t77 89.5t112 61.5t133.5 23 q61 0 122 -27.5t109.5 -74.5t78.5 -109t30 -131q0 -47 -11.5 -82.5t-30.5 -62.5t-43 -47t-49 -36t-49 -29.5t-43 -27.5q71 -17 138 -52.5t119.5 -90.5t84 -130.5t31.5 -172.5q0 -77 -31.5 -158.5t-93.5 -149.5t-153 -111.5t-211 -43.5q-70 0 -133.5 18.5t-118 51.5t-99 77.5 t-76 96t-48.5 107.5t-17 112zM307 461q0 -40 17 -88.5t54.5 -91t97 -71t143.5 -28.5q91 0 150.5 27t95 68.5t49.5 90.5t14 93q0 53 -15.5 106.5t-51.5 96t-94.5 69.5t-145.5 27q-79 0 -138 -22.5t-98 -62.5t-58.5 -95t-19.5 -119z" />
<glyph unicode="&#x10a3;" horiz-adv-x="1714" d="M125 1030q0 94 24.5 185t75 161.5t127 114t181.5 43.5q66 0 113 -9.5t83 -29t66 -49.5t63 -70q28 41 56.5 70.5t64.5 49t83 29t110 9.5q107 0 185.5 -39t129.5 -108t76 -164t26 -207v-4q0 -114 -37 -207t-96.5 -159t-134.5 -102t-151 -36q-83 0 -155.5 30t-127 92 t-86.5 156.5t-33 223.5q0 30 -4.5 68.5t-15 77.5t-27.5 76.5t-43 67t-61 47t-82 17.5h-2q-69 -1 -113.5 -31.5t-69.5 -78.5t-34.5 -107.5t-9.5 -116.5q0 -181 28.5 -313t81.5 -225.5t128.5 -152.5t168.5 -92.5t202 -45.5t230 -12h186v-189h-186q-151 0 -285 18.5t-247.5 63 t-203.5 120t-153.5 190t-97 272t-33.5 366.5zM944 1016q0 -95 18.5 -161.5t50 -108.5t73 -61t86.5 -19t88 18t77 59t54.5 108t20.5 165q0 52 -10.5 112.5t-37.5 112t-73.5 86t-118.5 35.5h-3q-73 0 -117 -34.5t-68 -86.5t-32 -112.5t-8 -112.5z" />
<glyph unicode="&#x10a4;" horiz-adv-x="1069" d="M125 406v105h178v-96q0 -35 18 -75t49.5 -73.5t75.5 -56t95 -22.5t93 16.5t72 46t46 68.5t16 84v699q0 73 -19.5 123.5t-52 82t-75 45t-88.5 13.5q-31 0 -70 -14.5t-73.5 -42t-58.5 -68t-24 -91.5q0 -29 9 -55t25.5 -45.5t39.5 -30.5t51 -11v-181q-63 0 -119 28.5 t-97.5 75t-66 105.5t-24.5 121q0 65 21 118t55.5 95t78 73t89 51t88.5 30t76 10q43 0 90.5 -11t93.5 -33.5t87 -57.5t72 -83t49.5 -109.5t18.5 -137.5v-688q0 -76 -33 -150.5t-89.5 -133.5t-131 -95.5t-157.5 -36.5q-53 0 -104 18t-96.5 48.5t-83.5 71t-65.5 86t-43 93 t-15.5 91.5z" />
<glyph unicode="&#x10a5;" horiz-adv-x="1069" d="M125 410v231h176v-240q0 -45 18 -83.5t50.5 -67.5t76.5 -45.5t95 -16.5t93 20t72 51.5t46 71.5t16 79v79q0 66 -21.5 110.5t-52.5 71.5t-67 38.5t-64 11.5h-153v168h153q55 0 94 23t64 59.5t36 81t11 88.5q0 51 -17.5 91.5t-49 69.5t-74 44.5t-92.5 15.5q-53 0 -96 -9 t-74 -30.5t-47.5 -57t-16.5 -88.5v-163h-176v155q0 73 30 139.5t84 116.5t129.5 79.5t166.5 29.5q90 0 165.5 -28t129.5 -79.5t84 -124t30 -161.5q0 -45 -12.5 -93t-35 -92t-54 -81t-68.5 -60q46 -27 78.5 -56t52.5 -66.5t29.5 -87t9.5 -116.5v-79q0 -45 -15 -92.5t-42 -93 t-65 -86t-83.5 -70.5t-97 -48t-106.5 -18q-81 0 -155.5 35t-131 92t-90 130.5t-33.5 150.5z" />
<glyph unicode="&#x10a6;" horiz-adv-x="1498" d="M0 1143q0 81 30.5 152t82.5 123.5t119 83t141 30.5q83 0 152 -25.5t118.5 -74.5t77 -119t28.5 -158l3 -241q22 23 48 36t53 19t54 7.5t51 1.5q103 0 181 -38.5t130 -104.5t78 -153t26 -184q0 -107 -30 -198t-87.5 -158t-141 -104.5t-189.5 -37.5q-108 0 -191 37.5 t-139 104.5t-85 158t-30 198v5q0 61 11 106.5t27.5 80.5t35.5 61.5t35.5 50t27.5 45.5t11 49q-21 -37 -48.5 -62t-60.5 -40.5t-70 -22t-76 -6.5q-71 0 -138 31t-119 83.5t-84 120.5t-32 143zM177 1150q0 -37 15.5 -75.5t41 -69.5t59.5 -50.5t71 -19.5q44 0 82.5 19.5t67 50 t45 69t16.5 76.5q0 47 -14.5 86t-41.5 67.5t-65 44.5t-85 16q-44 0 -79 -16t-60.5 -44.5t-39 -67.5t-13.5 -86zM660 491q0 -62 16 -117.5t49.5 -97t85.5 -66t124 -24.5q71 0 121.5 24.5t82 66t46 97t14.5 117.5q0 58 -15.5 116t-48.5 103.5t-83 74t-119 28.5q-76 0 -128 -30 t-84.5 -76.5t-46.5 -103.5t-14 -112z" />
<glyph unicode="&#x10a7;" horiz-adv-x="1714" d="M125 789q0 144 5 255t20 193.5t42 139.5t70.5 91.5t106.5 50t150 15.5q39 0 84 -10t89 -34.5t84.5 -66.5t71.5 -106q22 81 59.5 125.5t82.5 64.5t93 23.5t92 3.5q118 0 197.5 -43t127.5 -133.5t68.5 -231.5t20.5 -337q0 -202 -37 -350.5t-98.5 -246t-141 -145 t-165.5 -47.5v188q34 0 67 9t62 33.5t53.5 67t42.5 109.5t28 161t10 221q0 130 -8.5 223.5t-24 157.5t-37.5 102.5t-49 58.5t-58.5 26.5t-65.5 6.5q-48 0 -83 -8.5t-60 -31.5t-41 -64t-25 -106t-12.5 -157.5t-3.5 -218.5q0 -122 -4.5 -227t-19.5 -191.5t-42.5 -153.5 t-73.5 -113t-112 -69.5t-159 -23.5q-125 0 -204 46t-124 143t-61.5 245.5t-16.5 354.5zM299 789q0 -136 8 -233t23 -163.5t36 -107t46.5 -62t55.5 -28.5t63 -7q38 0 70 7.5t58 29t46 60t33.5 100t20.5 149.5t7 209v35q0 125 -5.5 217t-17 157t-30.5 106.5t-45.5 65t-61.5 32 t-80 8.5q-41 0 -74 -8.5t-58 -32t-43 -64t-29.5 -104.5t-17 -154t-5.5 -212z" />
<glyph unicode="&#x10a8;" horiz-adv-x="1067" d="M125 758q0 203 17 350t63 241.5t126.5 139.5t207.5 45q119 0 197 -44.5t123.5 -139.5t64 -243t18.5 -355v-9q0 -194 -28 -334t-73.5 -231t-103.5 -134.5t-118 -43.5v168q56 37 86 90.5t44 125.5t16.5 163.5t2.5 204.5q0 169 -5 286t-27 190t-67 105.5t-126 32.5h-4 q-76 -1 -122.5 -30t-71.5 -95t-33.5 -174t-8.5 -268v-41q0 -114 2.5 -206.5t16.5 -165t46 -127t91 -91.5v-168q-65 0 -125 44t-106.5 136.5t-74.5 236t-28 341.5z" />
<glyph unicode="&#x10a9;" horiz-adv-x="1069" d="M125 406v182h173v-187q0 -59 18 -99.5t49.5 -65.5t75.5 -36.5t96 -11.5h4q73 0 117.5 18.5t69 49t32.5 69.5t8 81v79q0 50 -18.5 92.5t-50 73.5t-74 48.5t-90.5 17.5h-152v168h152q64 0 108.5 26.5t72.5 68t40.5 91.5t12.5 97q0 39 -5 80t-22.5 85.5t-50.5 94t-89 106.5 h200q53 -65 82 -122t42.5 -107.5t15.5 -95t2 -83.5q0 -46 -11 -91t-33 -86.5t-53.5 -76t-72.5 -59.5q55 -33 88.5 -70.5t51.5 -79t24 -86t6 -92.5v-79q0 -77 -26.5 -150.5t-78 -130.5t-128 -91.5t-176.5 -35.5h-5q-83 0 -157 26t-129 77t-87 127.5t-32 177.5z" />
<glyph unicode="&#x10aa;" horiz-adv-x="2343" d="M125 976q0 121 20 223.5t67 176.5t123.5 115.5t190.5 42.5q27 0 70 -4.5t90 -19.5t93 -42.5t79 -72.5q28 45 72 72.5t90.5 42.5t90 19.5t70.5 4.5q30 0 72 -4t85.5 -18.5t84.5 -42.5t70 -76q32 46 77.5 74t94 43t94.5 19.5t78 4.5q185 0 283 -134.5t98 -388.5v-11 q0 -53 -14.5 -111.5t-41.5 -115.5t-65.5 -108t-86.5 -90t-104.5 -62t-119.5 -23v168q13 0 37.5 9.5t53.5 28t59 47t55 66.5t41 85.5t17 105.5v13q0 185 -60 268t-174 83q-65 0 -108.5 -13.5t-70 -52.5t-38 -110.5t-11.5 -187.5v-174h-181v174q0 111 -14 182t-43 111.5 t-72.5 55.5t-102.5 15q-62 0 -105.5 -13.5t-72 -52.5t-41.5 -110.5t-13 -187.5v-174h-176v174q0 116 -18.5 187.5t-50 110.5t-73.5 52.5t-89 13.5q-49 0 -91.5 -37.5t-74 -94.5t-49.5 -125t-18 -129v-2q1 -172 46.5 -297.5t123.5 -213t182 -141.5t221.5 -84t241.5 -40.5 t242 -10.5h214v-189l-260 -1q-144 -1 -288 13.5t-276 53.5t-246 108t-198 177.5t-132 262.5t-48 362z" />
<glyph unicode="&#x10ab;" horiz-adv-x="1069" d="M125 508q0 130 34 219.5t90.5 145t130 79.5t153.5 24q31 0 65.5 -5t66.5 -16t59 -27.5t44 -39.5v236q0 62 -19.5 107.5t-51.5 75.5t-75 44.5t-89 14.5q-39 0 -80 -14t-74.5 -42t-54.5 -68.5t-21 -93.5l-178 4q0 82 32 152t87.5 121t129.5 80t159 29q91 0 166.5 -26.5 t130 -78.5t84.5 -128.5t30 -176.5v-616q0 -59 -8 -119.5t-26.5 -117t-49 -106t-76 -86.5t-106.5 -58t-141 -21q-106 0 -183.5 34.5t-128.5 100t-75.5 159.5t-24.5 214zM303 508q0 -90 11.5 -151.5t38 -99t70 -53.5t107.5 -16h3q66 0 111 18.5t72.5 57t39.5 99t12 145.5 q0 75 -10 128.5t-36.5 87.5t-72 49.5t-116.5 15.5q-52 0 -94.5 -14t-72.5 -46.5t-46.5 -86.5t-16.5 -134z" />
<glyph unicode="&#x10ac;" horiz-adv-x="1070" d="M125 508l1 616q0 118 36 197t94 126.5t132 67t150 19.5h407v-168h-407q-112 0 -173 -59.5t-61 -184.5v-230q37 31 67 48.5t57 25t53 9t55 1.5q201 0 305 -118t104 -350q0 -120 -24 -214t-73.5 -159.5t-124 -100t-174.5 -34.5q-120 0 -201.5 38t-131 105.5t-70.5 161 t-21 203.5zM302 508q0 -51 8.5 -107.5t33.5 -103.5t71 -77.5t121 -30.5t121 30.5t71 77.5t33.5 103.5t8.5 107.5q0 46 -8.5 95.5t-33.5 91t-71 68t-121 26.5t-121 -23t-71 -62t-33.5 -90t-8.5 -106z" />
<glyph unicode="&#x10ad;" horiz-adv-x="1716" d="M125 778q0 202 19.5 345t66 234t125 133t197.5 42h4q42 0 84.5 -2.5t84 -18t80 -48.5t72.5 -93q31 60 67.5 93t76 48.5t82 18t86.5 2.5h4q116 0 195.5 -40.5t129 -129t71 -230t21.5 -343.5q0 -198 -36.5 -346t-98 -246.5t-142 -147.5t-169.5 -49v168q51 0 99 35.5 t85.5 111.5t60 193t22.5 281q0 172 -14.5 283t-45 175.5t-77.5 89.5t-112 25q-69 0 -112 -14t-66.5 -45t-32 -79.5t-8.5 -117.5v-502h-176v502q0 73 -10.5 122t-37 79t-72 42.5t-115.5 12.5q-68 0 -112 -28.5t-70 -95.5t-36.5 -176.5t-10.5 -272.5q0 -174 21.5 -293 t57.5 -192t82 -104.5t94 -31.5v-168q-84 0 -162.5 47.5t-139 143.5t-96.5 242.5t-36 344.5z" />
<glyph unicode="&#x10ae;" horiz-adv-x="1069" d="M125 410v151h179v-149q0 -47 18.5 -87.5t50 -70.5t73.5 -47.5t89 -17.5q43 0 85 16.5t74.5 45.5t52.5 70t21 91v4q0 60 -20.5 114.5t-53.5 95.5t-75 65t-84 24h-152v175l180 -1q31 0 66.5 12.5t66 39t51 68.5t21.5 101v3q0 82 -36.5 131t-99 75t-146 34.5t-178.5 8.5 h-180v172h180q135 0 251.5 -21t202 -70.5t134 -131.5t48.5 -203q0 -54 -11 -99t-35 -82t-62 -67t-93 -55q39 -22 75 -55t64 -81t45 -111.5t17 -145.5q0 -89 -33.5 -164.5t-90 -130.5t-130 -86t-153.5 -31q-52 0 -102.5 15t-96.5 42t-85 65t-67.5 83.5t-44.5 97.5t-16 107z " />
<glyph unicode="&#x10af;" horiz-adv-x="1266" d="M125 1048v137h179v-137q0 -106 37.5 -165t107.5 -59q40 0 69 19t47 51t26.5 74.5t8.5 89.5q0 22 -8 67.5t-24.5 95t-41 92.5t-57.5 59v158h672v-1127q0 -101 -36 -176.5t-96 -126.5t-137 -76.5t-159 -25.5q-80 0 -154 25.5t-131 76.5t-91 127.5t-34 178.5v55h178v-55 q0 -62 17 -103.5t47 -66.5t72 -36t92 -11q53 0 98.5 11t79.5 36t53 66.5t19 103.5v955h-276q22 -37 39.5 -87t30 -96.5t19 -80.5t6.5 -39q0 -83 -20 -155t-60.5 -125.5t-102 -84.5t-144.5 -31q-92 0 -154.5 33t-100.5 87t-54.5 123.5t-16.5 142.5z" />
<glyph unicode="&#x10b0;" horiz-adv-x="1716" d="M125 508q0 49 13 105t37 109.5t58.5 99.5t77.5 76q-52 28 -87.5 67t-57.5 80t-31.5 80.5t-9.5 69.5q0 101 31.5 166.5t87 103.5t129.5 53t160 15l870 1v-167h-870q-59 0 -102.5 -5.5t-72.5 -23.5t-43 -51.5t-14 -89.5q0 -45 20.5 -79.5t53.5 -60.5t75 -45.5t85 -35.5 q55 -1 101.5 -10.5t85.5 -28t72 -47t62 -67.5q27 40 63 69t76 47.5t83 27.5t85 9q77 0 153.5 -33.5t137.5 -95t99 -148t38 -191.5q0 -70 -17.5 -135t-49 -121.5t-74 -103t-92 -79.5t-104 -51t-109.5 -18v168q34 0 67 15.5t63 42t55 61t43 72.5t28.5 76.5t10.5 72.5 q0 51 -18 101.5t-50 90.5t-75 64.5t-92 24.5q-57 0 -100 -14.5t-72 -49.5t-44 -94.5t-15 -150.5v-174h-178v174q0 91 -16 150.5t-46.5 94.5t-74 49.5t-98.5 14.5q-69 0 -114 -17.5t-71.5 -53t-36.5 -88t-10 -122.5q0 -75 19.5 -137.5t54 -107.5t81.5 -70t103 -25v-168 q-88 0 -167 38t-138 105.5t-94 161t-35 203.5z" />
<glyph unicode="&#x10b1;" horiz-adv-x="1071" d="M125 412v1122h178v-1122q0 -50 19 -91t50.5 -70t73.5 -45.5t89 -16.5q46 0 88 16.5t74.5 46.5t52 71.5t19.5 91.5q0 58 -8.5 96t-22 63.5t-30.5 43t-35.5 34.5t-35.5 38t-30.5 53t-22 80t-8.5 119l174 4q0 -76 14 -120.5t34.5 -74.5t45.5 -54t46.5 -57.5t37 -85 t18.5 -138.5v-1q0 -89 -33.5 -165t-90 -131.5t-131.5 -87t-158 -31.5q-79 0 -152.5 32t-130.5 87.5t-91 131t-34 161.5z" />
<glyph unicode="&#x10b2;" horiz-adv-x="1537" d="M125 575v666h176v-666q0 -76 19.5 -134t54.5 -101t83 -72t105.5 -46.5t121.5 -25t131 -7.5q90 0 165 18.5t129.5 51t84.5 77.5t30 98q0 91 -15.5 156t-41 109t-59 70t-69.5 40t-72 18t-67 4h-21q-22 0 -57.5 -4t-69.5 -19.5t-58.5 -46.5t-24.5 -85q0 -30 10 -50t33 -32.5 t59.5 -17.5t89.5 -5v-184q-111 0 -182.5 23t-113 63t-58 92t-16.5 111q0 40 12 77t33.5 68.5t50 57.5t61.5 45q-36 18 -65 38.5t-49.5 50t-31.5 71.5t-11 104q0 96 31.5 162t81 107t111 59t120.5 18q57 0 118.5 -18t112 -59t83 -107t32.5 -162q0 -41 -12.5 -78t-35 -69.5 t-52.5 -60.5t-64 -50q45 -19 91.5 -34t90.5 -35t82.5 -49.5t67.5 -77.5t45.5 -119t16.5 -174q0 -89 -36.5 -169t-110 -140t-184 -95t-259.5 -35h-6q-79 0 -160.5 8.5t-158 31t-144.5 62t-118.5 103t-80 154t-29.5 214.5zM670 1188q0 -34 13.5 -69t36 -64t52.5 -47.5 t64 -18.5q33 0 63.5 16.5t54.5 44t38 63.5t14 75q0 46 -12.5 79.5t-35 55t-53 31.5t-67.5 10q-82 0 -125 -41.5t-43 -134.5z" />
<glyph unicode="&#x10b3;" horiz-adv-x="1327" d="M125 1361v172h156q52 0 98.5 -5.5t87 -20.5t74.5 -41.5t61 -69.5q28 43 63 69.5t70 41.5t67 20.5t54 5.5q87 0 152 -34.5t108 -91t64.5 -129.5t21.5 -151v-721q0 -83 -38.5 -157.5t-102 -130t-146 -88t-170.5 -32.5q-52 0 -105.5 15.5t-104.5 43.5t-96 66.5t-79 84 t-53.5 96t-19.5 102.5v253h174v-253q0 -43 26.5 -84t67.5 -72.5t91.5 -51t98.5 -19.5t98 12.5t90 40t65.5 70.5t25.5 104v721q0 64 -14.5 109t-38 72.5t-54 40t-61.5 12.5q-78 0 -121 -55.5t-43 -178.5v-226h-180v226q0 71 -13.5 116.5t-42 71.5t-71.5 36t-102 10h-158z" />
<glyph unicode="&#x10b4;" horiz-adv-x="1716" d="M125 1057v5q0 114 32 202t87.5 147.5t130 90.5t158.5 31q40 0 84 -7.5t86.5 -24t82 -43.5t70.5 -66q24 42 61 69.5t80 43t88.5 22t86.5 6.5h2q90 0 166 -32.5t132 -91.5t87.5 -142t31.5 -184q0 -46 -6 -99t-23.5 -103t-50 -93t-85.5 -69q53 -20 85.5 -59t50 -85 t23.5 -92.5t6 -81.5q0 -80 -28 -152.5t-85.5 -128t-145.5 -88.5t-209 -34h-5q-131 0 -217.5 35t-138.5 92.5t-73 130.5t-21 150h178q0 -105 71 -161t206 -56q75 0 130 11t90 36.5t52 65.5t17 99q0 70 -13 114t-34 69t-47 34t-53 9h-120v168h120q30 0 56.5 31t46.5 77 t32 98.5t12 95.5q0 61 -21 109.5t-55 83t-77 53t-87 18.5q-60 0 -102.5 -15t-69.5 -51.5t-40 -98t-14 -153.5q-1 -110 -35.5 -197.5t-92 -148t-131.5 -92.5t-154 -32q-85 0 -159 32.5t-129 94t-87 151.5t-33 206zM301 1057q0 -51 17.5 -106.5t49 -101t73.5 -75t92 -29.5 q44 0 86.5 16t75.5 51t53 90t20 133v3q0 50 -18.5 106.5t-50.5 104.5t-75 80t-91 32q-50 0 -92 -19t-73.5 -57t-49 -95t-17.5 -133z" />
<glyph unicode="&#x10b5;" horiz-adv-x="1071" d="M125 410v178h177v-178q0 -43 14 -84t42.5 -72.5t72 -50.5t102.5 -19q43 0 85.5 13t75.5 40t53.5 70t20.5 103v421q0 34 -20.5 70t-54.5 65t-78 47.5t-91 18.5q-43 0 -69.5 -14t-41 -40.5t-19.5 -63.5t-5 -83h-182q0 95 23 165.5t64 116.5t98.5 68.5t125.5 22.5 q18 0 47.5 -6.5t64 -18.5t70.5 -30t68 -41v426h178v-1124q0 -94 -33.5 -169.5t-90 -128.5t-131.5 -81.5t-158 -28.5q-89 0 -164 30.5t-129 85t-84.5 129t-30.5 163.5z" />
<glyph unicode="&#x10b6;" horiz-adv-x="1716" d="M125 1023v4q0 125 33 220t88.5 158.5t129.5 95.5t157 32q43 0 87.5 -10t87 -31.5t80.5 -54.5t70 -78q27 43 63 75.5t77 54.5t85 33t86 11q78 0 154 -25t135.5 -81.5t96 -148.5t36.5 -225v-10q-2 -125 -39 -225.5t-98.5 -172t-141.5 -110t-167 -38.5v168q55 0 104 25.5 t85 74t57 119t21 159.5q0 52 -19 108.5t-51.5 103t-76.5 76.5t-93 30q-71 0 -115 -10.5t-69 -45t-33.5 -101t-8.5 -177.5v-274h-178v274q0 105 -11 170.5t-37.5 101.5t-70.5 49t-111 13h-5q-53 0 -95.5 -30t-73 -78t-47 -110t-16.5 -127q0 -181 36.5 -312t101 -223 t152.5 -149t189.5 -89t213 -43t223.5 -11h186v-189l-186 -3q-241 1 -441.5 57t-345 178.5t-225 317.5t-80.5 473z" />
<glyph unicode="&#x10b7;" horiz-adv-x="1069" d="M125 406v51h180v-51q0 -34 14 -72t41 -70.5t67.5 -53.5t93.5 -21q37 0 80.5 5t80.5 27t61.5 65t24.5 120v329q-22 -40 -52.5 -66.5t-62.5 -42.5t-63 -22.5t-53 -6.5h-2q-84 0 -158.5 31t-130.5 91t-88.5 147.5t-32.5 200.5q0 51 1.5 106.5t11 114t30.5 120t59 126.5h161 q-31 -65 -48.5 -129t-26 -124.5t-10.5 -114.5t-2 -99q0 -89 15 -147.5t44.5 -93t73 -48t101.5 -13.5q53 0 96 31t73.5 77t47 98.5t16.5 95.5v466h176v-1130q0 -81 -19 -142.5t-51 -106.5t-73.5 -75t-87 -48t-91.5 -25.5t-87 -7.5q-81 0 -155.5 37.5t-131 96.5t-90 131.5 t-33.5 142.5z" />
<glyph unicode="&#x10b8;" horiz-adv-x="1325" d="M0 976q0 124 12 213.5t33 151.5t50 100t63 58.5t71.5 27.5t76.5 7q22 0 61.5 -6t83 -22.5t83.5 -45.5t64 -74q25 47 56 76t64.5 45t67.5 21.5t66 5.5h6q98 0 164 -35.5t105.5 -93.5t56 -131.5t16.5 -149.5v-644q0 -57 -9 -115t-28.5 -111.5t-51 -99.5t-76.5 -80.5 t-105 -54t-137 -19.5q-209 0 -310.5 124t-101.5 356q0 120 32.5 210.5t88.5 150.5t131 90t160 30q49 0 109.5 -19.5t117.5 -48.5v231q0 33 -8 75t-27 79t-51.5 62.5t-81.5 25.5q-31 0 -61.5 -9t-54.5 -30.5t-39 -56.5t-15 -86v-76h-174v76q0 43 -17 77t-44 57t-61.5 35.5 t-69.5 12.5h-8q-35 -2 -60.5 -26t-42 -68t-24.5 -107.5t-8 -142.5q0 -11 0.5 -22.5t0.5 -23.5h-174zM563 480q0 -51 6.5 -103t30 -94t70 -68t126.5 -26t125 26t67 68t27 94t5 103t-7 106t-30.5 100t-68.5 74t-121 29q-73 0 -118 -27t-70 -71t-33.5 -99t-8.5 -112z" />
<glyph unicode="&#x10b9;" horiz-adv-x="1069" d="M125 0v1124q0 102 25 179.5t71.5 129t111.5 77.5t146 26q64 0 124.5 -17t107.5 -56.5t75.5 -104t28.5 -158.5q0 -72 -28 -123.5t-73 -86.5t-101 -56.5t-113 -33.5t-109 -18t-88 -10v-124q51 30 113 49.5t119 19.5q97 0 173 -31.5t128.5 -86t80 -128.5t27.5 -159 q0 -81 -8.5 -142.5t-24 -109.5t-36.5 -86.5t-45 -73.5h-160q36 48 56 106.5t29.5 115t11 106t1.5 79.5v5q0 49 -12.5 92t-40.5 75.5t-72 51t-108 18.5q-50 0 -87 -13t-62.5 -34t-41.5 -47t-25.5 -52.5t-12.5 -50.5t-3 -40v-412h-178zM303 1020q27 4 62 7.5t72 10t72.5 17 t63.5 29.5t45 47t17 69q0 80 -35 123t-121 43q-81 0 -128.5 -48.5t-47.5 -135.5v-162z" />
<glyph unicode="&#x10ba;" horiz-adv-x="1358" d="M125 549v315q0 40 3 113.5t17 164.5t41.5 191.5t77.5 195.5h189q-49 -82 -78.5 -171t-45.5 -171.5t-21 -151t-5 -109.5v-377q0 -65 26 -129.5t74.5 -115.5t117.5 -83t154 -32q84 0 154 23.5t121 61t79 84t28 91.5v34q0 40 -15.5 81.5t-46 75.5t-76 55.5t-104.5 21.5h-100 v174h94q117 0 183.5 61t66.5 181q0 42 -8 83t-28.5 74t-56 53.5t-90.5 20.5h-105v170h91q85 0 154 -32.5t117 -87t74 -126.5t26 -151q0 -56 -8.5 -102t-34.5 -86.5t-75.5 -76t-131.5 -69.5q67 -10 114.5 -43.5t77.5 -79t44 -97.5t14 -98v-36q0 -63 -23 -121t-62.5 -107.5 t-93.5 -90.5t-116 -70t-129 -45t-134 -17h-3q-81 0 -152.5 22t-132.5 61t-109.5 91.5t-82.5 114t-52 128.5t-18 134z" />
<glyph unicode="&#x10bb;" horiz-adv-x="1067" d="M125 508q0 135 32 225t87.5 143t130 75t158.5 22h9q22 0 52 -2t61 -12.5t60.5 -32.5t50.5 -62v670h176v-1054q0 -109 -31 -197.5t-86 -151.5t-129 -97t-161 -34q-89 0 -164 34.5t-129.5 100t-85.5 159.5t-31 214zM299 508q0 -85 14 -145.5t42.5 -99t73 -56.5t104.5 -18 q70 0 115 27t71.5 69.5t36.5 94t10 100.5q0 81 -19.5 139t-52.5 95.5t-76 55.5t-89 18q-51 0 -93.5 -12t-72.5 -43t-47 -85.5t-17 -139.5z" />
<glyph unicode="&#x10bc;" horiz-adv-x="1327" d="M125 508v616v4q0 76 17 149t56.5 130t105 92t163.5 35h6q31 0 65.5 -5.5t68 -21.5t64.5 -45t56 -76q24 45 64 74t83.5 45.5t82.5 22.5t62 6q39 0 77 -9t72 -31.5t63 -61.5t50.5 -99.5t33.5 -145t12 -197.5h-182q0 104 -7 176t-25 116.5t-49 64.5t-79 20q-32 0 -62.5 -6 t-54 -25t-37.5 -55.5t-14 -96.5v-76h-174v76q0 67 -13.5 103.5t-35.5 54t-50 21t-58 3.5h-13q-49 0 -82 -25.5t-52.5 -62.5t-27.5 -79t-8 -75v-231q31 31 62 48t60.5 24.5t57.5 9t52 1.5q85 0 159.5 -42t130 -109t87.5 -150.5t32 -166.5q0 -86 -26.5 -176t-78.5 -164 t-129 -121t-178 -47q-98 0 -174 47t-128 121t-78.5 164t-26.5 176zM301 508q0 -34 8 -72.5t22.5 -76.5t35.5 -72.5t46.5 -61t55.5 -42t63 -15.5q35 0 66.5 15.5t57.5 42t47 61t35.5 72.5t22.5 76.5t8 72.5q0 45 -17 95t-48.5 91t-75 68t-96.5 27q-50 0 -92 -24.5t-73 -64.5 t-48.5 -90.5t-17.5 -101.5z" />
<glyph unicode="&#x10bd;" horiz-adv-x="1071" d="M125 406v57h174v-60q0 -111 61.5 -162.5t179.5 -51.5q59 0 102 10.5t71 36t41.5 67t13.5 103.5q0 69 -18.5 108.5t-46.5 62t-61 35t-61 27.5t-46.5 39.5t-18.5 71.5l-106 2q-44 1 -81.5 17t-69 41.5t-56 57.5t-41.5 64.5t-26 63t-9 53.5v8q4 67 29.5 124t67.5 98t98 64 t120 23q17 0 36.5 -3t37.5 -5v175h168v-280q9 -9 19 -21t19 -26.5t16 -31.5t10 -35l197 -2v-156h-202q-5 -37 -20.5 -69.5t-40.5 -49.5l2 -60q0 -18 19.5 -32.5t47.5 -31.5t61.5 -41t62.5 -62t49 -93.5t22 -135.5q0 -62 -23 -133t-73 -132.5t-128.5 -102t-188.5 -40.5 q-93 0 -168.5 29t-128.5 82.5t-82 129t-29 167.5zM297 1059q0 -45 14.5 -76t38 -49.5t52 -26.5t57.5 -8q28 0 56 13t50.5 35.5t37 51t14.5 60.5q0 31 -13 58.5t-34 48t-48 32.5t-55 12q-30 0 -60.5 -6.5t-54.5 -23.5t-39.5 -46.5t-15.5 -74.5z" />
<glyph unicode="&#x10be;" horiz-adv-x="1069" d="M125 503v1031h179v-658q21 37 49.5 57.5t60 30t63 11t60.5 1.5q83 0 157 -23.5t129.5 -78t88 -145.5t32.5 -226q0 -130 -33 -224.5t-88.5 -156.5t-129.5 -92t-156 -30t-156.5 30t-131.5 92t-90.5 156.5t-33.5 224.5zM304 489q0 -62 11 -116.5t37.5 -95t71.5 -64.5 t113 -24q43 0 85 18.5t74 57t52 97t20 138.5v3v3q0 74 -18.5 127.5t-50.5 88t-74 51t-88 16.5q-49 0 -91 -26.5t-73.5 -68t-49.5 -91t-19 -95.5v-19z" />
<glyph unicode="&#x10bf;" horiz-adv-x="1071" d="M125 406v104h178v-104q0 -45 13.5 -88.5t41.5 -78t71.5 -56t103.5 -21.5q66 0 110.5 22.5t72 59t39 82t11.5 92.5q0 66 -23.5 110t-59 76.5t-77 59.5t-77 59t-59 74.5t-23.5 105.5v156l-322 158v208l322 -157v268h174v-362l325 -156v-207l-325 154v-64q0 -33 24 -60 t60 -54.5t78.5 -59.5t78.5 -76t60 -103.5t24 -141.5q0 -89 -26.5 -164t-78.5 -129t-129.5 -84.5t-178.5 -30.5q-105 0 -181.5 37.5t-127 96.5t-75 131.5t-24.5 142.5z" />
<glyph unicode="&#x10c0;" horiz-adv-x="1069" d="M125 412v98h179v-98q0 -45 12 -89t39.5 -78.5t72 -55.5t109.5 -21q34 0 74 11t75 33.5t58.5 56.5t23.5 79q0 46 -12.5 77.5t-29.5 50.5t-35.5 27.5t-30.5 8.5h-209v168h209q21 0 40.5 5t34.5 17.5t24 35t9 57.5q0 34 -10 53.5t-25.5 30t-35 13.5t-37.5 3h-209v170h217 q42 0 70 36t30 105v4q0 81 -88.5 116.5t-251.5 35.5h-124v170l124 2q100 -5 193 -23.5t165 -56t115 -98t43 -150.5q0 -39 -4.5 -71t-15 -59t-29 -49t-45.5 -40q28 -12 46.5 -29t29 -40.5t14.5 -53.5t4 -69q0 -70 -21.5 -119t-78.5 -80q31 -25 50.5 -55t30.5 -62.5t15 -66 t4 -64.5v-6q0 -59 -17.5 -107.5t-47 -86.5t-69.5 -65.5t-84.5 -46t-92 -27.5t-92.5 -9q-99 0 -176.5 27.5t-130.5 80t-81 129.5t-28 175z" />
<glyph unicode="&#x10c1;" horiz-adv-x="1215" d="M125 590q0 68 13 119.5t32.5 97t42.5 90.5t42.5 101t32.5 128.5t13 171.5h180q0 -104 -13 -184t-33 -143.5t-43 -114t-43 -95.5t-33.5 -88.5t-13.5 -92.5v-8q0 -91 15.5 -155t41.5 -106.5t59.5 -66.5t70 -36t72.5 -15t66 -3h18q55 0 103 12t83.5 35.5t56.5 59.5t22 86v5 q0 36 -9.5 69.5t-24.5 59t-32 41t-32 15.5h-154v177h152q12 0 29 2t33 12t27 31.5t11 60.5q0 36 -9.5 56t-24.5 30t-33 12t-35 2h-150v181h150q49 0 75.5 24.5t26.5 75.5q0 34 -18.5 58.5t-51.5 39.5t-79.5 22t-102.5 7v172q49 0 100 -3t99 -13.5t90.5 -30t74 -52.5t50 -82 t18.5 -118q0 -63 -21.5 -109t-82.5 -77q61 -35 82.5 -84.5t21.5 -110.5q0 -39 -5.5 -67t-18.5 -49.5t-35 -40.5t-55 -40q34 -23 56 -55t35 -69t18 -76t5 -76q0 -80 -26 -150t-81 -121.5t-139 -81.5t-199 -30q-70 0 -135.5 8.5t-123.5 32t-106 65t-82.5 107t-53.5 158.5 t-19 219z" />
<glyph unicode="&#x10c2;" horiz-adv-x="1071" d="M125 -16q69 0 125 15t113 40q-34 24 -65 50.5t-57.5 63.5t-47.5 88t-36.5 124t-23.5 172t-8 231q0 204 18.5 349.5t65 238t125.5 135.5t201 43q126 0 205.5 -43t125.5 -135.5t63 -238t17 -349.5q0 -133 -8.5 -231.5t-24 -171.5t-37.5 -124t-48.5 -88t-57 -64t-63.5 -52 q22 -14 54.5 -25t66.5 -19t65.5 -12t52.5 -4v-182q-49 0 -100.5 13.5t-104 35.5t-105 50.5t-103.5 58.5q-42 -30 -94 -58.5t-106.5 -50.5t-108 -35.5t-99.5 -13.5v189zM303 768q0 -122 8.5 -212t23.5 -156t36.5 -110.5t47.5 -74.5t56 -49.5t62 -34.5q29 16 57.5 35.5t54 49 t47 73t37 109t24.5 156t9 214.5v6q0 180 -10 295t-36 180.5t-70.5 90t-114.5 24.5q-74 0 -119.5 -26.5t-70.5 -93t-33.5 -181t-8.5 -291.5v-4z" />
<glyph unicode="&#x10c3;" horiz-adv-x="1071" d="M125 406v181h178v-181q0 -52 15.5 -95t45 -74t72 -48t97.5 -17q116 0 174.5 55.5t58.5 178.5v79q0 74 -11 125.5t-29.5 86t-42.5 54t-49.5 29t-52 12t-48.5 2.5h-152v178h152q26 0 53.5 18.5t53 49.5t48.5 71t39.5 82.5t26.5 84t10 76.5v8h-461v-134h-178v306h821 q0 -111 -18 -214t-49 -187.5t-72 -147t-86 -93.5q42 -12 82.5 -39.5t72 -76t51 -120t19.5 -171.5v-79q0 -102 -31.5 -178.5t-87 -127.5t-131 -76.5t-163.5 -25.5q-83 0 -157.5 30.5t-130 84.5t-88 129t-32.5 164z" />
<glyph unicode="&#x10c4;" horiz-adv-x="1071" d="M125 406v47h178v-47q0 -42 16 -82t46 -71t72.5 -49.5t95.5 -18.5q56 0 99.5 9.5t73 34t45 67.5t15.5 110v38q0 67 -9.5 113.5t-25.5 77t-37 48t-44.5 26t-48 10.5t-46.5 2h-174v178h152q37 0 78 15.5t75.5 53t57 100t22.5 155.5v8q-44 -20 -98 -28.5t-135 -8.5 q-99 0 -175.5 18.5t-128 59.5t-78 105t-26.5 156h178q0 -88 60.5 -127.5t169.5 -39.5q118 0 216.5 42t196.5 122v-371q0 -54 -23 -105t-59.5 -95t-82.5 -81.5t-91 -64.5q27 -12 56.5 -25t58 -32t54 -44.5t45 -62.5t31 -87.5t11.5 -117.5v-41q0 -101 -31.5 -176.5t-87 -126.5 t-131 -76.5t-163.5 -25.5q-83 0 -157.5 29.5t-130 83t-88 128.5t-32.5 167z" />
<glyph unicode="&#x10c5;" horiz-adv-x="1194" d="M125 334q0 77 28.5 142t81.5 112t128 73.5t168 26.5h233v160h-233q-93 0 -168 28t-128 76.5t-81.5 114t-28.5 141.5q0 84 30 145t84 100t130 58t168 19t167 -19t128.5 -58t82.5 -100t29 -145v-184h125v-176h-125v-160h125v-176h-125v-178q0 -72 -21 -133.5t-69 -106.5 t-125.5 -70.5t-191.5 -25.5q-95 0 -171.5 23.5t-130 67.5t-82 106t-28.5 139zM301 334q0 -40 18.5 -69.5t52 -48.5t79.5 -28.5t100 -9.5q117 0 165 44.5t48 125.5v164h-233q-47 0 -88.5 -14.5t-73 -39t-50 -57t-18.5 -67.5zM301 1208q0 -41 16 -74.5t46 -58t72.5 -38 t95.5 -13.5h233v184q0 43 -15.5 72t-45.5 46t-73.5 24.5t-98.5 7.5q-47 0 -88.5 -9t-73 -28t-50 -47t-18.5 -66z" />
<glyph unicode="&#x10c6;" horiz-adv-x="1704" d="M125 1126q0 46 14.5 93.5t41 93t63.5 85.5t82 69.5t96 47t106 17.5q50 0 97 -5.5t88.5 -21t76.5 -43.5t62 -73q27 40 62.5 67t77 43.5t88 23.5t94.5 7q82 0 155.5 -26t129 -77t88 -126.5t32.5 -174.5q0 -95 -32.5 -171t-88 -129t-129 -82t-155.5 -29q-23 0 -54 7 t-64 18.5t-63 26.5t-51 32v-396q0 -101 -34 -177.5t-93 -127.5t-138 -76.5t-169 -25.5v174q58 0 106 11t82 37.5t52.5 71t18.5 111.5v725q0 64 -18 109t-49.5 73.5t-74.5 41t-94 12.5q-47 0 -89 -22.5t-74 -57.5t-50.5 -76.5t-18.5 -79.5q0 -61 18.5 -105t52 -72.5t81 -42 t106.5 -13.5v-178q-104 0 -184 34.5t-135.5 92t-84 131.5t-28.5 153zM942 1126q0 -65 20 -109t52.5 -72t74 -40t85.5 -12q43 0 83.5 13.5t72.5 42t51.5 71.5t19.5 102v4v4q0 63 -19.5 107t-51.5 72t-72.5 40.5t-83.5 12.5q-56 0 -99 -18.5t-72.5 -50t-45 -75t-15.5 -92.5z " />
<glyph unicode="&#x10d0;" horiz-adv-x="1020" d="M100 411v140h178v-140q0 -69 23.5 -115.5t58.5 -75t75.5 -40.5t74.5 -12q41 0 82.5 16.5t74.5 49t53.5 79.5t20.5 108q0 49 -11.5 92.5t-32 75.5t-48 51t-58.5 19q-72 0 -125 30.5t-87.5 74.5t-51.5 93.5t-17 88.5h177q0 -18 8.5 -40.5t24 -42t37 -32.5t47.5 -13 t59.5 -12.5t68.5 -37t69 -59t60.5 -79t42.5 -97t16 -112.5q0 -93 -36 -170t-94 -133t-132.5 -87t-150.5 -31q-81 0 -155 30.5t-130 85.5t-89 130.5t-33 164.5z" />
<glyph unicode="&#x10d1;" horiz-adv-x="1021" d="M100 431q0 86 33 160t82.5 129t107.5 88.5t109 39.5q1 18 21 43.5t43.5 59.5t43 76.5t19.5 95.5q0 50 -26.5 91.5t-66.5 71t-85.5 46t-82.5 16.5h-9v-380h-159v566h151q11 -1 49.5 -13t90 -35t108 -56.5t104.5 -78t79 -99.5t31 -120q0 -61 -21 -107t-46.5 -80t-46.5 -58 t-21 -41q49 -8 104 -42t101.5 -88.5t77 -126t30.5 -154.5v-4q0 -81 -34 -158.5t-90 -138t-128.5 -97.5t-150.5 -37q-80 0 -155.5 35t-134 94.5t-93.5 137.5t-35 164zM281 431q0 -56 18.5 -104t50.5 -83.5t75.5 -55.5t93.5 -20q44 0 84.5 21.5t72 58t50 84t18.5 99.5 q0 56 -17 102.5t-46.5 80t-70 52t-88.5 18.5q-47 0 -90.5 -19.5t-77 -54t-53.5 -80.5t-20 -99z" />
<glyph unicode="&#x10d2;" horiz-adv-x="1182" d="M100 -256q0 106 39.5 187.5t98.5 138t127.5 88.5t126.5 40q8 20 30.5 39.5t52 40t61 43.5t58 51.5t44 63.5t17.5 79q0 39 -19 70.5t-45.5 53t-54 33.5t-43.5 12q-45 0 -77.5 -9t-53.5 -24t-31 -34.5t-10 -40.5v-113h-177v113q0 55 29 106t77.5 90t111.5 62t131 23 q62 0 123 -28t109.5 -75t78.5 -109t30 -130q0 -71 -24.5 -123t-59.5 -90t-74 -64.5t-67 -46.5q70 -17 137.5 -52.5t119.5 -91t84 -131t32 -172.5q0 -75 -31 -156.5t-93 -149.5t-154 -112t-213 -44q-104 0 -193.5 40.5t-155.5 106t-104 148.5t-38 167zM282 -256 q0 -40 17 -88.5t54.5 -91t96.5 -71t143 -28.5q92 0 152 27t95.5 68.5t49.5 90.5t14 93q0 52 -15.5 105.5t-51.5 97t-95.5 70.5t-146.5 27q-79 0 -137.5 -23.5t-97.5 -64t-58.5 -95t-19.5 -117.5z" />
<glyph unicode="&#x10d3;" horiz-adv-x="1662" d="M100 421q0 94 34 174t90 138.5t129.5 91t153.5 32.5q41 0 85 -9.5t86.5 -29t82.5 -49.5t72 -70q30 41 69 70.5t81 49t84.5 29t79.5 9.5q79 0 153.5 -34.5t132.5 -94t93.5 -139t35.5 -168.5t-36 -166t-94.5 -133.5t-133 -89t-151.5 -32.5q-83 0 -156 34t-128 91.5t-87 134 t-32 161.5q0 46 -10.5 89.5t-37.5 77.5t-73 55t-116 21q-44 0 -84.5 -16t-72 -47t-50.5 -76.5t-19 -103.5q0 -120 28.5 -207t78 -150t115 -106.5t139.5 -77t152 -61t152 -58t139.5 -69t115 -93.5t78 -131.5t28.5 -184.5l-166 1q0 81 -29 138.5t-79 100t-116.5 73.5 t-141.5 59t-154.5 58t-154.5 69t-141.5 92.5t-116.5 129t-79 178t-29 239.5zM921 421q0 -49 18 -94.5t49 -81t72 -56.5t87 -21q45 0 87 20t74 54.5t51 80.5t19 98t-18.5 100t-50 84t-73.5 57.5t-89 21.5q-51 0 -92.5 -21.5t-71.5 -57.5t-46 -84t-16 -100z" />
<glyph unicode="&#x10d4;" horiz-adv-x="1031" d="M100 -85h179v-227q0 -35 16.5 -77t46.5 -78t72.5 -60t93.5 -24t94 20.5t74 54.5t48.5 77t17.5 87v739q0 74 -19.5 124t-51.5 80.5t-74.5 43.5t-88.5 13q-31 0 -70.5 -13t-75 -39t-59.5 -64.5t-24 -89.5q0 -30 9 -57.5t24 -48.5t33.5 -34t36.5 -13h25v-180h-25 q-53 0 -104 28.5t-90.5 75t-63.5 106t-24 121.5q0 65 21 118t55.5 95t78.5 73t89.5 51t88.5 30t75 10q44 0 91.5 -11t93.5 -34t87.5 -58t72.5 -82.5t49.5 -108.5t18.5 -136v-729q0 -76 -33 -150.5t-89.5 -133.5t-131.5 -95.5t-159 -36.5q-80 0 -153.5 38.5t-130 98.5 t-90.5 131.5t-34 137.5v227z" />
<glyph unicode="&#x10d5;" horiz-adv-x="1020" d="M100 -79h180v-233q0 -44 16.5 -87t47 -77.5t73 -56t93.5 -21.5q52 0 95 23t74 58.5t48 78t17 82.5v80q0 67 -21 112t-52.5 71.5t-67 37.5t-65.5 11h-152v168h152q55 0 94.5 26.5t64 67t36 88.5t11.5 90q0 51 -18 95.5t-49.5 77.5t-74.5 52t-92 19q-51 0 -93.5 -13.5 t-73 -40.5t-47 -67t-16.5 -93v-156h-180v156q0 72 30 141t84 124t129.5 88.5t166.5 33.5q90 0 165.5 -31.5t130 -87t84.5 -132t30 -166.5q0 -45 -12.5 -96t-35 -99t-54 -88t-69.5 -63q46 -27 78.5 -56t53 -66.5t30 -87t9.5 -116.5v-80q0 -44 -15 -91.5t-42.5 -92.5 t-65.5 -85.5t-83.5 -70.5t-97 -48t-106.5 -18q-81 0 -155 34.5t-131 91.5t-90.5 130t-33.5 150v233z" />
<glyph unicode="&#x10d6;" horiz-adv-x="1279" d="M100 1197q0 69 28.5 130t76.5 106.5t110.5 72t130.5 26.5q78 0 142.5 -23t111 -65t72 -102t25.5 -135v-363q88 -5 158.5 -38.5t120 -88.5t76.5 -128t27 -158q0 -93 -30.5 -171.5t-85 -136.5t-129.5 -90.5t-165 -32.5q-92 0 -167 32.5t-128.5 90.5t-83 136.5t-29.5 171.5 q0 88 31 160t76 124.5t94.5 83.5t87.5 38l9 137q-17 -18 -39 -37t-48.5 -34.5t-58 -25t-67.5 -9.5q-65 0 -127 27t-110.5 72.5t-78.5 105t-30 124.5zM268 1200q0 -32 14.5 -64.5t39 -58.5t56 -42t64.5 -16q42 0 75.5 17.5t57 45.5t35.5 62t12 66q0 81 -46 123.5t-134 42.5 q-79 0 -126.5 -47.5t-47.5 -128.5zM541 431q0 -51 15 -98t44 -84t71.5 -59t97.5 -22q52 0 95 22t73 59t46.5 84t16.5 98q0 46 -16 91.5t-46 81.5t-72 58.5t-94 22.5q-56 0 -99.5 -24t-72.5 -61t-44 -82t-15 -87z" />
<glyph unicode="&#x10d7;" horiz-adv-x="1662" d="M100 431q0 85 33 162.5t89 136t130 93t155 34.5q39 0 83 -9t87 -28.5t83 -50t71 -73.5q27 45 63 75.5t77 49.5t85.5 27.5t88.5 8.5q88 0 164.5 -33.5t132.5 -91.5t88 -135.5t32 -165.5q0 -83 -36 -160t-96.5 -137t-139.5 -96.5t-165 -37.5v168q51 0 97 21.5t80.5 58 t55 84t20.5 99.5q0 48 -18 93.5t-49.5 81t-74 57t-91.5 21.5q-50 0 -91 -21.5t-70.5 -57t-46 -81t-16.5 -93.5q0 -90 -34.5 -168.5t-92 -137t-132 -92t-155.5 -33.5t-155 34t-130 92.5t-89 137t-33 167.5zM281 431q0 -52 17 -99.5t47 -84t71.5 -58t90.5 -21.5 q45 0 87.5 21.5t75.5 58t53.5 84t20.5 99.5q0 53 -17.5 99t-49 80.5t-75.5 54t-98 19.5q-48 0 -89 -22t-70.5 -58t-46.5 -81.5t-17 -91.5z" />
<glyph unicode="&#x10d8;" horiz-adv-x="1021" d="M100 431q0 85 33 162.5t88.5 136t129.5 93t157 34.5q84 0 159 -33.5t131.5 -91.5t89.5 -135.5t33 -165.5q0 -49 -13 -100t-35.5 -98.5t-53.5 -90t-67.5 -74t-76.5 -50t-81 -18.5v168q20 0 45.5 21.5t48.5 57.5t38.5 83.5t15.5 100.5q0 46 -18.5 92t-50.5 83t-74.5 59.5 t-90.5 22.5q-47 0 -88.5 -22.5t-73 -59.5t-49.5 -83t-18 -92q0 -48 16.5 -95t40.5 -84.5t51 -60.5t47 -23v-168q-65 0 -125 36.5t-106.5 96.5t-74.5 137.5t-28 160.5z" />
<glyph unicode="&#x10d9;" horiz-adv-x="1020" d="M100 -130h180v-182q0 -118 62 -178.5t168 -60.5q53 0 96 22t74 56.5t47.5 77t16.5 83.5v80q0 50 -18.5 92.5t-50 73.5t-74 48.5t-91.5 17.5h-152v168h152q53 0 96.5 25t74 63.5t47 85t16.5 89.5q0 70 -25.5 118t-64.5 78t-85 43.5t-87 13.5v173q98 0 178.5 -33t138.5 -91 t89.5 -135.5t31.5 -166.5q0 -46 -11 -95.5t-32.5 -95t-53 -83t-73.5 -60.5q55 -34 88.5 -71.5t51.5 -79t24 -86t6 -92.5v-80q0 -78 -35.5 -151.5t-93 -130t-131.5 -90.5t-150 -34q-84 0 -158.5 25.5t-130.5 76.5t-88.5 127t-32.5 177v182z" />
<glyph unicode="&#x10da;" horiz-adv-x="2295" d="M100 431q0 89 34 166.5t91 135.5t131.5 91t155.5 33q28 0 69.5 -5t86.5 -20.5t89.5 -43.5t78.5 -74q28 46 71 74t88.5 43.5t87.5 20.5t69 5q30 0 72.5 -5t87.5 -20t87.5 -43.5t71.5 -75.5q32 46 74 74.5t86 44t86 20.5t74 5q94 0 168.5 -29t127 -84t80.5 -134t28 -179 q0 -80 -32 -157.5t-89 -138.5t-136.5 -98t-174.5 -37v168h26q7 0 27 3.5t45.5 13.5t53 28t50 47t37.5 71t15 100q0 118 -54 185.5t-172 67.5q-65 0 -109 -17.5t-70.5 -50.5t-38 -80t-11.5 -105v-175h-184v175q0 121 -54 187t-172 66q-62 0 -105.5 -17.5t-71.5 -50t-41 -79.5 t-13 -106v-175h-178v175q0 58 -18 105t-49.5 80t-73.5 50.5t-90 17.5t-90.5 -17.5t-74 -51t-49.5 -81t-18 -107.5q0 -119 25.5 -206t72.5 -150.5t114 -106.5t150 -73t180.5 -51t205.5 -40q93 -17 187.5 -29.5t182 -30.5t163 -46.5t131.5 -77.5t88 -123.5t32 -184.5v-26h-174 q0 75 -23.5 126.5t-65 85.5t-99 54.5t-126 33.5t-145.5 23t-158 23q-109 17 -219 40t-212.5 61t-191.5 94.5t-155.5 140t-104.5 198.5t-38 269z" />
<glyph unicode="&#x10db;" horiz-adv-x="1031" d="M100 431q0 83 34 160t90.5 136t130 94.5t153.5 35.5q31 0 63.5 -6.5t63 -18t58.5 -25.5t51 -29v347q0 61 -19 106.5t-51.5 75.5t-75.5 45t-90 15q-40 0 -80.5 -5.5t-73.5 -22t-54 -47t-21 -79.5q0 -18 4 -37t13 -34t22.5 -24.5t33.5 -9.5v-165q-59 0 -106 23t-79.5 61 t-49.5 86.5t-17 99.5q0 82 32 142.5t87.5 100t129.5 59t159 19.5q92 0 168 -27t130.5 -78.5t84.5 -128t30 -175.5v-694q0 -89 -33.5 -167.5t-89.5 -137t-130.5 -92.5t-156.5 -34q-80 0 -154 35t-131 94.5t-91.5 137.5t-34.5 164zM281 431q0 -52 17.5 -96.5t48.5 -77 t72.5 -51t88.5 -18.5q45 0 87.5 18.5t75.5 51t53 77t20 96.5q0 46 -19 91.5t-51 81.5t-75 58t-91 22q-51 0 -93 -22t-71.5 -58t-46 -81.5t-16.5 -91.5z" />
<glyph unicode="&#x10dc;" horiz-adv-x="1030" d="M110 431v694q0 118 36.5 197t95 126.5t132.5 67.5t148 20h408v-169h-408q-108 0 -170 -60.5t-62 -183.5v-340q54 37 114.5 55.5t117.5 18.5q83 0 157 -33.5t130 -91.5t88.5 -135.5t32.5 -165.5q0 -89 -33 -167.5t-89 -137t-130 -92.5t-156 -34q-85 0 -160 34t-131 92.5 t-88.5 137t-32.5 167.5zM290 431q0 -52 18 -99.5t49 -84t73.5 -58t91.5 -21.5q43 0 85 21.5t74.5 58t52.5 84t20 99.5q0 46 -18 91.5t-50 81.5t-75 58t-94 22q-55 0 -97 -19t-71 -52.5t-44 -80t-15 -101.5z" />
<glyph unicode="&#x10dd;" horiz-adv-x="1662" d="M100 431q0 85 33 162.5t89 136t130 93t155 34.5q42 0 86.5 -6.5t87 -24t81.5 -49t71 -82.5q27 51 63 82.5t77 49t85.5 24t88.5 6.5h2q79 0 153 -34t132 -92t93 -135.5t35 -164.5q0 -83 -35 -160t-95.5 -137t-140.5 -96.5t-170 -37.5v168q50 0 96.5 22.5t82 59.5t57 84 t21.5 97q0 53 -17.5 99t-48.5 80.5t-73.5 54t-91.5 19.5q-117 0 -171.5 -68t-54.5 -185v-175h-177v175q0 56 -17.5 102.5t-48.5 80t-75 52t-96 18.5q-49 0 -90.5 -22t-71.5 -58t-47 -81.5t-17 -91.5q0 -50 21 -97t56.5 -84t81 -59.5t94.5 -22.5v-168q-84 0 -162.5 34 t-138.5 92.5t-96.5 137t-36.5 167.5z" />
<glyph unicode="&#x10de;" horiz-adv-x="1020" d="M100 409v152h180v-150q0 -48 18.5 -91.5t50 -77.5t73.5 -54t90 -20q43 0 85 19.5t74.5 53t52.5 77.5t20 93q0 44 -21 84.5t-54 71.5t-75 49.5t-84 18.5h-152v183l171 -10q28 -2 65.5 9t70.5 37.5t56 70t23 105.5q0 58 -27.5 94t-73 59.5t-103.5 38t-118 28.5t-118 32.5 t-103.5 49.5t-73 79t-27.5 121l178 2v-1q0 -47 27.5 -74t72.5 -43t103 -25.5t118 -23t118 -34t103 -58.5t72.5 -97.5t27.5 -149.5q0 -54 -11.5 -98.5t-35.5 -81.5t-62.5 -67.5t-92.5 -56.5q40 -21 76 -55t63.5 -76t44.5 -89t18 -93q0 -89 -34 -164t-90.5 -130t-130.5 -86 t-153 -31q-77 0 -151 33t-132 89t-93.5 130t-35.5 157z" />
<glyph unicode="&#x10df;" horiz-adv-x="1216" d="M100 401v171h181v-171q0 -54 9.5 -87.5t28 -52t45 -25t60.5 -6.5q81 0 116 43.5t35 137.5q0 23 -8 64.5t-24.5 85.5t-41 82.5t-56.5 55.5v158h671v-1171q0 -101 -36 -176.5t-96 -126t-137 -76t-159 -25.5q-80 0 -154 25t-131 76t-91 127t-34 178v156h178v-156 q0 -60 17 -105.5t47 -76t72 -46t92 -15.5q54 0 99.5 15.5t79 46t52.5 76t19 105.5v996h-246q23 -36 36 -81.5t19.5 -86.5t8 -71t1.5 -34q0 -163 -80.5 -253t-246.5 -90q-92 0 -154.5 24.5t-100.5 69t-54.5 105.5t-16.5 134z" />
<glyph unicode="&#x10e0;" horiz-adv-x="1662" d="M100 431q0 49 13.5 100t37.5 98t58.5 88.5t76.5 71.5q-51 29 -86.5 60.5t-57.5 63.5t-32 63.5t-10 61.5q0 100 32 169.5t87 113.5t129 64t159 20h529q48 0 87.5 2.5t68 15t44.5 38.5t16 73h176q0 -93 -35.5 -150.5t-93.5 -89.5t-131.5 -43t-149.5 -11h-511 q-59 0 -102 -11t-70.5 -35.5t-40.5 -63.5t-13 -94q0 -46 19 -73.5t50.5 -45.5t72.5 -31t85 -29q110 -2 188 -34t136 -110q26 40 63 67.5t79 44.5t86.5 24.5t86.5 7.5q79 0 153.5 -34.5t132.5 -93t93.5 -136t35.5 -162.5q0 -57 -17.5 -111.5t-48 -102t-72.5 -87.5t-91 -69 t-103 -45t-109 -16v168q51 0 98 21.5t82 58t56 84t21 99.5q0 50 -17.5 96t-48.5 81t-73.5 55.5t-91.5 20.5q-115 0 -170.5 -64.5t-55.5 -188.5v-175h-177v175q0 127 -62.5 190t-174.5 63q-49 0 -90.5 -23t-71.5 -59.5t-47 -81.5t-17 -89q0 -50 19 -97t52.5 -84t80 -59.5 t101.5 -22.5v-168q-87 0 -166 35t-138.5 94.5t-94.5 137.5t-35 164z" />
<glyph unicode="&#x10e1;" horiz-adv-x="1031" d="M110 411v1125h179v-1125q0 -49 18 -93t49.5 -77.5t73 -53t88.5 -19.5t91.5 19.5t79 53t55.5 77.5t21 93q0 58 -9 96t-23 64t-32.5 44t-37.5 35.5t-37.5 38.5t-32.5 53.5t-23 81t-9 119.5l175 3q0 -57 8 -95.5t21.5 -65.5t31 -46t35.5 -37.5t35.5 -40t31 -53.5t22.5 -78.5 t10 -114.5v-4q0 -89 -33 -164t-89.5 -130t-131.5 -86t-159 -31q-79 0 -152.5 32t-130.5 88t-91 130.5t-34 160.5z" />
<glyph unicode="&#x10e2;" horiz-adv-x="1441" d="M100 51q0 153 38.5 284t108.5 230.5t168 163t218 81.5v386h175v-387q117 -20 215 -82t168.5 -160t110 -228t39.5 -285q0 -179 -45.5 -322.5t-127 -244t-195.5 -154.5t-250 -54q-137 0 -251 53.5t-197 153.5t-129 243t-46 322zM280 58q0 -146 32 -260t90 -192t138.5 -119 t178.5 -41t179 41t139.5 119t90.5 192t32 260q0 116 -26 214t-72.5 174t-111 127t-142.5 73v-442h-175v445q-81 -17 -146.5 -63t-111 -120t-70.5 -176.5t-25 -231.5z" />
<glyph unicode="&#x10e3;" horiz-adv-x="1278" d="M100 684v173h156q52 0 98.5 -5.5t87 -20.5t75 -42.5t61.5 -70.5q28 43 63 70t70 42.5t67 21t53 5.5q87 0 152 -34.5t108.5 -91.5t65 -130t21.5 -150v-763q0 -83 -30.5 -156.5t-85 -129t-129.5 -88t-163 -32.5q-82 0 -153 34.5t-131 94.5v-1q-60 57 -92 128.5t-32 149.5 v254h174v-254q0 -42 18.5 -85t50 -78.5t74.5 -57.5t91 -22t90 15.5t73 46.5t49 76.5t18 104.5v763q0 64 -14.5 108.5t-38.5 72.5t-54.5 40t-61.5 12q-78 0 -120.5 -56t-42.5 -177v-175h-180v175q0 70 -13.5 115.5t-42 71.5t-71.5 36t-103 10h-158z" />
<glyph unicode="&#x10e4;" horiz-adv-x="1662" d="M100 431q0 83 32 160t87.5 136t129.5 94.5t158 35.5q40 0 84.5 -7.5t87.5 -24.5t82 -44t70 -66q26 42 63 69.5t79 43.5t87 22.5t87 6.5q75 0 149.5 -28.5t133.5 -83t95.5 -134t36.5 -180.5q0 -47 -9.5 -98t-27.5 -97.5t-43.5 -84.5t-56.5 -59q46 -33 73 -77t41.5 -89 t18.5 -87t4 -71v-80q0 -80 -33 -153t-90 -129.5t-132.5 -90t-159.5 -33.5q-86 0 -159.5 34.5t-127.5 91.5t-85 130t-31 150v103h177v-103q0 -50 16 -94t46 -77t71.5 -52t92.5 -19q52 0 94.5 15.5t73 46.5t47 76t16.5 104v80q0 41 -6 82.5t-18.5 74.5t-32 54t-45.5 21h-155 v168h155q30 0 49.5 25t31 63.5t16.5 85t5 89.5q0 60 -19.5 107t-52 79.5t-74 49.5t-85.5 17q-59 0 -102 -20.5t-70.5 -57.5t-40.5 -87t-13 -108q0 -89 -34.5 -165t-92 -132t-132 -87.5t-155.5 -31.5q-84 0 -158 36t-129.5 96t-87.5 139t-32 165zM281 431q0 -52 17 -99.5 t47 -84t71.5 -58t90.5 -21.5q45 0 87.5 18.5t75.5 51t53.5 77t20.5 96.5q0 50 -18.5 99t-50.5 87.5t-75.5 62.5t-92.5 24t-90.5 -22t-71.5 -58t-47 -81.5t-17 -91.5z" />
<glyph unicode="&#x10e5;" horiz-adv-x="1031" d="M100 -79h181v-233q0 -42 13 -85t40.5 -78.5t70.5 -57.5t103 -22q43 0 85.5 15.5t76 46.5t54 76.5t20.5 104.5v671q0 60 -20.5 118.5t-54.5 104t-78 74t-91 28.5q-44 0 -80 -14t-61.5 -39.5t-40 -63t-14.5 -83.5q0 -34 9.5 -64.5t26.5 -54t40 -37t50 -13.5v-169 q-74 0 -131 33.5t-97 84t-60.5 109.5t-20.5 111q0 95 32.5 165t85 115.5t119.5 68.5t135 24q18 0 48.5 -6.5t65.5 -19t71 -30.5t66 -41v774h177v-1846q0 -94 -33 -169t-89.5 -127.5t-131.5 -81t-159 -28.5q-89 0 -164 30.5t-129 84.5t-84.5 128.5t-30.5 162.5v233z" />
<glyph unicode="&#x10e6;" horiz-adv-x="1664" d="M100 431q0 94 33 172t89 134.5t130 88t155 31.5q46 0 91 -5t86.5 -20.5t79.5 -43.5t70 -73q27 43 62.5 71t76 43.5t84 21.5t88.5 6q79 0 154.5 -33.5t134.5 -91.5t94.5 -135.5t35.5 -165.5q0 -89 -36.5 -167.5t-98 -137t-141.5 -92.5t-167 -34v168q55 0 102.5 21.5 t81.5 58t53.5 84t19.5 99.5q0 53 -17.5 99t-48.5 80.5t-73.5 54t-91.5 19.5q-104 0 -165 -61.5t-61 -191.5v-175h-177v175q0 65 -17.5 112.5t-48.5 79t-75 46.5t-96 15q-104 0 -165 -61.5t-61 -191.5q0 -99 21 -175t59 -135t90 -103t114 -79t132 -63t143 -55 q70 -27 138 -53.5t129 -57.5t112.5 -69.5t89 -89t58.5 -117t21 -152.5h-176v29q0 57 -20 100t-56.5 77t-87 62t-112.5 54.5t-132.5 53.5t-146.5 60v-1q-111 43 -212 100.5t-177.5 140.5t-122 198.5t-45.5 274.5z" />
<glyph unicode="&#x10e7;" horiz-adv-x="1020" d="M100 -79h180v-233q0 -35 16.5 -77t46.5 -79t72.5 -62t94.5 -25q37 0 78.5 9.5t76 36t57 74t22.5 123.5v397q-27 -23 -59 -39.5t-63 -26.5t-59.5 -14.5t-49.5 -4.5h-3q-84 0 -158.5 36.5t-130.5 96.5t-88.5 137.5t-32.5 160.5q0 62 18.5 118t50 103.5t74 85.5t91 64.5 t100.5 40.5t102 14v-171q-47 0 -92.5 -17.5t-82 -50t-59 -80t-22.5 -107.5q0 -55 14.5 -103t43 -83.5t72 -56t100.5 -20.5q53 0 96.5 25t74 63.5t47 85t16.5 89.5v426h176v-1171q0 -81 -19 -142.5t-51 -106.5t-74 -75t-87.5 -47.5t-91.5 -25t-87 -7.5q-81 0 -155 37 t-131 95.5t-90.5 130.5t-33.5 143v233z" />
<glyph unicode="&#x10e8;" horiz-adv-x="1025" d="M32 1534q14 0 37.5 -1t50.5 -6t56 -14.5t56 -26t48.5 -41t33.5 -59.5q24 47 54.5 76t64.5 45t68.5 21.5t66.5 5.5h6q97 0 162.5 -35.5t105 -93.5t56.5 -131t17 -149v-694q0 -86 -33.5 -164t-89.5 -137.5t-129.5 -94.5t-154.5 -35q-84 0 -158.5 35t-131 94.5t-89 137.5 t-32.5 164q0 82 32.5 159t88 136t129.5 95t158 36h3q49 0 111 -17.5t117 -46.5v332q0 32 -8 74t-27.5 79.5t-52 63t-81.5 25.5q-31 0 -61 -4.5t-54 -23t-39 -57.5t-15 -108v-110h-174v110q0 67 -16.5 106t-43.5 58t-61 24t-69 5zM278 431q0 -52 16.5 -99.5t46.5 -84 t72.5 -58t94.5 -21.5q49 0 91 21.5t72.5 58t47.5 84t17 99.5q0 50 -17 96t-47.5 81t-72.5 55.5t-91 20.5q-52 0 -94.5 -23t-72.5 -59.5t-46.5 -81.5t-16.5 -89z" />
<glyph unicode="&#x10e9;" horiz-adv-x="1031" d="M110 0v1125q0 102 25.5 179t72 128.5t111.5 77.5t145 26q64 0 124.5 -17t107.5 -56t76 -103.5t29 -159.5q0 -72 -28 -123.5t-72.5 -87t-101 -57t-113 -33.5t-108 -17.5t-87.5 -8.5v-126q48 31 110.5 51t119.5 20q96 0 172.5 -31.5t129 -86.5t80.5 -129.5t28 -159.5 q0 -80 -39 -154.5t-101 -131.5t-140.5 -91t-156.5 -34v168q35 0 79.5 17t84.5 49t67 76.5t27 100.5q0 49 -13 92.5t-40.5 76t-71.5 51t-106 18.5q-51 0 -87.5 -13t-62.5 -34t-42 -47t-25 -52.5t-12 -50.5t-3 -41v-411h-179zM289 1182l2 -162q27 3 62 6.5t71.5 10t71.5 17.5 t62.5 30t44.5 47.5t17 68.5q0 81 -35.5 124t-120.5 43q-79 0 -127 -50t-48 -135z" />
<glyph unicode="&#x10ea;" horiz-adv-x="1309" d="M100 147q0 26 1 72t5 104t12.5 126t24 138t39.5 140t58 132h189q-34 -55 -58 -117t-40.5 -125t-26.5 -124.5t-15 -115.5t-6.5 -97.5t-1.5 -70.5v-376q0 -66 32.5 -134.5t85 -125t119 -92t134.5 -35.5q82 0 152 28t121 70.5t79.5 92.5t28.5 94v36q0 39 -16 80.5t-46.5 75 t-76 55.5t-104.5 22h-99v174h93q115 0 182 61.5t68 179.5v1q0 34 -23.5 59.5t-59 50.5t-77 52.5t-77 65.5t-59 89.5t-23.5 123.5h180q0 -47 23 -81t58 -63t75.5 -56t75.5 -60t58 -75.5t23 -101.5q1 -54 -7.5 -100.5t-35.5 -87t-76.5 -76.5t-130.5 -69q67 -12 114.5 -45 t77.5 -77.5t44 -96t14 -100.5v-37q0 -63 -22.5 -120.5t-62 -107.5t-93 -90.5t-115 -69.5t-128.5 -45t-133 -16q-69 0 -137 21.5t-129.5 60t-114 90.5t-91 113.5t-60.5 129t-22 136.5v314z" />
<glyph unicode="&#x10eb;" horiz-adv-x="1030" d="M100 423q0 82 32.5 160.5t88.5 139t130.5 97.5t158.5 37q21 0 50.5 -6.5t61.5 -19.5t63.5 -31t58.5 -41v775h176v-1103q0 -89 -33 -167.5t-89 -137t-130 -92.5t-156 -34t-156.5 34t-131.5 92t-90.5 134.5t-33.5 162.5zM280 424q0 -48 18 -94t49 -82t73.5 -58t91.5 -22 q43 0 84.5 22.5t74.5 59.5t53 84t20 97q0 46 -20 91.5t-53 81.5t-76.5 58t-89.5 22q-50 0 -91 -23.5t-71 -61t-46.5 -83.5t-16.5 -92z" />
<glyph unicode="&#x10ec;" horiz-adv-x="1080" d="M110 552v573q0 206 85 307.5t269 101.5q36 0 70 -6t64.5 -21.5t58 -41.5t50.5 -66q29 41 62 67.5t67 41.5t68 20.5t66 5.5v-167q-48 0 -80.5 -12.5t-52 -41t-28 -75t-8.5 -113.5v-101h-180v101q0 65 -11.5 111t-32.5 75t-50 42.5t-63 13.5q-37 0 -68 -12t-54 -40 t-36 -74.5t-13 -115.5v-385q31 23 70 38t76.5 24t120.5 16q96 0 169.5 -33.5t123 -91t75 -135.5t25.5 -167q0 -127 -18.5 -223t-49.5 -176.5t-71.5 -153.5t-85 -154t-89.5 -177.5t-85 -224.5h-170q0 83 -20.5 174.5t-50.5 191t-66 206t-66 220t-50.5 233.5t-20.5 245z M293 471q0 -84 13.5 -166.5t34.5 -163.5t46 -160.5t48 -156.5t40.5 -151t23.5 -145q34 101 68 178t65.5 141t58.5 121.5t47 119.5t31.5 134t11.5 165v4q0 55 -13 101.5t-40 80.5t-69 53t-100 19q-55 0 -103.5 -9t-84.5 -29.5t-57 -54t-21 -81.5z" />
<glyph unicode="&#x10ed;" horiz-adv-x="1024" d="M100 -110h175v-204q0 -54 14.5 -99.5t43.5 -77.5t72.5 -50t102.5 -18q118 0 176.5 63t58.5 184q0 69 -18.5 118.5t-46.5 89t-61 73.5t-61 72t-46.5 85t-18.5 111l-105 3q-67 2 -119.5 35.5t-89 80t-55.5 96t-19 84.5v9q4 67 30 124t68 98t97.5 64t118.5 23q18 0 37 -3.5 t37 -5.5v691h168v-794q8 -9 18 -20.5t19.5 -26.5t16.5 -32.5t9 -36.5l202 -1v-156h-205q-5 -37 -21.5 -69.5t-39.5 -48.5l1 -111q0 -47 19 -83.5t48 -71t62.5 -70.5t62.5 -81.5t49 -105t21 -140.5q0 -41 -10 -87t-31.5 -91t-54 -86.5t-78.5 -73t-105.5 -50t-133.5 -18.5 q-93 0 -168 29t-128.5 82t-82.5 128t-29 167v202zM273 547q0 -46 14.5 -76.5t37.5 -49t51.5 -26t57.5 -7.5q28 0 56.5 13t51 35t36.5 50.5t14 60.5q0 30 -12.5 57.5t-33.5 48.5t-48 33.5t-56 12.5q-30 0 -60 -7t-54 -24t-39.5 -46.5t-15.5 -74.5z" />
<glyph unicode="&#x10ee;" horiz-adv-x="1030" d="M110 431v1103h180v-769q61 42 118 67t114 25q83 0 157 -33.5t130 -91.5t88.5 -135.5t32.5 -165.5q0 -89 -33 -167.5t-89 -137t-130 -92.5t-156 -34q-81 0 -155.5 35t-131.5 94.5t-91 137.5t-34 164zM290 431q0 -52 18.5 -99.5t50 -84t73.5 -58t90 -21.5q43 0 85 21.5 t74.5 58t52.5 84t20 99.5q0 46 -18.5 91.5t-50.5 81.5t-74 58t-89 22q-48 0 -90.5 -22t-74 -58t-49.5 -81.5t-18 -91.5z" />
<glyph unicode="&#x10ef;" horiz-adv-x="1021" d="M100 -206h179v-106q0 -44 13.5 -87.5t41 -78t71 -56t103.5 -21.5q66 0 110.5 22.5t72 59t39.5 82.5t12 93q0 86 -23.5 141.5t-59.5 93.5t-77 67t-77 63t-59.5 81t-23.5 121v257l-322 159v207l322 -157v359h174v-453l325 -155v-208l-325 155v-166q0 -44 24 -75.5t60 -61.5 t78.5 -64t78.5 -83.5t60 -120.5t24 -174q0 -89 -26.5 -163.5t-78.5 -128.5t-129.5 -84t-178.5 -30q-105 0 -182 37t-127 95.5t-74.5 130.5t-24.5 143v106z" />
<glyph unicode="&#x10f0;" horiz-adv-x="1020" d="M100 411v150h180v-150q0 -45 12 -89t39.5 -78t71.5 -55t109 -21q33 0 73.5 11.5t75.5 34t59 56t24 78.5q0 46 -12.5 77.5t-29.5 51t-36 27.5t-32 8h-207v167h207q20 0 40 4.5t35.5 17.5t25 35.5t9.5 57.5q0 34 -9.5 54t-25.5 30.5t-35.5 13.5t-39.5 3h-207v170h216 q42 0 71.5 36t29.5 105q0 43 -27.5 66.5t-73 35.5t-103.5 17t-118 9.5t-118 13.5t-103.5 30t-73 58t-27.5 98h178q1 -17 29 -26.5t73.5 -16.5t103 -14t117.5 -18.5t117.5 -29.5t102 -47t72 -72t27.5 -104q0 -78 -20 -130t-74 -89q28 -13 46 -30t28.5 -40.5t15 -53.5t4.5 -69 q0 -70 -21.5 -118.5t-78.5 -80.5q30 -23 49 -52.5t30.5 -62.5t16 -67t4.5 -65v-5q0 -89 -37.5 -153.5t-96 -106.5t-130.5 -62.5t-140 -20.5q-99 0 -176.5 27.5t-131 80.5t-81 129t-27.5 174z" />
<glyph unicode="&#x10f1;" horiz-adv-x="1276" d="M106.5 -143q8.5 87 24 179t31.5 188.5t20 199t-11 211t-61 222.5h185q39 -121 50.5 -235t6 -220t-21.5 -204t-31 -187.5t-23.5 -170.5t1.5 -152q93 -257 308 -241q244 0 295 201q-2 217 -104 229h-154v178h154q92 20 102 147q-7 122 -98 140h-158v176h156q90 12 100 157 q-7 115 -102 130h-154v180h154q102 8 102 171q-10 113 -188.5 161t-180.5 219h174q1 -77 184.5 -133t191.5 -247q-8 -213 -105 -257q69 -42 87 -87.5t18 -136.5q-8 -205 -115 -247q107 -46 115 -226q-5 -178 -107 -223q120 -81 107 -331q-30 -342 -474 -367 q-417 32 -475 407q-12 82 -3.5 169z" />
<glyph unicode="&#x10f2;" horiz-adv-x="1021" d="M100 -16q36 0 66.5 4t59 11t56 17t56.5 22q-51 38 -94.5 87.5t-75.5 105t-50 114.5t-18 116q0 91 29 166.5t82.5 128.5t128.5 82.5t168 29.5q90 0 166 -30.5t130.5 -84.5t85.5 -129t31 -163q0 -61 -19 -121.5t-51 -115.5t-75.5 -103t-92.5 -84q27 -8 53 -14.5t48 -15.5 h-1q46 -12 80 -20.5t58 -8.5v-183q-49 0 -100.5 13.5t-104 36t-105 50.5t-103.5 57q-43 -30 -94.5 -58t-105.5 -50t-107.5 -35.5t-100.5 -13.5v189zM279 461q0 -41 18 -89.5t49.5 -94t74 -84.5t90.5 -61q45 24 86.5 63t74 84.5t51.5 93t19 88.5v5q0 47 -12 88t-39.5 71 t-72 47t-110.5 17q-56 0 -98.5 -18t-71.5 -48.5t-44 -71.5t-15 -87v-3z" />
<glyph unicode="&#x10f3;" horiz-adv-x="1021" d="M100 -79h179v-233q0 -50 15.5 -92.5t45 -73.5t72 -49t96.5 -18q115 0 174.5 55t59.5 178v80q0 111 -24 181t-60 109.5t-76.5 54t-73.5 14.5h-151v179h151q26 0 53 19.5t51.5 51t46.5 72t39 83t28 83.5t14 74h-461v-127h-179v306h821q0 -112 -18.5 -214.5t-49 -187 t-71.5 -147t-86 -93.5q43 -14 83.5 -49.5t72 -93t50.5 -136.5t19 -179v-80q0 -101 -31.5 -177t-86.5 -127t-131 -76.5t-164 -25.5q-83 0 -157.5 30t-130 84t-88 128.5t-32.5 163.5v233z" />
<glyph unicode="&#x10f4;" horiz-adv-x="1021" d="M100 -79h179v-233q0 -42 16 -83.5t46 -75t72 -54t95 -20.5q56 0 99.5 12t73.5 39t45.5 71.5t15.5 110.5v80q0 109 -24 178.5t-60 109.5t-76.5 55.5t-73.5 15.5h-151v179h151q37 0 76.5 23.5t72.5 70t56 115.5t27 160q-23 -9 -47 -16t-51.5 -11.5t-60.5 -6.5t-73 -2 q-99 0 -175.5 29.5t-128 83.5t-78 129.5t-26.5 167.5q0 76 25 136t64.5 105.5t89 77t98 51t91 28.5t68.5 9v-176q-9 0 -31.5 -3.5t-51 -13t-59.5 -25.5t-56.5 -42t-42 -62t-16.5 -85q0 -44 15.5 -86t45 -74t72 -51.5t96.5 -19.5q118 0 217.5 38.5t195.5 118.5v-370 q0 -55 -23 -112t-59.5 -109t-82 -95t-90.5 -70q41 -18 86 -53t82.5 -89.5t62 -131t24.5 -177.5v-82q0 -101 -31.5 -176.5t-86.5 -126t-131 -76t-164 -25.5q-83 0 -157.5 29.5t-130 82.5t-88 128t-32.5 166v233z" />
<glyph unicode="&#x10f5;" horiz-adv-x="1145" d="M100 334q0 76 28.5 141t81.5 112.5t128 74.5t168 27h234v158h-234q-93 0 -168 28.5t-128 77.5t-81.5 114.5t-28.5 140.5q0 83 29.5 144t84 100.5t130.5 58.5t169 19q92 0 167 -19t128 -58.5t82 -100.5t29 -144v-184h126v-177h-126v-158h126v-177h-126v-178 q0 -71 -21 -132.5t-68.5 -106.5t-125 -71t-191.5 -26q-96 0 -172.5 23.5t-130 67.5t-82 106t-28.5 139zM276 334q0 -40 19 -69.5t52.5 -48.5t79.5 -28.5t100 -9.5q114 0 163.5 44t49.5 126v164h-234q-48 0 -89.5 -14.5t-73 -39t-49.5 -57t-18 -67.5zM276 1208q0 -41 16 -75 t46 -58t72.5 -37.5t95.5 -13.5h234v184q0 42 -16 71t-46 46t-73.5 24.5t-98.5 7.5q-47 0 -88.5 -9t-73 -27.5t-50 -46.5t-18.5 -66z" />
<glyph unicode="&#x10f6;" horiz-adv-x="1655" d="M100 411q0 45 14.5 93t41 93.5t63.5 85.5t82 70t96.5 47.5t106.5 17.5q51 0 97.5 -6t87.5 -22t76 -44t62 -72q27 39 63 66t78 44t87.5 24.5t92.5 7.5q82 0 156 -26t130 -77t88.5 -127t32.5 -175q0 -94 -32.5 -170t-88.5 -129.5t-130 -82.5t-156 -29q-23 0 -53.5 7 t-63 18.5t-62.5 26.5t-52 32v-396q0 -101 -34 -177t-92.5 -127t-137.5 -76.5t-170 -25.5v173q58 0 105 11t80.5 38t51.5 71.5t18 110.5v725q0 64 -17.5 108t-48 70.5t-73 38t-93.5 11.5q-48 0 -90 -21.5t-73.5 -54.5t-49.5 -73.5t-18 -78.5q0 -61 18.5 -105t52.5 -72.5 t81.5 -42t104.5 -13.5v-178q-103 0 -183 34.5t-135.5 92t-84.5 131.5t-29 153zM917 411q0 -65 20 -109t52.5 -72t74 -40t84.5 -12q44 0 85 13.5t73 42t51 71.5t19 102v4v5q0 63 -19 105.5t-51 69t-73 37.5t-85 11q-55 0 -98 -17t-72.5 -47t-45 -72t-15.5 -92z" />
<glyph unicode="&#x10f7;" horiz-adv-x="1082" d="M50 -239q0 90 28 157.5t73.5 120t104 93t119 75.5t119 69t104 72.5t73.5 86t28 110.5q0 39 -18 65.5t-43.5 43t-52 23.5t-42.5 7q-45 0 -77.5 -9t-53.5 -24t-31 -34.5t-10 -40.5v-54h-177v54q0 55 29 106t77.5 90t111.5 62t131 23q62 0 122 -23.5t107.5 -65t76.5 -99 t29 -124.5q0 -81 -28 -143.5t-73.5 -112.5t-103.5 -90.5t-119 -77.5t-119 -73t-103.5 -77.5t-73.5 -91t-28 -113.5q0 -40 17.5 -92t55 -98.5t97 -78.5t143.5 -32q92 0 153.5 30t99 74.5t53 96t15.5 95.5q1 19 -4 49t-13.5 60.5t-20 55.5t-22.5 33l153 60q10 -17 22 -41 t23.5 -56t19.5 -72.5t10 -88.5q0 -50 -14 -105t-41.5 -108t-68.5 -101.5t-95.5 -85t-122.5 -58t-149 -21.5q-69 0 -132 20t-118 54.5t-99 81t-76 99.5t-49 110.5t-17 113.5z" />
<glyph unicode="&#x10f8;" horiz-adv-x="926" d="M50 -314v1171h179v-500q0 -24 17 -56.5t48 -62t74.5 -50t96.5 -20.5q57 0 100.5 20.5t72.5 56t43.5 83.5t14.5 103l-61 426h180l61 -426q0 -83 -32.5 -160.5t-89 -137.5t-131 -96.5t-158.5 -36.5h-3q-21 0 -50 4.5t-60.5 14.5t-63.5 26.5t-59 39.5v-397q0 -76 23 -123.5 t57.5 -74t76 -36t79.5 -9.5q52 0 94.5 25t73 62t47 79t16.5 77v192h180v-192q0 -47 -15.5 -95.5t-43 -93.5t-66 -84.5t-84 -69t-97 -46.5t-105.5 -17q-41 0 -87.5 7.5t-92.5 25t-88.5 47.5t-75 75t-52 106.5t-19.5 142.5z" />
<glyph unicode="&#x10f9;" horiz-adv-x="1082" d="M50 397q0 50 14 105t41.5 108t68.5 101.5t95.5 85t122.5 58t149 21.5q69 0 132 -20t118 -54.5t99 -81t76 -99.5t49 -110.5t17 -113.5q0 -87 -27.5 -157.5t-72.5 -129t-102.5 -107t-117.5 -90.5t-117.5 -79.5t-102.5 -74.5t-72.5 -75t-27.5 -81q0 -39 18.5 -67t43.5 -46.5 t107 -35.5q104 18 129 33t38 34.5t13 40.5v74h177v-74q0 -56 -32 -106.5t-84.5 -89.5t-118.5 -62t-134 -23q-62 0 -123 23.5t-109.5 65t-78.5 98.5t-30 125q0 43 14.5 80.5t38 69.5t52 59t57 50.5t53 43t39.5 36.5q-85 2 -160 38.5t-131 99t-88.5 146.5t-32.5 181zM228 397 q0 -35 11 -74.5t32 -78t52.5 -74.5t72 -63t90 -43t107.5 -16q53 22 100 55.5t82 78t55 98.5t20 117q0 27 -7.5 59.5t-23.5 65.5t-40.5 63.5t-59 54.5t-79.5 38.5t-101 14.5q-92 0 -152 -30t-95.5 -74.5t-49.5 -96.5t-14 -95z" />
<glyph unicode="&#x10fa;" horiz-adv-x="1667" d="M100 420v440h181v-440q0 -70 13 -118t38 -78t61.5 -43t83.5 -13q66 0 115.5 21.5t83.5 57t51 81t17 92.5v440h177v-440q0 -55 15.5 -101.5t45.5 -80t74 -52t101 -18.5q53 0 94.5 26t69.5 65.5t42.5 87t14.5 90.5v423l186 -1v-1173q0 -81 -19.5 -142.5t-52 -106.5t-75 -75 t-89 -47.5t-93 -25t-87.5 -7.5q-81 0 -154.5 37t-129 95.5t-88 130.5t-32.5 143v113h177v-113q0 -35 16 -77t45.5 -79t71.5 -62t94 -25q37 0 77.5 9.5t74 36t55 74t21.5 123.5v397q-27 -23 -56.5 -39.5t-58 -26.5t-54.5 -14.5t-47 -4.5h-3q-40 0 -83.5 7.5t-85.5 26.5 t-81.5 51.5t-71.5 82.5q-34 -53 -79.5 -85.5t-94.5 -51t-97 -25t-87 -6.5q-92 0 -162 36t-118 95t-72.5 134.5t-24.5 154.5z" />
<glyph unicode="&#x10fb;" horiz-adv-x="824" d="M102 0v172h182v-172h-182zM102 687v172h182v-172h-182zM544 350v172h182v-172h-182z" />
<glyph unicode="&#x2000;" horiz-adv-x="915" />
<glyph unicode="&#x2001;" horiz-adv-x="1830" />
<glyph unicode="&#x2002;" horiz-adv-x="915" />
<glyph unicode="&#x2003;" horiz-adv-x="1830" />
<glyph unicode="&#x2004;" horiz-adv-x="610" />
<glyph unicode="&#x2005;" horiz-adv-x="457" />
<glyph unicode="&#x2006;" horiz-adv-x="305" />
<glyph unicode="&#x2007;" horiz-adv-x="305" />
<glyph unicode="&#x2008;" horiz-adv-x="228" />
<glyph unicode="&#x2009;" horiz-adv-x="366" />
<glyph unicode="&#x200a;" horiz-adv-x="101" />
<glyph unicode="&#x2010;" horiz-adv-x="682" d="M65 440v181h553v-181h-553z" />
<glyph unicode="&#x2011;" horiz-adv-x="682" d="M65 440v181h553v-181h-553z" />
<glyph unicode="&#x2012;" horiz-adv-x="682" d="M65 440v181h553v-181h-553z" />
<glyph unicode="&#x2013;" d="M-4 458v145h1139v-145h-1139z" />
<glyph unicode="&#x2014;" horiz-adv-x="2048" d="M0 458v145h2048v-145h-2048z" />
<glyph unicode="&#x2018;" horiz-adv-x="455" d="M128 1011v165q0 134 32 194q42 80 133 121l44 -70q-55 -23 -81 -68.5t-29 -132.5h94v-209h-193z" />
<glyph unicode="&#x2019;" horiz-adv-x="455" d="M108 1072q54 22 80.5 69.5t29.5 130.5h-94v209h193v-165q0 -134 -31 -193q-43 -81 -134 -122z" />
<glyph unicode="&#x201a;" horiz-adv-x="455" d="M108 -200q54 22 80.5 69.5t29.5 130.5h-94v209h193v-165q0 -134 -31 -193q-43 -81 -134 -122z" />
<glyph unicode="&#x201c;" horiz-adv-x="682" d="M83 1011v165q0 134 32 194q42 80 133 121l44 -70q-55 -23 -81 -68.5t-29 -132.5h94v-209h-193zM393 1011v165q0 134 32 194q42 80 133 121l44 -70q-55 -23 -81 -68.5t-29 -132.5h94v-209h-193z" />
<glyph unicode="&#x201d;" horiz-adv-x="682" d="M71 1072q54 22 80.5 69.5t29.5 130.5h-94v209h193v-165q0 -134 -31 -193q-43 -81 -134 -122zM381 1072q54 22 80.5 69.5t29.5 130.5h-94v209h193v-165q0 -134 -31 -193q-43 -81 -134 -122z" />
<glyph unicode="&#x201e;" horiz-adv-x="682" d="M71 -200q54 22 80.5 69.5t29.5 130.5h-94v209h193v-165q0 -134 -31 -193q-43 -81 -134 -122zM381 -200q54 22 80.5 69.5t29.5 130.5h-94v209h193v-165q0 -134 -31 -193q-43 -81 -134 -122z" />
<glyph unicode="&#x2020;" d="M73 866v160h399v406h180v-406h402v-160h-402v-1212h-180v1212h-399z" />
<glyph unicode="&#x2021;" d="M73 24v161h402v725h-402v161h402v375h180v-375h403v-161h-403v-725h403v-161h-403v-370h-180v370h-402z" />
<glyph unicode="&#x2022;" horiz-adv-x="717" d="M109 718q0 105 74.5 179t178.5 74q105 0 179.5 -74t74.5 -179t-74.5 -179.5t-179.5 -74.5q-104 0 -178.5 74.5t-74.5 179.5z" />
<glyph unicode="&#x2026;" horiz-adv-x="2048" d="M239 0v205h205v-205h-205zM922 0v205h205v-205h-205zM1604 0v205h206v-205h-206z" />
<glyph unicode="&#x202f;" horiz-adv-x="366" />
<glyph unicode="&#x2030;" horiz-adv-x="2048" d="M37 1099q0 199 78.5 289.5t207.5 90.5q128 0 208 -91t80 -285q0 -196 -70 -295.5t-216 -99.5q-128 0 -208 93t-80 298zM185 1091q0 -152 39.5 -205t104.5 -53q59 0 91 45q43 60 43 215q0 152 -44 215q-34 47 -94 47q-62 0 -95 -46q-45 -63 -45 -218zM320 -54l601 1545 h131l-600 -1545h-132zM763 336q0 199 78.5 289.5t206.5 90.5t208.5 -91t80.5 -285q0 -196 -70 -295t-216 -99q-128 0 -208 92.5t-80 297.5zM911 328q0 -151 39.5 -204.5t104.5 -53.5q59 0 91 45q43 61 43 215q0 153 -45 215q-34 47 -93 47q-62 0 -95 -46q-45 -62 -45 -218z M1437 336q0 199 78.5 289.5t207.5 90.5q128 0 208 -91t80 -285q0 -196 -69.5 -295t-216.5 -99q-128 0 -208 92.5t-80 297.5zM1585 328q0 -151 39.5 -204.5t104.5 -53.5q59 0 91 45q43 61 43 215q0 153 -44 215q-34 47 -94 47q-62 0 -95 -46q-45 -62 -45 -218z" />
<glyph unicode="&#x2039;" horiz-adv-x="682" d="M92 527l315 457h149l-265 -457l265 -455h-149z" />
<glyph unicode="&#x203a;" horiz-adv-x="682" d="M127 72l265 458l-265 454h149l304 -448l-304 -464h-149z" />
<glyph unicode="&#x205f;" horiz-adv-x="457" />
<glyph unicode="&#x2122;" horiz-adv-x="2048" d="M225 1345v121h666v-121h-266v-694h-136v694h-264zM982 651v815h200l206 -651l199 651h196v-815h-124v684l-210 -684h-123l-219 694v-694h-125z" />
<glyph unicode="&#x2219;" horiz-adv-x="569" d="M185 619v205h205v-205h-205z" />
<glyph unicode="&#xe000;" horiz-adv-x="1060" d="M0 1060h1060v-1060h-1060v1060z" />
<glyph horiz-adv-x="569" d="M198 0v1062h180v-1062h-180z" />
<glyph horiz-adv-x="682" d="M162 1338q0 73 53.5 126t126.5 53q74 0 127 -53.5t53 -129.5q0 -77 -53 -130t-126 -53q-75 0 -128 53.5t-53 133.5zM238 1337q0 -47 31.5 -79t74.5 -32t74.5 32t31.5 77t-31 77t-75 32q-43 0 -74.5 -31.5t-31.5 -75.5z" />
<glyph horiz-adv-x="682" d="M40 1474h206l113 -170l110 170h204l-225 -280h-192z" />
</font>
</defs>
</svg>
